<?xml version="1.0" encoding="utf-8"?>
<!-- Generator: Adobe Illustrator 19.2.0, SVG Export Plug-In . SVG Version: 6.00 Build 0)  -->
<svg version="1.1" xmlns="http://www.w3.org/2000/svg" xmlns:xlink="http://www.w3.org/1999/xlink" x="0px" y="0px"
	 viewBox="0 0 1960.5 521.9" style="enable-background:new 0 0 1960.5 521.9;" xml:space="preserve">
<style type="text/css">
	.st0{display:none;}
	.st1{display:inline;}
	.st2{fill:#C2B59B;}
	.st3{fill:#FFFFFF;}
</style>
<g id="Layer_1" class="st0">
</g>
<g id="Layer_2">
	<g>
		<path d="M593.7,353.6H440.5V252.1h61.1l-0.5,25.4H565V151.6h-63.4v26.3h-61.1V87.2h152.7l0.5,32.4h63.4V23.8H302.9
			c2.5,0.3,101.9,11,101.9,95.4c0,81.3-48.9,86.9-48.9,86.9s61.5,17.4,61.5,98.7c0,91.5-87.4,112.3-87.4,112.3h327v-95.4h-63.4
			V353.6z"/>
		<path d="M275.2,246H167.1v107.6h114.2c0,0,52.6-2.3,52.6-55.9S275.2,246,275.2,246z"/>
		<path d="M324,132.8c0-40.9-46.5-40.9-46.5-40.9H167.1v87.4H277C277,179.3,324,176.9,324,132.8z"/>
		<path d="M622.9,152.7c0,0-40.4,21.8-40.4,59.6c0,50.5,40.4,66.1,40.4,66.1s39.9-17.1,39.9-66.1
			C662.8,174.8,622.9,152.7,622.9,152.7z M658.6,215.3c0,19.8-16.1,35.9-35.9,35.9s-35.9-16.1-35.9-35.9c0-19.8,16.1-35.9,35.9-35.9
			S658.6,195.4,658.6,215.3z"/>
		<circle cx="622.2" cy="215.6" r="17.7"/>
	</g>
	<g class="st0">
		<g class="st1">
			<path d="M139.9,436.8c-0.2-0.2-0.4-0.4-0.6-0.7c-0.2-0.3-0.4-0.8-0.7-1.5l-4-9.2h-0.5l-3.3,8.3c-0.3,0.8-0.5,1.3-0.7,1.7
				c-0.2,0.4-0.4,0.7-0.6,0.9c-0.2,0.3-0.5,0.5-0.7,0.6c-0.2,0.1-0.5,0.2-0.8,0.2v0.2h4.1v-0.2c-0.4,0-0.7-0.1-0.9-0.3
				c-0.2-0.1-0.3-0.3-0.4-0.5c-0.1-0.2-0.2-0.4-0.2-0.6c0-0.4,0.1-0.9,0.4-1.5l0.2-0.5l0.5-1.2h4l0.9,2.1l0.2,0.4
				c0.2,0.4,0.3,0.7,0.3,1c0,0.4-0.2,0.7-0.6,0.9c-0.2,0.1-0.6,0.2-1.1,0.3v0.2h6v-0.2c-0.4,0-0.7-0.1-0.8-0.1
				C140.3,437,140.1,436.9,139.9,436.8z M131.8,432.2l1.8-4.5l1.9,4.5H131.8z"/>
		</g>
		<g class="st1">
			<path d="M178.5,426.1c-0.4-0.3-0.8-0.5-1.3-0.6c-0.5-0.1-1.2-0.1-2.1-0.1h-5.5v0.2h0.1c0.4,0,0.7,0.1,1,0.2
				c0.2,0.1,0.4,0.3,0.6,0.5c0.1,0.2,0.2,0.4,0.2,0.7c0,0.3,0.1,0.7,0.1,1.2v6.5c0,0.6,0,1-0.1,1.3c-0.1,0.3-0.2,0.5-0.4,0.7
				c-0.2,0.2-0.4,0.3-0.6,0.4c-0.2,0.1-0.5,0.1-0.9,0.1v0.2h5.8v-0.2c-0.4,0-0.6-0.1-0.9-0.1c-0.2-0.1-0.4-0.2-0.6-0.4
				c-0.2-0.2-0.3-0.4-0.4-0.7c-0.1-0.3-0.1-0.7-0.1-1.3v-3.2h1.8c0.8,0,1.3,0,1.5,0c0.7-0.1,1.2-0.2,1.7-0.5
				c0.9-0.5,1.3-1.3,1.3-2.4C179.8,427.6,179.4,426.7,178.5,426.1z M176.7,430.6c-0.3,0.2-0.5,0.4-0.9,0.5c-0.3,0.1-0.8,0.1-1.4,0.1
				h-0.9v-5.5h0.8c0.5,0,0.8,0,1,0c0.5,0.1,1,0.2,1.3,0.5c0.3,0.3,0.6,0.6,0.7,1c0.2,0.4,0.3,0.8,0.3,1.3
				C177.6,429.4,177.3,430.1,176.7,430.6z"/>
		</g>
		<g class="st1">
			<path d="M217.4,426.1c-0.4-0.3-0.8-0.5-1.3-0.6c-0.5-0.1-1.2-0.1-2.1-0.1h-5.5v0.2h0.1c0.4,0,0.7,0.1,1,0.2
				c0.2,0.1,0.4,0.3,0.6,0.5c0.1,0.2,0.2,0.4,0.2,0.7c0,0.3,0.1,0.7,0.1,1.2v6.5c0,0.6,0,1-0.1,1.3c-0.1,0.3-0.2,0.5-0.4,0.7
				c-0.2,0.2-0.4,0.3-0.6,0.4c-0.2,0.1-0.5,0.1-0.9,0.1v0.2h5.8v-0.2c-0.4,0-0.6-0.1-0.9-0.1c-0.2-0.1-0.4-0.2-0.6-0.4
				c-0.2-0.2-0.3-0.4-0.4-0.7c-0.1-0.3-0.1-0.7-0.1-1.3v-3.2h1.8c0.8,0,1.3,0,1.5,0c0.7-0.1,1.2-0.2,1.7-0.5
				c0.9-0.5,1.3-1.3,1.3-2.4C218.7,427.6,218.3,426.7,217.4,426.1z M215.6,430.6c-0.3,0.2-0.5,0.4-0.9,0.5c-0.3,0.1-0.8,0.1-1.4,0.1
				h-0.9v-5.5h0.8c0.5,0,0.8,0,1,0c0.5,0.1,1,0.2,1.3,0.5c0.3,0.3,0.6,0.6,0.7,1c0.2,0.4,0.3,0.8,0.3,1.3
				C216.5,429.4,216.2,430.1,215.6,430.6z"/>
		</g>
		<g class="st1">
			<path d="M258.7,436.8c-0.2-0.2-0.4-0.4-0.6-0.7c-0.2-0.3-0.4-0.8-0.7-1.5l-4-9.2H253l-3.3,8.3c-0.3,0.8-0.5,1.3-0.7,1.7
				c-0.2,0.4-0.4,0.7-0.6,0.9c-0.2,0.3-0.5,0.5-0.7,0.6c-0.2,0.1-0.5,0.2-0.9,0.2v0.2h4.1v-0.2c-0.4,0-0.7-0.1-0.9-0.3
				c-0.2-0.1-0.3-0.3-0.4-0.5c-0.1-0.2-0.2-0.4-0.2-0.6c0-0.4,0.1-0.9,0.4-1.5l0.2-0.5l0.5-1.2h4l0.9,2.1l0.2,0.4
				c0.2,0.4,0.3,0.7,0.3,1c0,0.4-0.2,0.7-0.6,0.9c-0.2,0.1-0.6,0.2-1.1,0.3v0.2h6v-0.2c-0.4,0-0.7-0.1-0.9-0.1
				C259.1,437,258.9,436.9,258.7,436.8z M250.6,432.2l1.8-4.5l1.9,4.5H250.6z"/>
		</g>
		<g class="st1">
			<path d="M299.2,436.6c-0.2-0.2-0.4-0.6-0.7-1.1c-0.3-0.5-0.7-1.3-1.2-2.3c-0.2-0.5-0.4-0.8-0.5-1c-0.1-0.2-0.2-0.3-0.4-0.5
				c-0.2-0.2-0.4-0.3-0.8-0.5c0.4-0.1,0.8-0.2,1.1-0.3c0.3-0.1,0.5-0.2,0.7-0.4c0.7-0.5,1.1-1.3,1.1-2.2c0-0.6-0.2-1.2-0.5-1.6
				c-0.3-0.5-0.8-0.8-1.4-1c-0.5-0.2-1.3-0.3-2.2-0.4c-0.2,0-0.7,0-1.5,0h-4.4v0.2c0.3,0,0.6,0.1,0.8,0.1c0.2,0.1,0.4,0.2,0.6,0.4
				c0.2,0.2,0.3,0.4,0.4,0.7c0.1,0.3,0.1,0.7,0.1,1.3v6.5c0,0.6,0,1-0.1,1.3c-0.1,0.3-0.2,0.5-0.4,0.7c-0.2,0.2-0.4,0.3-0.6,0.4
				c-0.2,0.1-0.5,0.1-0.9,0.1v0.2h5.8v-0.2c-0.4,0-0.6-0.1-0.9-0.1c-0.2-0.1-0.4-0.2-0.6-0.4c-0.2-0.2-0.3-0.4-0.4-0.7
				c-0.1-0.3-0.1-0.7-0.1-1.3v-3.1h0.4c0.3,0,0.5,0,0.7,0.1c0.2,0,0.4,0.1,0.5,0.3c0.3,0.2,0.7,0.7,1.1,1.3c0.4,0.6,0.8,1.4,1.2,2.2
				l0.6,1.4c0,0.1,0.1,0.3,0.3,0.6h3v-0.2c-0.2,0-0.4-0.1-0.6-0.1C299.5,436.9,299.3,436.8,299.2,436.6z M294.3,431.2
				c-0.3,0.1-0.9,0.1-1.6,0.1h-0.3v-5.7h0.4c0.7,0,1.2,0,1.5,0.1c0.4,0.1,0.7,0.2,0.9,0.4c0.3,0.3,0.6,0.6,0.8,1
				c0.2,0.4,0.3,0.8,0.3,1.3c0,0.9-0.3,1.6-1,2.2C294.9,430.9,294.6,431.1,294.3,431.2z"/>
		</g>
		<g class="st1">
			<path d="M339,435.1c-0.1,0.3-0.3,0.6-0.5,0.9c-0.3,0.4-0.7,0.7-1.2,0.8s-1.1,0.3-1.8,0.3c-0.7,0-1.3-0.1-1.7-0.3
				c-0.4-0.2-0.7-0.5-0.9-0.9c-0.1-0.2-0.2-0.6-0.2-0.9c0-0.4-0.1-0.9-0.1-1.8v-2h0.5c0.5,0,0.8,0,1.1,0.1c0.3,0.1,0.5,0.2,0.7,0.4
				c0.2,0.2,0.3,0.4,0.4,0.7c0.1,0.3,0.2,0.6,0.2,1.1h0.2l0-4.7l-0.2,0c-0.1,0.5-0.1,0.8-0.2,1c-0.1,0.2-0.2,0.4-0.4,0.6
				c-0.2,0.2-0.4,0.3-0.7,0.4c-0.3,0.1-0.7,0.1-1.3,0.1h-0.5v-5.3h2.1c0.6,0,1.2,0,1.6,0.1c0.4,0.1,0.7,0.2,1,0.4
				c0.3,0.2,0.6,0.5,0.8,0.9c0.2,0.3,0.3,0.7,0.4,1.2l0.2,0l-0.2-2.9h-9.8v0.2c0.4,0,0.6,0.1,0.9,0.1c0.2,0.1,0.4,0.2,0.6,0.4
				c0.2,0.2,0.3,0.4,0.4,0.7c0.1,0.3,0.1,0.7,0.1,1.3v6.5c0,0.6,0,1-0.1,1.3c-0.1,0.3-0.2,0.5-0.4,0.7c-0.2,0.2-0.4,0.3-0.6,0.4
				c-0.2,0.1-0.5,0.1-0.8,0.1v0.2h10.9l0.1-3.5l-0.2,0C339.3,434.4,339.2,434.8,339,435.1z"/>
		</g>
		<g class="st1">
			<path d="M378.7,435.1c-0.1,0.3-0.3,0.6-0.5,0.9c-0.3,0.4-0.7,0.7-1.2,0.9c-0.5,0.2-1.1,0.3-1.8,0.3c-0.7,0-1.3-0.1-1.7-0.3
				c-0.4-0.2-0.7-0.5-1-0.9c-0.1-0.2-0.2-0.5-0.2-0.9c0-0.4-0.1-1-0.1-1.7v-5.1c0-0.6,0-1.1,0.1-1.4c0.1-0.3,0.2-0.5,0.4-0.7
				c0.2-0.2,0.4-0.3,0.6-0.3c0.2-0.1,0.5-0.1,0.8-0.1v-0.2h-5.8v0.2c0.3,0,0.6,0.1,0.8,0.1c0.2,0.1,0.4,0.2,0.6,0.3
				c0.2,0.2,0.3,0.4,0.4,0.7c0.1,0.3,0.1,0.8,0.1,1.4v6.5c0,0.6,0,1-0.1,1.3c-0.1,0.3-0.2,0.5-0.4,0.7c-0.3,0.3-0.8,0.5-1.4,0.5v0.2
				h10.9l0.1-3.6l-0.2,0C379,434.3,378.9,434.7,378.7,435.1z"/>
		</g>
		<g class="st1">
			<path d="M450.1,376c-1.1-1.8-4.1-2.6-9-2.6c-4,0-9.4,0.6-16.1,1.8c-6.5,1.2-12.7,2.6-18.8,4.1c-7.7,2.1-13.1,3.1-16,3.1h-0.5
				c-0.6,0-1.1,0-1.6-0.1c-0.7-0.2-1-0.6-1-1.1V381c0-0.1,0.1-0.4,0.3-0.8c0.3-0.7,0.9-1.6,1.9-2.7c0.6-0.6,1.1-1,1.4-1.2
				c0.5-0.4,0.8-0.6,0.9-0.6h0.1c0.6,0.3,1.3,0.5,2.2,0.5c0.4,0,1.1-0.1,2.2-0.2c1.3-0.2,2.3-0.5,3.1-0.8c3.3-1.2,4.9-2.4,4.9-3.7
				v-0.1c0-0.5-0.3-1.1-1-1.8c-0.5-0.4-0.9-0.7-1.4-0.9c-0.3-0.1-0.6-0.2-1.1-0.2c-1.7,0-3.9,0.5-6.3,1.6c-1.4,0.6-2.7,1.3-3.9,2.2
				c-0.5,0.3-1.5,1.1-3,2.5c-0.5,0.1-1.1,0.3-1.9,0.6c-1.8,0.7-3.8,1.6-6.1,2.7c-2.3,1.1-4.3,2.2-6.1,3.2c-1.8,1-3.1,1.7-3.7,2
				c-0.2,0.1-0.5,0.2-0.8,0.3c-0.3,0.1-0.6,0.1-0.8,0s-0.4-0.1-0.4-0.2c0-0.2-0.1-0.3-0.1-0.5c0-0.2,0-0.3,0.1-0.4
				c0.4-0.9,0.8-1.8,1.2-2.6c0.2-0.5,0.5-1.1,0.8-1.6c0.1-0.1,0.1-0.2,0.2-0.4c0.4-0.8,0.8-1.6,1.1-2.5c0.3-1-0.1-2-1.3-2.9
				c-0.7-0.5-1.3-0.6-1.7-0.2c-0.8,0.7-1.5,1.5-2.2,2.2c-2.7,2.8-5.9,5.1-9.5,6.9c-1.3,0.7-2.8,1.2-4.4,1.4c-0.3,0-0.6-0.1-0.9-0.3
				c-0.3-0.2-0.5-0.5-0.5-0.8c0.1-1,0.4-1.9,0.9-2.7c0.5-0.8,1.1-1.5,1.8-2.1c0.4-0.4,0.8-0.9,1.2-1.3c0.4-0.4,0.6-0.9,0.8-1.4
				c0.1-0.3,0-0.6-0.3-1c-0.3-0.3-0.6-0.7-1-1c-0.2-0.1-0.5,0-1,0.2c-0.5,0.2-0.9,0.4-1.4,0.7c-0.5,0.2-0.7,0.4-0.8,0.5
				c-0.2,0.2-0.4,0.4-0.6,0.6c-0.1,0.1-0.2,0.2-0.3,0.3c0,0,0,0-0.1,0c-0.1,0.1-0.2,0.1-0.4,0.2c-13.6,7.4-27.8,13.5-42.5,18.3
				c-3.6,1.2-7.1,2.3-10.7,3.4c-3.6,1.1-7.2,2-10.9,2.8c-1.5,0.3-3,0.6-4.5,0.8c-1.5,0.2-3,0.3-4.5,0.3c-0.3,0-0.7,0-1,0
				c-0.8,0-1.6,0-2.3,0c-0.7,0-1.5-0.2-2.2-0.4c-0.2-0.9-0.8-1.7-1.8-2.3c0.2-1.2,0.5-2.4,1.1-3.5c0.7-1.3,1.4-2.5,2.3-3.6
				c0.9-1.1,1.8-2.2,2.8-3.2c3.7-3.9,7.8-7.4,12.2-10.6c4.2-3.1,8.6-5.9,13.2-8.5c4.6-2.6,9.2-5,14-7.1c1.3-0.6,2.7-1,4.2-1.2
				c0.5-0.1,1-0.1,1.5-0.2c1.8-0.2,3.6-0.5,5.3-0.9c0.3-0.1,0.6-0.1,0.9-0.2c1.3-0.3,2.5-0.7,3.6-1.3c0.3-0.2,0.5-0.5,0.6-0.8
				c0.1-0.3,0.1-0.7,0-1.1c-0.3-0.6-0.7-1.1-1.3-1.5c-0.6-0.4-1.2-0.5-1.8-0.4c-1.4,0.2-2.9,0.5-4.3,0.9c-1.2,0.3-2.4,0.7-3.6,1.2
				c-0.9,0.3-1.7,0.6-2.6,0.8c-0.1,0-0.2,0.1-0.4,0.1c-0.8,0.3-1.6,0.5-2.5,0.6c-1.4,0.1-2.8,0-4.2-0.1c-1.4-0.1-2.8-0.4-4.1-0.9
				c-0.5-0.1-0.9-0.3-1.3-0.6c-1.9-1-2.6-2.4-2.1-4.3c0.3-1.2,0.8-2.2,1.4-3.3c1.3-1.9,2.8-3.5,4.6-4.9c5.2-4.2,11.2-7,17.8-8.4
				c1.4-0.3,2.7-0.5,4.1-0.7c1.4-0.2,2.8-0.2,4.2-0.2c1.1,0.1,2.2,0.2,3.2,0.4c1.1,0.2,2,0.7,3,1.3c0.2,0.1,0.4,0.2,0.7,0.3
				c0.1,0,0.2,0,0.3-0.1s0.2-0.1,0.3-0.2c0-0.1,0-0.2,0-0.2c0,0,0-0.1,0-0.1c-0.1-0.1-0.2-0.2-0.3-0.4c-0.2-0.4-0.4-0.7-0.7-1
				c-0.9-0.9-1.9-1.5-3-1.9c-1.1-0.4-2.3-0.7-3.5-0.8c-2.1-0.2-4.1-0.2-6.2,0c-7.4,0.8-14.1,3.3-20.1,7.6c-1.8,1.2-3.4,2.6-4.9,4.2
				c-1.1,1.2-2.1,2.6-2.8,4.1c-0.9,2.2-0.9,4.3,0,6.5c0.9,2.3,2.5,4,4.8,5c0.4,0.2,0.8,0.3,1.1,0.5c0.5,0.2,1,0.4,1.5,0.7
				c0,0,0.1,0.1,0.1,0.1c0,0,0.1,0.1,0.1,0.1c0,0,0,0.1,0,0.1c0,0.1-0.1,0.2-0.1,0.3c0,0.1-0.1,0.2-0.2,0.2c-0.9,0.5-1.9,1-2.8,1.4
				c-0.9,0.5-1.8,0.9-2.7,1.4c-4,2.1-7.8,4.3-11.6,6.7c-3.7,2.4-7.3,5-10.8,7.8c-1.7,1.4-3.4,2.9-5,4.4c-1.6,1.5-3.1,3.1-4.5,4.8
				c-1.7,1.9-3,4-3.9,6.3c-0.4,1.1-0.5,2.2-0.4,3.5c-0.8-0.2-1.6-0.4-2.6-0.5c-2-0.2-4.1-0.1-6.6,0.2c-2.7,0.4-5.5,0.9-8.4,1.6
				c-2.9,0.7-5.9,1.4-8.7,2.1c-3.4,0.9-6.6,1.7-9.5,2.3s-5.4,0.9-7.3,0.9c-0.1,0-0.1,0-0.2,0c-0.2,0-0.5-0.1-0.7-0.1
				c-1.1-0.2-1.5-0.8-1.4-1.8c0.2-1,0.7-2.2,1.5-3.6c0.9-1.3,1.8-2.6,2.9-3.7c1.1-1.1,2-1.9,2.8-2.2c1.3-0.5,2.6-1,3.8-1.6
				c0.9-0.3,1.7-0.7,2.6-1.1c0.4-0.1,0.8-0.4,1.2-0.7c0.1-0.1,0.1-0.2,0.1-0.3c0-0.1,0-0.2,0-0.3c-0.5-1.1-1.3-1.5-2.4-1.2
				c-3,0.9-6,1.9-8.9,3.1c-0.7,0.3-1.3,0.5-2,0.7c-0.1,0-0.2,0.1-0.3,0.1c0,0-0.1,0-0.2,0c-0.1,0-0.1-0.1-0.2-0.1
				c-0.3-0.3-0.2-0.7,0.2-1.1c0.4-0.4,1.1-0.9,1.9-1.4c0.8-0.5,1.7-0.9,2.6-1.3c0.9-0.4,1.6-0.7,2.2-1c0.4-0.2,0.6-0.3,0.7-0.3
				c3.5-1.8,6.8-3.9,9.9-6.1c2.4-1.6,4.6-3.4,6.6-5.3c1.7-1.5,3.1-3.3,4.3-5.2c0.4-0.5,0.6-1.2,0.9-1.8c0.4-1.6-0.1-3-1.6-4.1
				c-0.8-0.6-1.8-0.8-2.8-0.5c-1.1,0.3-2.2,0.8-3.1,1.5c-0.4,0.3-0.8,0.6-1.2,0.9c-1.6,1.1-3.1,2.2-4.5,3.4
				c-1.9,1.6-3.7,3.3-5.5,5.1c-4.9,4.9-9.5,9.9-13.9,15.2c-1.5,1.8-3,3.6-4.5,5.5c-1,0.5-2.1,1-3.2,1.6c-2.6,1.3-5.4,2.6-8.4,3.9
				c-3,1.3-6,2.2-9,2.9c-3,0.6-5.8,0.7-8.5,0c-1-0.2-1.4-0.8-1-1.8c0.5-1.3,1.1-2.4,2.1-3.3c1.8-1.9,3.8-3.6,6-5
				c2.2-1.4,4.6-2.5,7.3-3.1c1.7-0.4,3.3-0.5,5.1-0.3c0.2,0,0.4,0.1,0.6,0.1c0.2,0.1,0.3,0.1,0.5,0.1c0.1,0,0.2,0,0.3-0.2
				c0.1-0.1,0.2-0.2,0.2-0.3s0.1-0.2,0-0.3c0-0.1-0.1-0.1-0.1-0.2c-0.1-0.3-0.3-0.5-0.5-0.7c-0.8-0.8-1.7-1.3-2.8-1.4
				c-1.7-0.2-3.4-0.1-5.1,0.3c-2.8,0.7-5.4,1.8-7.7,3.2c-2.3,1.4-4.4,3.2-6.3,5.2c-0.4,0.5-0.8,0.9-1.1,1.5
				c-0.3,0.3-0.7,0.5-1.1,0.8c-1.5,1.1-3.5,2.3-6,3.4c-2.5,1.2-5.5,2.2-9,3.1c-0.2,0-0.3,0-0.5-0.1c-0.1-0.1-0.2-0.2-0.2-0.4
				c0.1-0.5,0.3-1.1,0.6-1.5c0.3-0.5,0.6-0.9,0.9-1.4c0-0.1,0-0.1,0-0.1c1.9-2.9,4.2-5.5,6.7-7.9c0.1-0.1,0.2-0.3,0.4-0.4
				c0.3-0.3,0.7-0.6,1-1c0.3-0.3,0.3-0.7,0.1-1.2c-0.2-0.6-0.6-1.1-1.1-1.4c-0.2-0.1-0.4-0.2-0.6-0.2c-0.2,0-0.4,0.1-0.6,0.2
				c-0.4,0.3-0.8,0.7-1.2,1c-2.3,2-4.7,3.8-7.3,5.4c-2.6,1.5-5.3,2.9-8.1,4.1c-1.3,0.5-2.6,1-3.9,1.3c-0.1,0-0.3,0.1-0.6,0.1
				c-0.3,0-0.6,0-0.9,0c-0.3,0-0.6-0.1-0.7-0.2c-0.2-0.1-0.2-0.3-0.1-0.5c0.9-1.5,2-2.8,3.4-3.9c1.4-1.1,2.9-2,4.6-2.7
				c1.7-0.7,3.4-1.3,5.1-1.8c1.1-0.3,2-0.4,2.7-0.5c0.7,0,1.3,0,1.8,0.1c0.5,0.1,1,0.1,1.6,0.1c0.1-0.1,0.2-0.2,0.3-0.5
				s0.1-0.6,0-0.9c-0.1-0.3-0.4-0.7-0.9-1c-0.8-0.6-1.7-0.9-2.7-1.1c-1-0.2-2-0.1-3,0.1c-2.7,0.5-5.1,1.3-7.4,2.6
				c-2.2,1.2-4.2,2.9-6.1,4.8c-0.2,0.3-0.5,0.5-0.7,0.8c-2.8,2.1-5.6,4-8.3,5.8c-3,1.9-6.3,3.7-9.9,5.4c-1.4,0.7-2.9,1.2-4.3,1.7
				c-0.5,0.1-1,0.2-1.6,0.1c-0.1,0-0.2,0-0.2,0c-0.1,0-0.2-0.1-0.3-0.2c-0.1-0.1-0.2-0.2-0.2-0.3c-0.1-0.5,0-0.9,0.1-1.3
				c0.6-2,1.4-4,2.5-5.8c1.8-3,3.9-5.9,6.1-8.7c0.6-0.8,1.3-1.4,2.1-1.9c4.1-2.7,8.2-5.4,12.3-8.2c6-4.1,11.5-8.6,16.6-13.6
				c1.6-1.5,3-3.1,4.2-4.8c0.9-1.4,0.8-2.6-0.4-3.8c-0.6-0.7-1.4-0.9-2.3-0.6c-1.4,0.4-2.7,1-4,1.7c-3.4,2-6.7,4.3-9.7,6.8
				c-3.4,2.8-6.6,5.8-9.7,9c-3.1,3.1-6,6.4-8.8,9.8c-0.2,0.2-0.4,0.5-0.5,0.7c-0.6,0.8-1.3,1.5-2.1,2.1c-0.2,0.1-0.3,0.2-0.4,0.4
				c-0.1,0.1-0.2,0.3-0.2,0.5c-0.2,0.8-0.6,1.6-1.2,2.2c-0.2,0.3-0.4,0.5-0.5,0.8c-0.1,0.1-0.2,0.2-0.2,0.3c-0.7,0-1.4,0.1-2.2,0.2
				c-0.9,0.1-1.7,0.3-2.4,0.4c-0.2,0-0.4,0.1-0.6,0.1c-0.2,0-0.4,0.1-0.6,0.1c-2,0.3-3.9,0.6-5.8,1c-0.5,0.1-0.9,0.1-1.2-0.1
				c-0.3-0.1-0.6-0.4-0.8-0.8c-0.5-1.1-1.3-1.9-2.2-2.6c-0.9-0.6-2-1.1-3.1-1.4c-1.5-0.4-3.1-0.7-4.7-0.8c-2.3-0.1-4.6-0.2-6.9-0.2
				s-4.6,0.2-6.9,0.5c-0.5,0.1-1.1,0.1-1.6,0.1c-0.2,0-0.4,0-0.5,0c0,0-0.1,0-0.1,0c0,0-0.1,0-0.1-0.1c0,0-0.1-0.1-0.1-0.1
				c0,0,0.1-0.1,0.1-0.1c0-0.1,0-0.1,0-0.1c0,0,0.1,0,0.1,0c0.6-0.3,1.3-0.6,1.9-0.9c2-0.8,4-1.6,6-2.4c2.6-1,5.2-2.1,7.8-3.2
				c7.6-3.1,15.1-6.4,22.5-9.9c2.1-1,4.2-2,6.3-3.1c2.1-1.1,4.1-2.3,6.1-3.5c2.2-1.3,4.2-2.8,6-4.5c1.4-1.2,2.4-2.6,3.1-4.3
				c0.5-1.2,0.5-2.5,0.1-3.8c-0.5-1.6-1.4-3-2.5-4.2c-1.3-1.2-2.8-2.3-4.4-3.1c-1.3-0.7-2.6-1.2-4-1.7c-1.4-0.4-2.8-0.8-4.2-1.2
				c-4.3-0.9-8.8-1.3-13.6-1.2c-4.7,0.1-9.3,0.6-13.6,1.4C93,345.9,80.9,350,69.5,356c-1.6,0.9-3.1,1.8-4.7,2.8
				c-0.4,0.2-0.8,0.5-1.2,0.7c-0.5,0.3-1,0.7-1.4,1.2c-0.1,0.1-0.2,0.3-0.2,0.4c0,0.2,0,0.3,0,0.5c0,0,0.1,0.2,0.2,0.4
				c0.1,0.3,0.3,0.6,0.5,1c0.2,0.4,0.5,0.7,0.8,1c0.3,0.3,0.6,0.5,0.9,0.7c0.3,0.1,0.6,0.1,0.8,0c4.3-3.6,9.4-6.9,15.2-9.7
				c5.8-2.9,12-5.1,18.6-6.9c6.5-1.7,13.1-2.7,19.6-3c6.5-0.3,12.6,0.3,18.3,1.8c1.8,0.4,3.5,1.1,5,2c0.1,0.1,0.2,0.1,0.2,0.1
				c0.9,0.5,1.8,1.1,2.6,1.8c0.8,0.7,1.1,1.6,1.1,2.6c-0.1,1.1-0.4,2.1-1,3c-1,1.4-2.3,2.7-3.7,3.8c-2.7,2.1-5.7,4-8.8,5.6
				c-5.7,3-11.4,5.8-17.3,8.3c-5.3,2.3-10.7,4.6-16.1,6.8c-5.4,2.2-10.9,4.4-16.3,6.5c-3.4,1.3-6.8,2.6-10.2,4
				c-0.2,0.1-0.3,0.1-0.5,0.1c-0.2,0-0.3,0-0.5-0.1c-0.2-0.2-0.2-0.5,0-0.9c0.2-0.3,0.4-0.7,0.6-1c0.7-1.2,1.5-2.3,2.2-3.5
				c2.1-2.8,4.7-5.9,7.9-9.5c3.1-3.6,6.1-6.8,8.8-9.5c0.7-0.6,1.2-1.1,1.7-1.5c0.8-0.6,1.1-1,1-1.3c-0.1-0.3-0.9-0.6-2.4-0.9
				c-0.6-0.1-1.2-0.2-1.7-0.3c-0.5,0-0.9,0.1-1.2,0.3c-3.6,4.1-7.3,8.4-11.2,13c-3.8,4.6-7.6,9.3-11.2,14.2
				c-3.6,4.9-6.8,9.7-9.7,14.6c-0.4,0.9-0.3,1.7,0.2,2.4c0.1,0.1,0.3,0.2,0.5,0.3c0.2,0.1,0.5,0.1,0.7,0.1c0.2,0,0.4,0,0.5-0.1
				c0.5-0.9,1.5-2.3,3-4.4c1.5-2.1,3.1-4,4.6-5.9c1.6-1.9,2.7-3,3.4-3.3c0.1,0,0.2,0,0.3,0.1c0.2,0.1,0.4,0.3,0.5,0.5
				c0.3,0.4,0.7,0.7,1.2,0.8c0.4,0.1,0.9,0.1,1.4,0c0.2,0,0.5-0.1,0.7-0.1c3.4-0.8,6.9-1.5,10.3-2.1c3.5-0.6,6.9-1.1,10.5-1.5
				c3.9-0.4,7.8-0.5,11.6-0.3c1.8,0.1,3.6,0.5,5.3,1.2c0.6,0.2,1,0.7,1.1,1.3c0,0.3-0.1,0.6-0.4,0.9c-0.3,0.3-0.6,0.4-1,0.6
				c-1.2,0.3-2.4,0.5-3.6,0.8c-2.2,0.5-4.5,1-6.7,1.5c-10,2.3-19.9,5.4-29.5,9.1c-3.7,1.4-7.3,3.1-10.8,5c-1.4,0.8-2.8,1.8-4.2,2.8
				c-0.7,0.6-1.4,1.2-2,2c-0.5,0.6-0.6,1.3-0.4,2c0.5,2.1,1.9,3.2,4,3.6c1.3,0.2,2.7,0.2,4,0.2c1.4,0,2.7-0.2,4-0.4
				c1.3-0.2,2.6-0.5,3.9-0.8c4.2-1,8.2-2.2,12.2-3.6c4-1.4,7.9-3,11.7-4.8c3.9-1.7,7.6-3.7,11.1-6c1.8-1.2,3.5-2.4,5.1-3.7
				c1.6-1.3,3-2.9,4.2-4.6c0.4-0.5,0.8-0.8,1.4-0.9c2.3-0.5,4.6-1.2,6.9-2c1.1-0.3,2.3-0.7,3.3-1c0.4-0.1,0.7-0.2,1.1-0.3
				c-0.5,0.8-1.1,1.6-1.6,2.5c-1.1,1.8-2,3.7-2.8,5.7c-0.4,1.1-0.6,2.2-0.6,3.4c0,0.9,0.3,1.8,0.8,2.6c0.8,1.4,1.9,2,3.4,2
				c1.1,0,2.2-0.1,3-0.5c0.4-0.2,0.8-0.3,1.2-0.5c0.6-0.2,1.2-0.4,1.8-0.7c5.7-2.7,10.9-6.1,15.6-10.2c0.1,0,0.1-0.1,0.1-0.1
				c0.1-0.1,0.2-0.1,0.2-0.2c0,0,0,0,0,0c0.2,0.9,0.7,1.7,1.4,2.3s1.5,1,2.5,1c1.3,0.1,2.6-0.1,3.8-0.5c2-0.6,3.8-1.4,5.7-2.3
				c0.6-0.3,1.3-0.5,1.9-0.8c0.1,0,0.1,0,0.2,0c0,0,0.1,0,0.1,0c0,0,0.1,0.1,0.2,0.1c0,0,0.1,0.1,0.1,0.1c0,0,0,0.1,0,0.1
				c-0.1,0.3-0.2,0.6-0.3,0.9c-0.2,0.5-0.3,0.9-0.5,1.4c-0.2,0.8-0.1,1.7,0.2,2.6c0.4,0.9,0.9,1.5,1.7,2c0.5,0.4,1.2,0.6,1.9,0.6
				c0.5,0,1,0,1.5-0.2c0.5-0.1,1-0.3,1.5-0.4c0,0,0.1,0,0.1,0c0.5-0.2,1.5-0.6,2.8-1.3c1.4-0.7,2.9-1.5,4.6-2.5
				c1.4-0.8,2.7-1.6,4-2.4c0,0.2,0,0.4,0.1,0.5c0.5,2.2,1.8,3.7,4,4.6c0.6,0.2,1.2,0.4,1.9,0.4c0.7,0.1,1.4,0.1,2.1,0.1
				c0.2,0,0.4,0,0.6,0c4.3-0.5,8.8-1.7,13.3-3.6c2.6-1.1,5-2.2,7.2-3.5c-1.6,2-3.2,4-4.7,6.1c-0.1,0.1-0.2,0.3-0.3,0.4
				c0,0.1-0.1,0.1-0.1,0.1c-0.3,0.6-0.2,1.2,0.4,2c0.2,0.2,0.4,0.3,0.7,0.4c0.3,0,0.5,0,0.6-0.2c0.4-0.4,0.7-0.9,1.1-1.3
				c0.9-1.1,1.8-2.2,2.7-3.4c1.7-2.3,3.8-4.1,6.5-5.3c1.1-0.5,1.7-0.7,1.8-0.5c0.1,0.2,0.1,0.7-0.2,1.7c0,0.1-0.1,0.2-0.1,0.3
				c-0.4,1.5-0.1,3,0.8,4.4c1.1,1.9,2.8,2.9,4.9,3c1.7,0.1,3.7-0.1,6.1-0.5c2.4-0.4,5-1,8-1.7c3-0.7,6.2-1.4,9.7-2
				c3.5-0.7,7.1-1.2,10.8-1.5c2.8-0.3,5.6-0.4,8.5-0.3c0.2,0.3,0.4,0.6,0.7,0.9c1,1.2,2.4,1.9,4.2,2.3c2.5,0.6,5.1,0.7,7.6,0.4
				c3.1-0.4,6.2-1,9.3-1.7c7.8-1.9,15.4-4.2,22.9-6.9c7-2.5,13.8-5.4,20.4-8.5c5.1-2.4,10.1-5,15-7.7c0,1.6,0.7,3.1,1.9,4.6
				c1.3,1.5,2.8,2.1,4.5,2c1.4-0.1,2.7-0.5,3.9-1.1c0.7-0.4,1.4-0.8,2-1.1c0.8-0.4,1.7-0.9,2.6-1.3c0.1,0,0.2,0,0.3,0
				s0.2,0.1,0.3,0.1c0.1,0,0.1,0.1,0.1,0.2c0,0.1,0.1,0.1,0.1,0.2c0,0.1,0,0.1,0,0.2c-0.5,0.9-0.9,1.8-1.4,2.7
				c-0.4,0.9-0.8,1.7-1.3,2.6c-0.5,0.9-1.2,1.7-2,2.3c-2.1,1.6-4.2,3.2-6.2,4.8c-3.1,2.4-5.8,5.1-8.2,8.1c-1.1,1.5-2.2,3-3.2,4.6
				c-0.1,0.1-0.1,0.2-0.2,0.3c-0.6,1-1,2-1.2,3.3c-0.1,1.2,0.3,2.3,1.2,3.3c0.6,0.6,1.2,1.1,1.9,1.3c0.7,0.2,1.3,0.2,1.9-0.1
				c0.8-0.4,1.5-0.9,2.1-1.4c1.1-0.9,2.1-1.8,2.9-2.8c1.9-2.2,3.7-4.5,5.4-6.9c1.1-1.6,2.3-3.2,3.3-4.9c1.1-1.7,2.1-3.4,3-5.1
				c1-2,2.4-3.6,4.3-4.8c4-2.6,8.1-5.1,12.3-7.5c2.3-1.2,4.5-2.5,6.7-3.7c-0.1,0.3-0.1,0.6-0.1,0.9v0.4c0,1,0.3,2.1,0.9,3
				c0.4,0.5,0.8,1,1.3,1.2c0.9,0.8,2.3,1.2,4.2,1.2h0.1c1.1,0,2.4-0.1,4.1-0.4c3.6-0.6,9.3-1.8,16.8-3.3c12-2.5,21.4-3.8,28.2-3.8
				c3.9,0,7.2,0.4,10,1.2c0.1-0.1,0.2-0.4,0.2-1v-0.3C450.5,377,450.4,376.5,450.1,376z M396,372.7c2.6-1,4.3-1.6,5.1-1.6
				c0.1,0,0.2,0,0.3,0.1c0,0.1-0.2,0.4-0.5,0.7c-0.4,0.3-1.1,0.7-2.3,1.2c-2.1,0.7-3.6,1-4.4,1c-0.2,0-0.3-0.1-0.3-0.1
				C394,373.7,394.7,373.3,396,372.7z M229.5,380.4c1.3-1.3,2.8-2.7,4.6-4.3c1.8-1.6,3.4-3,4.8-4.2c1.4-1.2,2.3-1.9,2.5-2.1
				c0.9-0.8,1.8-1.5,2.8-2.2c0.9-0.7,2-1.3,3.1-1.8c0.1-0.1,0.2-0.1,0.3-0.1c0.1,0,0.2,0.1,0.3,0.2c0,0,0,0.1,0,0.1c0,0,0,0.1,0,0.1
				c0,0,0,0.1,0,0.1c0,0.1,0,0.1,0,0.2c-0.1,0.3-0.2,0.5-0.4,0.7c-0.3,0.3-0.5,0.6-0.8,1c-0.8,1-1.6,2-2.5,2.9
				c-3.5,3.5-7.5,6.5-11.9,8.9c-0.1,0-0.3,0.2-0.6,0.4c-0.5,0.3-1,0.6-1.6,1c-0.6,0.4-1.2,0.8-1.7,1c-0.5,0.3-0.8,0.4-0.8,0.3
				C227.6,382.5,228.2,381.7,229.5,380.4z M143.5,379.6c0-0.1,0.1-0.1,0.1-0.2c0.1-0.1,0.1-0.2,0.2-0.3c4.8-5.1,10.1-9.7,15.9-13.8
				c0.6-0.4,1.2-0.7,1.8-1c0.2-0.1,0.4-0.2,0.7-0.3c0,0,0.1,0,0.1,0c0.1,0,0.1,0.1,0.1,0.1c0.1,0,0.1,0.1,0.1,0.1c0,0,0,0.1,0,0.1
				c-0.1,0.2-0.2,0.4-0.4,0.6c-5.5,5.6-11.5,10.6-18.1,14.9c-0.1,0.1-0.2,0.1-0.3,0.1c0,0-0.1,0-0.1,0
				C143.4,380,143.3,380,143.5,379.6z M107.8,400.3c-0.1,0.1-0.3,0.2-0.4,0.4c-0.7,0.7-1.5,1.3-2.3,1.9c-2.6,1.9-5.4,3.6-8.3,5.1
				c-8.3,4.4-17.1,7.8-26.3,10.2c-2.6,0.7-5.2,1.2-7.8,1.7c-0.8,0.1-1.7,0.2-2.5,0.3c-0.3,0-0.7,0-1,0c-0.2,0-0.4,0-0.6,0
				c-0.5,0-0.9-0.1-1.3-0.1c-0.3,0-0.5-0.2-0.5-0.4c0,0,0-0.1,0-0.1c0,0,0-0.1,0-0.1c0,0,0-0.1,0-0.1c0.1-0.1,0.1-0.1,0.2-0.2
				c0.2-0.3,0.5-0.6,0.8-0.9c1.6-1.3,3.3-2.4,5.1-3.3c3.4-1.8,6.9-3.4,10.5-4.8c8.6-3.3,17.4-6,26.3-8.3c2-0.5,4-1,6.1-1.5
				c0.6-0.1,1.1-0.3,1.7-0.4c0,0,0.1,0,0.1,0c0.1,0,0.1,0,0.1,0c0,0,0,0,0,0.1c0,0.1,0,0.2,0,0.3
				C107.9,400.1,107.9,400.2,107.8,400.3z M352.6,401.4c-2.1,3.2-4.5,6.1-7.2,8.9c0,0,0,0,0,0c-0.1,0.1-0.3,0.3-0.4,0.4
				s-0.4,0.1-0.6,0.1c-0.1,0-0.1,0-0.2-0.1c0,0-0.1-0.1-0.2-0.2c0-0.1,0-0.2,0-0.3c0-0.3,0.1-0.6,0.3-0.9c0.2-0.2,0.3-0.4,0.5-0.6
				c1.2-1.6,2.4-3.2,3.7-4.7c0.8-0.9,1.6-1.7,2.5-2.5c0.4-0.3,0.7-0.6,1-1c0.2-0.2,0.4-0.1,0.6,0.1c0,0,0.1,0,0.1,0.1
				c0,0,0.1,0.1,0.1,0.1c0,0,0,0.1,0,0.1C352.7,401.1,352.7,401.3,352.6,401.4z"/>
		</g>
	</g>
	<g>
		<path d="M666.4,320.7l1.7-0.1c1.3-0.1,2.7-0.4,4.4-0.9c1.7-0.5,3.4-1.4,5.1-2.6c1.7-1.2,3.2-2.9,4.4-5.2c1.2-2.2,1.8-5.1,1.8-8.6
			V137.9c0-3.5-0.6-6.3-1.8-8.5c-1.2-2.2-2.7-3.9-4.4-5.1c-1.7-1.2-3.4-2.1-5.1-2.6c-1.7-0.5-3.2-0.8-4.4-0.9l-1.7-0.1v-8.7h113.2
			c12.2,0,22.2,1.5,29.8,4.4c7.7,3,13.7,6.6,18,10.8c4.3,4.3,7.4,8.6,9.2,12.9c1.8,4.3,3,8,3.3,11l0.6,4.4v17.5l-0.6,4.5
			c-0.4,3-1.6,6.7-3.5,11.1c-1.9,4.4-5.2,8.8-9.7,13.1c-4.5,4.3-10.8,7.9-18.8,10.7c12.4,3.8,22.1,8.7,29,14.8
			c6.9,6.1,11.8,12.3,14.8,18.6c3,6.3,4.8,11.7,5.4,16.1l0.9,6.7l-0.6,4.5c-0.3,2.9-1.2,6.7-2.7,11.3c-1.5,4.6-4.1,9.5-7.6,14.7
			c-3.6,5.2-8.6,10.1-14.9,14.7c-6.4,4.6-14.5,8.4-24.5,11.3c-10,3-22.3,4.4-36.8,4.4H666.4V320.7z M727.3,120.6v87h43.5
			c5.2,0,9.5-1.2,12.8-3.6c3.3-2.4,5.9-5.3,7.7-8.7c1.8-3.4,3.2-6.9,3.9-10.3c0.8-3.4,1.3-6.3,1.5-8.7l0.3-3.5v-17.5l-0.3-3.5
			c-0.2-2.4-0.7-5.4-1.5-8.8c-0.8-3.4-2.1-6.9-3.9-10.3c-1.8-3.4-4.4-6.3-7.7-8.7c-3.3-2.4-7.6-3.6-12.8-3.6H727.3z M727.3,216.3
			v104.5h43.5c8.7,0,15.8-1.5,21.3-4.4c5.5-3,9.7-6.6,12.8-10.9c3.1-4.3,5.3-8.6,6.6-12.9c1.4-4.3,2.2-7.9,2.5-10.9l0.3-4.4v-17.5
			l-0.3-4.4c-0.3-3-1.1-6.6-2.5-10.9c-1.4-4.3-3.6-8.6-6.6-12.9c-3.1-4.3-7.3-8-12.8-10.9c-5.5-3-12.6-4.4-21.3-4.4H727.3z"/>
		<path d="M945.1,320.7v8.7h-78.4v-8.7l1.9-0.1c1.2-0.1,2.6-0.4,4.3-0.9c1.7-0.5,3.4-1.4,5.2-2.6c1.7-1.2,3.2-2.9,4.4-5.2
			c1.2-2.2,1.7-5,1.7-8.4V103.1c0-3.5-0.6-6.3-1.7-8.5c-1.2-2.2-2.6-3.9-4.4-5.1c-1.7-1.2-3.5-2.1-5.2-2.6c-1.7-0.5-3.1-0.8-4.3-0.9
			l-1.9-0.1v-8.7l52.2-8.7h8.7v235.1c0,3.4,0.6,6.2,1.8,8.4c1.2,2.2,2.7,4,4.4,5.2c1.7,1.2,3.4,2.1,5.1,2.6c1.7,0.5,3.2,0.9,4.4,0.9
			L945.1,320.7z"/>
		<path d="M953.8,286c0-8.2,1.5-15.1,4.4-20.4c2.9-5.4,6.7-9.7,11.4-13.1c4.7-3.3,9.9-6.1,15.7-8.1c5.8-2.1,11.6-4,17.5-5.6
			c6.7-1.8,12.9-3.9,18.7-6.2c5.8-2.3,10.4-5.3,14-9.2c3.6-3.8,5.4-9.1,5.4-15.8v-8.7l-0.3-3.5c-0.2-2.3-0.7-5.2-1.5-8.7
			c-0.8-3.4-2.1-6.9-3.9-10.3c-1.8-3.4-4.4-6.4-7.7-8.7c-3.3-2.4-7.6-3.6-12.8-3.6c-3.5,0-6.3,0.6-8.5,1.8c-2.2,1.2-3.9,2.7-5.1,4.4
			c-1.2,1.7-2.1,3.4-2.6,5.1c-0.5,1.7-0.9,3.2-0.9,4.4l-0.3,1.7v8.7l-0.1,1.7c-0.1,1.2-0.4,2.6-0.9,4.3c-0.5,1.7-1.4,3.4-2.6,5.2
			c-1.2,1.7-2.9,3.2-5.1,4.4c-2.2,1.2-5,1.7-8.5,1.7h-8.7c-3.5,0-6.3-0.6-8.5-1.7s-3.9-2.6-5.2-4.4c-1.3-1.7-2.2-3.5-2.7-5.2
			c-0.5-1.7-0.8-3.1-0.9-4.3l-0.1-1.7l0.3-2.6c0.3-1.6,1-3.8,2-6.5c1.1-2.7,2.8-5.5,5.3-8.4c2.5-3,5.9-5.7,10.4-8.4
			c4.5-2.6,10.2-4.8,17.2-6.5c7-1.7,15.6-2.5,25.8-2.5c14,0,25.3,1.5,34.1,4.4c8.8,3,15.6,6.6,20.5,10.9c4.9,4.3,8.4,8.6,10.5,12.9
			c2.1,4.3,3.4,7.9,3.9,10.9l0.6,4.4v104.6c0,3.4,0.6,6.2,1.7,8.4c1.2,2.2,2.6,4,4.4,5.2c1.7,1.2,3.5,2.1,5.2,2.6
			c1.7,0.5,3.1,0.9,4.3,0.9l1.9,0.1v8.7h-61v-26l-2,3.9c-1.3,2.6-3.5,5.6-6.7,9c-3.2,3.4-7.6,6.4-13.3,9.1c-5.7,2.7-12.9,4-21.6,4
			c-8.6,0-15.7-1.5-21.2-4.4c-5.5-3-9.8-6.6-12.9-10.9c-3.1-4.3-5.3-8.6-6.6-12.9c-1.3-4.3-2.1-7.9-2.4-10.9L953.8,286z M1041,286
			v-58c-1.4,2.4-3.1,4.6-5.2,6.5c-2.1,1.9-5.2,4.1-9.3,6.6c-4.4,2.5-8.8,5.6-13.2,9.2c-4.4,3.6-8.2,8.3-11.3,13.9
			c-3.1,5.6-4.7,12.9-4.7,21.8v8.7l0.3,1.7c0.1,1.2,0.4,2.6,0.9,4.4c0.5,1.7,1.4,3.5,2.6,5.2c1.2,1.7,2.9,3.1,5.1,4.3
			c2.2,1.2,5,1.7,8.5,1.7c4.4,0,8.2-1.3,11.4-3.9c3.2-2.6,6-5.6,8.1-9c2.2-3.4,3.8-6.4,4.9-9.2L1041,286z"/>
		<path d="M1106.3,259.8V225l0.4-5.1c0.2-3.4,0.9-7.7,2.2-12.9c1.3-5.2,3.3-10.8,6.1-16.7c2.8-5.9,6.8-11.5,11.9-16.8
			c5.1-5.3,11.7-9.6,19.6-13c8-3.4,17.7-5.1,29.4-5.1c10.2,0,18.8,0.9,25.8,2.5c7,1.7,12.7,3.9,17.2,6.5c4.5,2.6,7.9,5.4,10.4,8.4
			c2.5,3,4.2,5.8,5.3,8.4c1.1,2.7,1.7,4.8,2,6.5l0.3,2.6l-0.1,1.7c-0.1,1.2-0.4,2.6-0.9,4.3c-0.5,1.7-1.4,3.4-2.7,5.2
			c-1.3,1.7-3,3.2-5.2,4.4c-2.2,1.2-5,1.7-8.5,1.7h-8.7c-3.5,0-6.3-0.6-8.5-1.7s-3.9-2.6-5.1-4.4c-1.2-1.7-2.1-3.5-2.6-5.2
			c-0.5-1.7-0.8-3.1-0.9-4.3l-0.1-1.7v-8.7l-0.3-1.7c-0.1-1.3-0.4-2.7-0.9-4.4c-0.5-1.7-1.4-3.4-2.6-5.1c-1.2-1.7-2.9-3.2-5.1-4.4
			c-2.2-1.2-5-1.8-8.5-1.8c-5.2,0-9.5,1.8-12.8,5.3c-3.3,3.5-5.9,7.9-7.7,13.1c-1.8,5.2-3.2,10.4-3.9,15.5
			c-0.8,5.1-1.3,9.5-1.5,13.1l-0.3,5.2v52.2l0.4,4.5c0.2,2.9,0.8,6.5,1.9,10.8c1.1,4.3,2.8,8.6,5.2,12.9c2.4,4.3,5.8,7.9,10.3,10.8
			c4.4,3,10.1,4.4,17.1,4.4c8.6,0,16.2-1.3,22.8-3.9c6.5-2.6,12-5.6,16.4-9c4.4-3.4,7.6-6.4,9.7-9.2l3.3-3.9v8.7l-4.7,5.2
			c-3,3.6-7.3,7.6-12.7,12.1c-5.5,4.5-11.9,8.5-19.3,12.1c-7.4,3.5-15.5,5.3-24.2,5.3c-11.6,0-21.4-1.7-29.4-5.1
			c-8-3.4-14.5-7.7-19.6-12.9c-5.1-5.2-9.1-10.8-11.9-16.7c-2.8-5.9-4.9-11.5-6.1-16.8c-1.3-5.3-2-9.6-2.2-13L1106.3,259.8z"/>
		<path d="M1236.9,320.7l1.7-0.1c1.3-0.1,2.7-0.4,4.4-0.9c1.7-0.5,3.4-1.4,5.2-2.6c1.7-1.2,3.2-2.9,4.4-5.2c1.2-2.2,1.7-5,1.7-8.4
			V103.1c0-3.5-0.6-6.3-1.7-8.5c-1.2-2.2-2.6-3.9-4.4-5.1c-1.7-1.2-3.5-2.1-5.2-2.6c-1.7-0.5-3.2-0.8-4.4-0.9l-1.7-0.1v-8.7
			l52.2-8.7h8.7V263c5.2-6.2,11-13,17.3-20.5c7-8.3,13.1-15.7,18.3-22c9.2-10.9,16.3-19.3,21.2-25.5s8.3-10.7,10.1-13.9
			c1.8-3.2,2.7-5.9,2.7-8.4c0-1.7-0.3-3.2-0.9-4.3c-0.6-1.1-1.3-2-2.2-2.5s-1.7-1-2.6-1.3c-0.9-0.3-1.6-0.4-2.2-0.4l-0.9-0.1v-8.7
			h43.5v8.7c-2,0-4.4,0.7-7.1,2c-2.7,1.4-6.4,4.3-11.1,8.7c-4.8,4.5-11.1,11.1-19.1,20c-8,8.9-18.3,20.7-30.8,35.6
			c2.2,3.8,4.6,7.8,7.1,12.1c11.4,19,20.7,33.9,27.8,44.7c7.1,10.8,12.7,18.5,16.7,23.4c4.1,4.8,7.3,7.7,9.7,8.7
			c2.4,1,4.6,1.5,6.8,1.5v8.7h-78.3v-8.7h0.9c0.6-0.1,1.3-0.3,2.2-0.5c0.9-0.2,1.7-0.7,2.5-1.3c0.8-0.6,1.5-1.5,2.2-2.6
			c0.6-1.1,0.9-2.5,0.9-4.3c0-3.7-1.8-9.4-5.5-17.2c-3.6-7.8-9.8-19.1-18.5-34c-1.1,1.2-2.1,2.3-3.1,3.5c-2.8,3.4-5.4,6.5-7.9,9.5
			v29.7c0,3.4,0.6,6.2,1.8,8.4c1.2,2.2,2.7,4,4.4,5.2c1.7,1.2,3.4,2.1,5.1,2.6c1.7,0.5,3.2,0.9,4.4,0.9l1.7,0.1v8.7h-78.4V320.7z"/>
		<path d="M1411.1,320.7l1.7-0.1c1.2-0.1,2.6-0.4,4.4-0.9c1.7-0.5,3.5-1.4,5.2-2.6c1.7-1.2,3.2-2.9,4.4-5.2c1.2-2.2,1.8-5.1,1.8-8.6
			V137.9c0-3.5-0.6-6.3-1.8-8.5c-1.2-2.2-2.7-3.9-4.4-5.1c-1.7-1.2-3.4-2.1-5.2-2.6c-1.7-0.5-3.2-0.8-4.4-0.9l-1.7-0.1v-8.7h165.4
			v26h-17.5l-0.1-1.7c-0.1-1.2-0.4-2.6-0.9-4.3c-0.5-1.7-1.4-3.4-2.6-5.2c-1.2-1.7-2.9-3.2-5.2-4.4c-2.2-1.2-5-1.7-8.4-1.7h-69.7
			v95.7h52.2c3.5,0,6.3-0.6,8.5-1.7c2.2-1.2,3.9-2.6,5.1-4.4c1.2-1.7,2.1-3.5,2.6-5.2c0.5-1.7,0.8-3.2,0.9-4.4l0.3-1.7h17.3v43.5
			h-17.3l-0.3-1.7c-0.1-1.2-0.4-2.6-0.9-4.3c-0.5-1.7-1.4-3.4-2.6-5.2c-1.2-1.7-2.9-3.2-5.1-4.4c-2.2-1.2-5-1.7-8.5-1.7h-52.2v95.7
			h69.7c3.4,0,6.2-0.6,8.4-1.7c2.2-1.2,4-2.6,5.2-4.4c1.2-1.7,2.1-3.5,2.6-5.2c0.5-1.7,0.8-3.1,0.9-4.3l0.1-1.9h17.5v26.2h-165.4
			V320.7z"/>
		<path d="M1602.6,381.7c4.4,0,8.3-0.3,11.9-1c3.6-0.7,7.2-2.7,11-6c3.7-3.3,7.9-8.9,12.6-16.8c4.7-7.9,10.2-18.8,16.7-32.7
			l-52.2-134.9c-8.7-17.5-17.4-26.2-26-26.2v-8.7h78.3v8.7l-0.9,0.1c-0.6,0-1.3,0.1-2.2,0.4c-0.9,0.3-1.7,0.7-2.6,1.3
			c-0.9,0.6-1.6,1.4-2.2,2.5c-0.6,1.1-0.9,2.5-0.9,4.3c0,2.2,3.2,12.1,9.5,29.5c6.4,17.5,13.6,36.8,21.6,58
			c7.9-20,14.8-38.5,20.8-55.6c6-17.1,9-27.7,9-32c0-1.7-0.3-3.2-0.9-4.3c-0.6-1.1-1.3-2-2.2-2.5s-1.7-1-2.5-1.3
			c-0.8-0.3-1.6-0.4-2.3-0.4l-0.9-0.1v-8.7h43.6v8.7c-4.4,0-8.9,2.1-13.6,6.3c-4.7,4.2-8.9,10.8-12.6,19.9l-52.2,139.2
			c-6.9,17.3-12.9,31.4-18,42.5c-5.1,11.1-9.6,19.7-13.5,25.8c-3.8,6.2-7.3,10.6-10.5,13.2c-3.2,2.7-6.2,4.2-9.2,4.7
			c-3,0.5-6.3,0.7-9.7,0.7h-8.7c-3.5,0-6.3-0.6-8.5-1.7c-2.2-1.2-3.9-2.6-5.1-4.3c-1.2-1.7-2.1-3.4-2.6-5.2
			c-0.5-1.7-0.8-3.2-0.9-4.4l-0.1-1.7l0.1-1.7c0.1-1.3,0.4-2.7,0.9-4.4c0.5-1.7,1.4-3.4,2.6-5.1c1.2-1.7,2.9-3.2,5.1-4.4
			c2.2-1.2,5-1.8,8.5-1.8H1602.6z"/>
		<path d="M1777,273c0.2,2.9,0.8,6.5,1.9,10.8c1.1,4.3,2.8,8.6,5.3,12.9c2.5,4.3,5.9,7.9,10.3,10.8c4.4,3,10.1,4.4,16.9,4.4
			c8.7,0,16.4-1.3,22.9-3.9c6.5-2.6,12-5.6,16.3-9c4.3-3.4,7.6-6.4,9.8-9.2l3.2-3.9v8.7l-4.5,5.2c-3.1,3.6-7.4,7.6-12.9,12.1
			c-5.5,4.5-11.9,8.5-19.3,12.1c-7.4,3.5-15.5,5.3-24.2,5.3c-11.5,0-21.3-1.7-29.3-5.1c-8-3.4-14.5-7.7-19.6-12.9
			s-9.1-10.8-11.9-16.7c-2.9-5.9-4.9-11.5-6-16.9c-0.6-2.3-1.1-4.5-1.5-6.5c-0.4-2.4-0.7-4.6-0.9-6.4l-0.3-5.1V225l0.3-5.1
			c0.3-3.4,1-7.7,2.3-13c1.2-5.3,3.2-10.9,6.1-16.8c2.9-5.9,6.8-11.5,11.9-16.7s11.6-9.6,19.6-12.9c8-3.4,17.8-5.1,29.5-5.1
			c12.1,0,22,1.5,29.8,4.4c7.7,3,13.7,6.6,18,10.9c4.3,4.3,7.3,8.6,9.2,12.9c1.9,4.3,3,7.9,3.4,10.9l0.4,4.4
			c0,8.6-1.8,15.5-5.5,20.5c-3.6,5-8.5,9.2-14.6,12.5c-6.1,3.3-12.9,6.4-20.4,9.3c-7.8,2.9-15.7,6.5-23.7,10.6
			c-8.1,4.2-15.7,9.7-22.8,16.7l0.3,4.4V273z M1776.7,216.3v43.5c6.8-5.1,11.7-8.7,14.8-10.6c4.7-2.8,9.1-5.8,13.5-9.1
			c4.3-3.2,7.9-8,10.8-14.3c2.9-6.3,4.4-15.3,4.4-26.9l-0.1-3.5c-0.1-2.3-0.4-5.2-0.9-8.7c-0.5-3.4-1.4-6.9-2.6-10.3
			c-1.2-3.4-2.9-6.4-5.2-8.7c-2.2-2.4-5.1-3.6-8.6-3.6c-5.1,0-9.4,1.8-12.7,5.3c-3.3,3.5-5.9,7.9-7.7,13.1c-1.8,5.2-3.2,10.4-4,15.5
			c-0.8,5.1-1.3,9.5-1.4,13.1L1776.7,216.3z"/>
	</g>
	<g>
		<path class="st2" d="M1041.7,416.5l30-60.4h21.8l30,60.4h-20.8l-4.4-9.5h-31.7l-4.4,9.5H1041.7z M1072.9,394h19.7l-7.9-17.4
			c-0.7-1.5-1.3-2.9-2-6.1c-0.7,3.2-1.3,4.7-2,6.1L1072.9,394z"/>
		<path class="st2" d="M1161.2,356.1c18.9,0,33.3,4.8,33.3,20.7s-14.4,20.6-33.3,20.7h-10v19H1131v-60.4H1161.2z M1162.2,369.9h-11
			v13.8h11c6.1,0,11.6-1.5,11.6-6.9S1168.3,369.9,1162.2,369.9z"/>
		<path class="st2" d="M1234.2,356.1c18.9,0,33.3,4.8,33.3,20.7s-14.4,20.6-33.3,20.7h-10v19h-20.2v-60.4H1234.2z M1235.2,369.9h-11
			v13.8h11c6.1,0,11.6-1.5,11.6-6.9S1241.3,369.9,1235.2,369.9z"/>
		<path class="st2" d="M1262.6,416.5l30-60.4h21.8l30,60.4h-20.8l-4.4-9.5h-31.7l-4.4,9.5H1262.6z M1293.7,394h19.7l-7.9-17.4
			c-0.7-1.5-1.3-2.9-2-6.1c-0.7,3.2-1.3,4.7-2,6.1L1293.7,394z"/>
		<path class="st2" d="M1351.8,416.5v-60.4h32.2c15.5,0,31.4,4.4,31.4,20.4c0,10-6.2,15.4-14.6,18.1l21.1,21.9H1399l-18.2-19.7h-8.7
			v19.7H1351.8z M1372,383.8h12.9c5.8,0,9.7-2.3,9.7-7c0-4.7-3.9-7-9.7-7H1372V383.8z"/>
		<path class="st2" d="M1484.5,356.1v13.8h-34.8v9.2h31.6v13.7h-31.6v9.8h35.5v13.8h-55.7v-60.4H1484.5z"/>
		<path class="st2" d="M1517.1,356.1v46.2h35v14.2h-55.2v-60.4H1517.1z"/>
	</g>
</g>
<g id="Layer_2_copy" class="st0">
	<rect x="-136.7" y="187.1" class="st1" width="762" height="201.4"/>
	<g class="st1">
		<path d="M50,74.4H3.1V43.3h18.7v7.8h19.4V12.5H21.8v8.1H3.1V-7.2H50v9.9h19.4v-29.4H-39c0.8,0.1,31.2,3.4,31.2,29.2
			c0,24.9-15,26.6-15,26.6s18.8,5.3,18.8,30.2c0,28-26.8,34.4-26.8,34.4H69.5V64.6H50V74.4z"/>
		<path d="M-32.6,6.7c0-12.5-14.2-12.5-14.2-12.5h-33.8V21h33.7C-46.9,21-32.6,20.3-32.6,6.7z"/>
		<path d="M-47.5,41.4h-33.1v33h35c0,0,16.1-0.7,16.1-17.1S-47.5,41.4-47.5,41.4z"/>
		<path d="M59,12.9c0,0-12.4,6.7-12.4,18.3C46.6,46.6,59,51.4,59,51.4s12.2-5.2,12.2-20.2C71.2,19.6,59,12.9,59,12.9z M69.9,32
			c0,6.1-4.9,11-11,11s-11-4.9-11-11c0-6.1,4.9-11,11-11S69.9,25.9,69.9,32z"/>
		<circle cx="58.8" cy="32.1" r="5.4"/>
	</g>
	<g class="st1">
		<g>
			<path d="M213.5,93c-0.2-0.2-0.5-0.4-0.7-0.8c-0.2-0.4-0.5-0.9-0.8-1.8l-4.7-10.8h-0.6l-3.9,9.7c-0.4,0.9-0.6,1.5-0.9,2
				c-0.2,0.4-0.4,0.8-0.7,1.1c-0.3,0.3-0.6,0.6-0.8,0.8c-0.3,0.2-0.6,0.2-1,0.3v0.2h4.8v-0.2c-0.4,0-0.8-0.1-1.1-0.3
				c-0.2-0.1-0.4-0.3-0.5-0.5c-0.1-0.2-0.2-0.5-0.2-0.7c0-0.4,0.2-1,0.5-1.8l0.3-0.6l0.6-1.4h4.7l1,2.4l0.2,0.4
				c0.2,0.5,0.3,0.9,0.3,1.1c0,0.5-0.2,0.8-0.7,1.1c-0.3,0.2-0.7,0.3-1.3,0.3v0.2h7v-0.2c-0.4,0-0.8-0.1-1-0.2
				C213.8,93.2,213.6,93.1,213.5,93z M204,87.6l2.1-5.3l2.3,5.3H204z"/>
		</g>
		<g>
			<path d="M258.7,80.5c-0.4-0.3-0.9-0.5-1.5-0.7c-0.5-0.1-1.4-0.2-2.5-0.2h-6.5v0.2h0.1c0.5,0,0.8,0.1,1.1,0.2
				c0.3,0.1,0.5,0.3,0.7,0.6c0.1,0.2,0.2,0.5,0.3,0.8c0.1,0.3,0.1,0.8,0.1,1.4v7.6c0,0.7,0,1.2-0.1,1.6c-0.1,0.3-0.2,0.6-0.5,0.8
				c-0.2,0.2-0.4,0.3-0.7,0.4c-0.3,0.1-0.6,0.1-1,0.2v0.2h6.8v-0.2c-0.4,0-0.7-0.1-1-0.2c-0.3-0.1-0.5-0.2-0.7-0.4
				c-0.2-0.2-0.4-0.5-0.5-0.8c-0.1-0.3-0.1-0.9-0.1-1.6v-3.7h2.1c0.9,0,1.5,0,1.8,0c0.8-0.1,1.4-0.2,2-0.5c1-0.6,1.5-1.5,1.5-2.8
				C260.2,82.2,259.7,81.2,258.7,80.5z M256.6,85.7c-0.3,0.3-0.6,0.5-1,0.6c-0.4,0.1-0.9,0.1-1.6,0.1h-1.1V80h0.9c0.6,0,1,0,1.1,0
				c0.6,0.1,1.1,0.3,1.6,0.6c0.4,0.3,0.7,0.7,0.9,1.1c0.2,0.5,0.3,1,0.3,1.5C257.6,84.3,257.3,85.1,256.6,85.7z"/>
		</g>
		<g>
			<path d="M304.3,80.5c-0.4-0.3-0.9-0.5-1.5-0.7c-0.5-0.1-1.4-0.2-2.5-0.2h-6.5v0.2h0.1c0.5,0,0.8,0.1,1.1,0.2
				c0.3,0.1,0.5,0.3,0.7,0.6c0.1,0.2,0.2,0.5,0.3,0.8c0.1,0.3,0.1,0.8,0.1,1.4v7.6c0,0.7,0,1.2-0.1,1.6c-0.1,0.3-0.2,0.6-0.5,0.8
				c-0.2,0.2-0.4,0.3-0.7,0.4c-0.3,0.1-0.6,0.1-1,0.2v0.2h6.8v-0.2c-0.4,0-0.7-0.1-1-0.2c-0.3-0.1-0.5-0.2-0.7-0.4
				c-0.2-0.2-0.4-0.5-0.5-0.8c-0.1-0.3-0.1-0.9-0.1-1.6v-3.7h2.1c0.9,0,1.5,0,1.8,0c0.8-0.1,1.4-0.2,2-0.5c1-0.6,1.5-1.5,1.5-2.8
				C305.8,82.2,305.3,81.2,304.3,80.5z M302.2,85.7c-0.3,0.3-0.6,0.5-1,0.6c-0.4,0.1-0.9,0.1-1.6,0.1h-1.1V80h0.9c0.6,0,1,0,1.1,0
				c0.6,0.1,1.1,0.3,1.6,0.6c0.4,0.3,0.7,0.7,0.9,1.1c0.2,0.5,0.3,1,0.3,1.5C303.3,84.3,302.9,85.1,302.2,85.7z"/>
		</g>
		<g>
			<path d="M352.8,93c-0.2-0.2-0.5-0.4-0.7-0.8c-0.2-0.4-0.5-0.9-0.8-1.8l-4.7-10.8h-0.6l-3.9,9.7c-0.4,0.9-0.6,1.5-0.9,2
				c-0.2,0.4-0.4,0.8-0.7,1.1c-0.3,0.3-0.6,0.6-0.8,0.8c-0.3,0.2-0.6,0.2-1,0.3v0.2h4.8v-0.2c-0.4,0-0.8-0.1-1.1-0.3
				c-0.2-0.1-0.4-0.3-0.5-0.5c-0.1-0.2-0.2-0.5-0.2-0.7c0-0.4,0.2-1,0.5-1.8l0.3-0.6l0.6-1.4h4.7l1,2.4l0.2,0.4
				c0.2,0.5,0.3,0.9,0.3,1.1c0,0.5-0.2,0.8-0.7,1.1c-0.3,0.2-0.7,0.3-1.3,0.3v0.2h7v-0.2c-0.4,0-0.8-0.1-1-0.2S353,93.1,352.8,93z
				 M343.3,87.6l2.1-5.3l2.3,5.3H343.3z"/>
		</g>
		<g>
			<path d="M400.3,92.9c-0.2-0.3-0.5-0.7-0.8-1.3c-0.3-0.6-0.8-1.5-1.4-2.8c-0.3-0.5-0.5-0.9-0.6-1.1c-0.1-0.2-0.3-0.4-0.5-0.5
				c-0.2-0.2-0.5-0.4-1-0.5c0.5-0.1,0.9-0.2,1.2-0.4c0.3-0.1,0.6-0.3,0.9-0.5c0.8-0.6,1.3-1.5,1.3-2.6c0-0.7-0.2-1.4-0.6-1.9
				c-0.4-0.5-0.9-1-1.6-1.2c-0.6-0.2-1.5-0.4-2.6-0.4c-0.3,0-0.8,0-1.7,0h-5.2v0.2c0.4,0,0.7,0.1,1,0.2s0.5,0.2,0.7,0.4
				c0.2,0.2,0.4,0.5,0.5,0.8c0.1,0.3,0.1,0.9,0.1,1.6v7.6c0,0.7,0,1.2-0.1,1.6c-0.1,0.3-0.2,0.6-0.5,0.8c-0.2,0.2-0.4,0.3-0.7,0.4
				c-0.3,0.1-0.6,0.1-1,0.2v0.2h6.8v-0.2c-0.4,0-0.7-0.1-1-0.2c-0.3-0.1-0.5-0.2-0.7-0.4c-0.2-0.2-0.4-0.5-0.5-0.8
				c-0.1-0.3-0.1-0.9-0.1-1.6v-3.6h0.5c0.3,0,0.6,0,0.8,0.1c0.2,0.1,0.4,0.2,0.6,0.3c0.4,0.3,0.8,0.8,1.3,1.5
				c0.5,0.8,0.9,1.6,1.4,2.6l0.7,1.6c0.1,0.1,0.2,0.3,0.3,0.7h3.6v-0.2c-0.3,0-0.5-0.1-0.7-0.2C400.6,93.2,400.4,93.1,400.3,92.9z
				 M394.6,86.5c-0.4,0.1-1,0.1-1.9,0.1h-0.4V80h0.4c0.8,0,1.4,0,1.8,0.1c0.4,0.1,0.8,0.3,1.1,0.5c0.4,0.3,0.7,0.7,0.9,1.2
				c0.2,0.5,0.3,1,0.3,1.5c0,1-0.4,1.9-1.1,2.6C395.3,86.2,394.9,86.4,394.6,86.5z"/>
		</g>
		<g>
			<path d="M447,91.1c-0.2,0.4-0.4,0.7-0.6,1c-0.4,0.4-0.8,0.8-1.4,1s-1.3,0.3-2.2,0.3c-0.8,0-1.5-0.1-2-0.3
				c-0.5-0.2-0.9-0.6-1.1-1.1c-0.1-0.3-0.2-0.6-0.3-1.1c-0.1-0.4-0.1-1.1-0.1-2.1v-2.4h0.6c0.5,0,1,0.1,1.3,0.2
				c0.3,0.1,0.6,0.3,0.8,0.5c0.2,0.2,0.4,0.5,0.5,0.8c0.1,0.3,0.2,0.7,0.3,1.3h0.2l0-5.5l-0.2,0c-0.1,0.5-0.1,0.9-0.2,1.2
				c-0.1,0.3-0.2,0.5-0.4,0.7c-0.2,0.2-0.5,0.4-0.8,0.4c-0.3,0.1-0.8,0.1-1.5,0.1h-0.6V80h2.5c0.8,0,1.4,0,1.8,0.1
				c0.5,0.1,0.9,0.3,1.2,0.5c0.4,0.3,0.7,0.6,0.9,1c0.2,0.4,0.4,0.9,0.5,1.4l0.2,0l-0.2-3.4h-11.5v0.2c0.4,0,0.7,0.1,1,0.2
				c0.3,0.1,0.5,0.2,0.7,0.4c0.2,0.2,0.4,0.5,0.5,0.8c0.1,0.3,0.1,0.9,0.1,1.6v7.6c0,0.7,0,1.2-0.1,1.6c-0.1,0.3-0.2,0.6-0.5,0.8
				c-0.2,0.2-0.4,0.3-0.7,0.4c-0.3,0.1-0.6,0.1-1,0.2v0.2h12.8l0.1-4.1l-0.2,0C447.3,90.2,447.2,90.7,447,91.1z"/>
		</g>
		<g>
			<path d="M493.6,91c-0.2,0.4-0.4,0.7-0.6,1.1c-0.4,0.5-0.8,0.8-1.4,1c-0.6,0.2-1.3,0.3-2.1,0.3c-0.8,0-1.5-0.1-2-0.3
				c-0.5-0.2-0.9-0.6-1.1-1.1c-0.1-0.3-0.2-0.6-0.3-1.1c-0.1-0.4-0.1-1.1-0.1-2v-5.9c0-0.7,0-1.3,0.1-1.6s0.3-0.6,0.5-0.9
				c0.2-0.2,0.4-0.3,0.7-0.4s0.6-0.1,1-0.2v-0.2h-6.8v0.2c0.4,0,0.7,0.1,0.9,0.1c0.2,0.1,0.5,0.2,0.7,0.4c0.2,0.2,0.4,0.5,0.5,0.8
				c0.1,0.3,0.1,0.9,0.1,1.6v7.6c0,0.7,0,1.2-0.1,1.6c-0.1,0.3-0.2,0.6-0.5,0.8c-0.4,0.4-1,0.6-1.7,0.6v0.2h12.8l0.1-4.2l-0.3,0
				C493.9,90.1,493.8,90.6,493.6,91z"/>
		</g>
		<g>
			<path d="M577.3,21.7c-1.3-2.1-4.8-3.1-10.5-3.1c-4.7,0-11,0.7-18.9,2.1c-7.6,1.4-14.9,3-22,4.8c-9.1,2.4-15.3,3.7-18.8,3.7h-0.5
				c-0.7,0-1.3-0.1-1.9-0.2c-0.8-0.2-1.2-0.7-1.2-1.3v-0.2c0-0.1,0.1-0.4,0.3-0.9c0.3-0.8,1.1-1.9,2.3-3.2c0.7-0.7,1.3-1.2,1.7-1.4
				c0.6-0.4,0.9-0.7,1-0.7h0.2c0.7,0.4,1.5,0.6,2.6,0.6c0.5,0,1.3-0.1,2.5-0.2c1.5-0.3,2.7-0.6,3.7-1c3.8-1.4,5.7-2.9,5.7-4.4v-0.2
				c0-0.6-0.4-1.3-1.2-2.1c-0.6-0.5-1.1-0.9-1.6-1.1c-0.3-0.1-0.8-0.2-1.3-0.3c-2.1,0-4.5,0.6-7.4,1.9c-1.7,0.7-3.2,1.6-4.6,2.6
				c-0.6,0.3-1.7,1.3-3.5,2.9c-0.6,0.1-1.3,0.3-2.2,0.7c-2.1,0.8-4.5,1.8-7.1,3.1c-2.7,1.3-5.1,2.6-7.2,3.7c-2.2,1.2-3.6,2-4.3,2.3
				c-0.2,0.1-0.5,0.2-0.9,0.3c-0.4,0.1-0.7,0.1-0.9,0.1c-0.3,0-0.4-0.1-0.5-0.3c0-0.2-0.1-0.4-0.1-0.6c0-0.2,0-0.3,0.1-0.5
				c0.5-1.1,0.9-2.1,1.4-3.1c0.3-0.6,0.6-1.3,0.9-1.9c0.1-0.1,0.1-0.3,0.2-0.5c0.5-1,0.9-1.9,1.3-2.9c0.4-1.2-0.2-2.3-1.5-3.4
				c-0.8-0.6-1.5-0.7-2-0.3c-0.9,0.8-1.7,1.7-2.5,2.6c-3.2,3.3-6.9,6-11.1,8.1c-1.5,0.8-3.3,1.4-5.2,1.7c-0.3,0-0.7-0.1-1-0.4
				c-0.4-0.3-0.6-0.6-0.6-0.9c0.1-1.2,0.5-2.2,1.1-3.1c0.6-0.9,1.3-1.7,2.1-2.5c0.5-0.5,1-1,1.4-1.5s0.7-1,1-1.6
				c0.1-0.3,0-0.7-0.4-1.1c-0.4-0.4-0.8-0.8-1.2-1.1c-0.2-0.1-0.6,0-1.1,0.2c-0.5,0.2-1.1,0.5-1.6,0.8c-0.5,0.3-0.9,0.5-1,0.6
				c-0.2,0.2-0.5,0.5-0.7,0.7c-0.1,0.1-0.2,0.2-0.3,0.4c0,0,0,0-0.1,0c-0.1,0.1-0.3,0.2-0.4,0.3c-15.9,8.6-32.6,15.8-49.8,21.5
				c-4.2,1.4-8.4,2.7-12.6,3.9c-4.2,1.2-8.5,2.3-12.8,3.2c-1.7,0.4-3.5,0.7-5.3,0.9c-1.8,0.3-3.5,0.4-5.3,0.3c-0.4,0-0.8,0-1.2,0
				c-0.9,0-1.8,0-2.7,0c-0.9-0.1-1.7-0.2-2.6-0.5c-0.2-1.1-1-2-2.1-2.7c0.2-1.4,0.6-2.8,1.2-4.2c0.8-1.5,1.7-2.9,2.7-4.2
				c1-1.3,2.1-2.6,3.3-3.7c4.3-4.6,9.1-8.7,14.3-12.4c4.9-3.6,10.1-6.9,15.4-9.9s10.8-5.8,16.4-8.4c1.6-0.7,3.2-1.1,4.9-1.4
				c0.6-0.1,1.1-0.1,1.7-0.2c2.1-0.2,4.2-0.6,6.3-1.1c0.4-0.1,0.7-0.2,1-0.3c1.5-0.3,2.9-0.8,4.2-1.5c0.4-0.2,0.6-0.6,0.7-0.9
				c0.1-0.4,0.1-0.8-0.1-1.2c-0.4-0.7-0.9-1.3-1.6-1.8c-0.7-0.4-1.4-0.6-2.1-0.5c-1.7,0.2-3.4,0.6-5,1c-1.4,0.4-2.8,0.9-4.2,1.4
				c-1,0.3-2,0.7-3,1c-0.1,0-0.3,0.1-0.4,0.1c-1,0.4-1.9,0.6-2.9,0.7c-1.6,0.1-3.3,0-4.9-0.1c-1.6-0.2-3.2-0.5-4.8-1
				c-0.5-0.2-1-0.4-1.5-0.7c-2.2-1.2-3.1-2.9-2.5-5.1c0.4-1.4,0.9-2.6,1.6-3.8c1.5-2.2,3.3-4.1,5.4-5.8c6.2-4.9,13.1-8.2,20.9-9.9
				c1.6-0.3,3.2-0.6,4.8-0.8c1.6-0.2,3.3-0.3,4.9-0.2c1.3,0.1,2.5,0.2,3.8,0.5c1.2,0.3,2.4,0.8,3.5,1.5c0.2,0.2,0.5,0.3,0.8,0.3
				c0.1,0,0.2,0,0.3-0.1c0.1-0.1,0.3-0.1,0.4-0.2c0-0.1,0-0.2,0-0.2s0-0.1,0-0.1c-0.1-0.1-0.2-0.3-0.3-0.5c-0.2-0.4-0.5-0.8-0.8-1.2
				c-1.1-1-2.2-1.8-3.6-2.3c-1.3-0.5-2.7-0.8-4.1-0.9c-2.4-0.2-4.9-0.2-7.3,0.1c-8.7,1-16.5,3.9-23.6,8.9c-2.1,1.4-4,3.1-5.7,4.9
				c-1.3,1.4-2.4,3-3.2,4.8c-1.1,2.5-1.1,5.1,0,7.6c1.1,2.7,3,4.6,5.7,5.9c0.5,0.2,0.9,0.4,1.3,0.6c0.6,0.2,1.2,0.5,1.8,0.8
				c0,0,0.1,0.1,0.1,0.1c0,0,0.1,0.1,0.1,0.1c0,0,0.1,0.1,0.1,0.1c0,0.1-0.1,0.2-0.1,0.3s-0.1,0.2-0.2,0.2c-1.1,0.6-2.2,1.1-3.3,1.7
				c-1.1,0.5-2.1,1.1-3.1,1.6c-4.7,2.4-9.2,5-13.6,7.8c-4.4,2.8-8.6,5.8-12.6,9.1c-2,1.7-4,3.4-5.8,5.1c-1.9,1.8-3.6,3.7-5.3,5.7
				c-1.9,2.2-3.5,4.7-4.6,7.4c-0.5,1.2-0.6,2.6-0.4,4.1c-0.9-0.2-1.9-0.4-3.1-0.5c-2.3-0.2-4.9-0.2-7.7,0.2
				c-3.1,0.4-6.4,1.1-9.9,1.9c-3.4,0.8-6.9,1.6-10.3,2.5c-4,1.1-7.7,2-11.2,2.7c-3.4,0.7-6.3,1.1-8.6,1.1c-0.1,0-0.1,0-0.2,0
				c-0.2,0-0.5-0.1-0.8-0.1c-1.2-0.2-1.8-1-1.6-2.2c0.2-1.2,0.8-2.6,1.8-4.2c1-1.6,2.1-3,3.4-4.3c1.2-1.3,2.3-2.2,3.2-2.6
				c1.5-0.6,3-1.2,4.5-1.8c1-0.4,2.1-0.8,3.1-1.3c0.5-0.2,1-0.4,1.4-0.8c0.1-0.1,0.1-0.2,0.1-0.3c0-0.2,0-0.3,0-0.4
				c-0.6-1.3-1.6-1.8-2.8-1.4c-3.6,1-7.1,2.2-10.4,3.6c-0.8,0.3-1.6,0.6-2.4,0.9c-0.1,0-0.2,0.1-0.3,0.1c0,0-0.1,0-0.2-0.1
				c-0.1,0-0.2-0.1-0.2-0.2c-0.4-0.3-0.3-0.8,0.2-1.3c0.5-0.5,1.3-1.1,2.2-1.6c1-0.5,2-1.1,3-1.5s1.9-0.8,2.5-1.1
				c0.4-0.2,0.7-0.3,0.8-0.4c4.1-2.1,8-4.5,11.7-7.1c2.8-1.9,5.3-4,7.7-6.3c2-1.8,3.7-3.8,5.1-6.1c0.4-0.6,0.8-1.4,1-2.1
				c0.5-1.9-0.1-3.5-1.9-4.8c-1-0.7-2.1-1-3.2-0.6c-1.3,0.4-2.6,1-3.7,1.7c-0.5,0.3-1,0.7-1.4,1c-1.8,1.3-3.6,2.6-5.3,4
				c-2.2,1.9-4.4,3.9-6.5,6c-5.7,5.7-11.2,11.6-16.3,17.8c-1.8,2.1-3.5,4.3-5.2,6.4c-1.2,0.6-2.4,1.2-3.8,1.8
				c-3.1,1.5-6.4,3-9.9,4.5c-3.5,1.5-7,2.6-10.5,3.4c-3.5,0.7-6.9,0.8-10,0.1c-1.2-0.3-1.6-1-1.2-2.1c0.5-1.5,1.3-2.8,2.4-3.8
				c2.2-2.3,4.5-4.2,7.1-5.9c2.6-1.6,5.4-2.9,8.6-3.7c1.9-0.5,3.9-0.6,5.9-0.3c0.2,0,0.4,0.1,0.7,0.1c0.2,0.1,0.4,0.1,0.5,0.2
				c0.1,0,0.2-0.1,0.3-0.2c0.1-0.1,0.2-0.3,0.2-0.4c0.1-0.2,0.1-0.3,0-0.4c0-0.1-0.1-0.1-0.1-0.2c-0.1-0.3-0.3-0.6-0.5-0.8
				c-0.9-1-2-1.5-3.3-1.6c-2-0.2-4-0.1-5.9,0.3c-3.3,0.8-6.3,2.1-9,3.8c-2.7,1.7-5.2,3.7-7.4,6.1c-0.5,0.5-0.9,1.1-1.3,1.7
				c-0.4,0.3-0.8,0.6-1.3,1c-1.8,1.3-4.1,2.6-7,4c-2.9,1.4-6.4,2.6-10.5,3.6c-0.2,0-0.4,0-0.5-0.2c-0.1-0.1-0.2-0.3-0.2-0.5
				c0.1-0.6,0.4-1.2,0.7-1.8c0.3-0.6,0.7-1.1,1.1-1.6c0-0.1,0-0.1,0.1-0.2c2.3-3.4,4.9-6.5,7.8-9.3c0.1-0.2,0.3-0.3,0.4-0.5
				c0.4-0.3,0.8-0.7,1.2-1.1c0.3-0.4,0.4-0.9,0.1-1.4c-0.2-0.7-0.7-1.2-1.3-1.7c-0.2-0.2-0.5-0.3-0.7-0.3c-0.3,0-0.5,0.1-0.7,0.2
				c-0.5,0.4-1,0.8-1.4,1.2c-2.7,2.4-5.6,4.5-8.6,6.3c-3,1.8-6.2,3.4-9.5,4.8c-1.5,0.6-3,1.1-4.6,1.5c-0.1,0-0.4,0.1-0.7,0.1
				c-0.3,0-0.7,0-1.1,0c-0.4,0-0.7-0.1-0.9-0.2s-0.3-0.3-0.2-0.6c1-1.8,2.4-3.3,4-4.6c1.6-1.3,3.5-2.3,5.4-3.2c2-0.8,4-1.5,5.9-2.1
				c1.3-0.3,2.4-0.5,3.2-0.5c0.8,0,1.5,0,2.1,0.1c0.6,0.1,1.2,0.2,1.9,0.2c0.1-0.1,0.3-0.3,0.4-0.6c0.1-0.3,0.1-0.7,0-1.1
				c-0.1-0.4-0.5-0.8-1-1.2c-1-0.7-2-1.1-3.2-1.3c-1.1-0.2-2.3-0.2-3.5,0.1c-3.1,0.5-6,1.5-8.6,3c-2.6,1.5-5,3.3-7.1,5.7
				c-0.3,0.3-0.5,0.6-0.8,1c-3.3,2.5-6.5,4.7-9.8,6.8c-3.5,2.3-7.4,4.4-11.6,6.3c-1.7,0.8-3.4,1.5-5.1,2c-0.6,0.2-1.2,0.2-1.9,0.1
				c-0.1,0-0.2,0-0.3,0c-0.1,0-0.2-0.1-0.3-0.2c-0.1-0.1-0.2-0.2-0.2-0.4c-0.1-0.5,0-1.1,0.1-1.6c0.7-2.4,1.7-4.7,3-6.8
				c2.2-3.5,4.5-6.9,7.1-10.2c0.7-0.9,1.5-1.6,2.4-2.2c4.8-3.2,9.6-6.4,14.4-9.6c7-4.8,13.5-10.1,19.5-16c1.8-1.7,3.5-3.6,5-5.7
				c1.1-1.6,0.9-3.1-0.5-4.5c-0.7-0.8-1.6-1-2.7-0.7c-1.6,0.5-3.2,1.2-4.7,2c-4,2.3-7.8,5-11.3,8c-4,3.3-7.8,6.8-11.4,10.5
				c-3.6,3.7-7.1,7.5-10.3,11.5c-0.2,0.3-0.4,0.5-0.6,0.8c-0.7,1-1.5,1.8-2.4,2.5c-0.2,0.1-0.3,0.3-0.5,0.4
				c-0.2,0.2-0.3,0.3-0.3,0.5c-0.3,1-0.8,1.9-1.4,2.6c-0.2,0.3-0.4,0.6-0.6,0.9c-0.1,0.1-0.2,0.3-0.3,0.4c-0.8,0-1.6,0.1-2.6,0.2
				c-1.1,0.2-2,0.3-2.8,0.4c-0.2,0-0.5,0.1-0.7,0.1c-0.2,0-0.5,0.1-0.7,0.1c-2.3,0.3-4.6,0.7-6.8,1.1c-0.6,0.1-1,0.1-1.4-0.1
				c-0.4-0.2-0.7-0.5-1-1c-0.6-1.3-1.5-2.3-2.6-3c-1.1-0.7-2.3-1.3-3.6-1.7c-1.8-0.5-3.6-0.8-5.5-0.9c-2.7-0.2-5.4-0.2-8.1-0.2
				c-2.7,0.1-5.4,0.3-8.1,0.6c-0.6,0.1-1.3,0.2-1.9,0.2c-0.2,0-0.4,0-0.6,0c0,0-0.1,0-0.1,0c0,0-0.1,0-0.2-0.1c0,0-0.1-0.1-0.1-0.1
				c0,0,0.1-0.1,0.1-0.1c0-0.1,0-0.1,0.1-0.2c0,0,0.1-0.1,0.1-0.1c0.7-0.4,1.5-0.7,2.3-1.1c2.3-1,4.7-1.9,7-2.9
				c3-1.2,6.1-2.5,9.2-3.7c8.9-3.6,17.7-7.5,26.4-11.6c2.5-1.2,4.9-2.4,7.4-3.6c2.5-1.3,4.9-2.6,7.2-4.1c2.5-1.5,4.9-3.3,7.1-5.3
				c1.6-1.4,2.8-3.1,3.6-5c0.5-1.5,0.6-2.9,0.2-4.4c-0.6-1.9-1.6-3.5-3-4.9c-1.5-1.5-3.2-2.7-5.1-3.6c-1.5-0.8-3.1-1.4-4.7-2
				c-1.6-0.5-3.3-1-5-1.3c-5.1-1.1-10.4-1.5-15.9-1.4c-5.6,0.2-10.9,0.7-15.9,1.6c-15,2.7-29.1,7.6-42.5,14.6
				c-1.9,1-3.7,2.1-5.5,3.3c-0.5,0.3-1,0.6-1.4,0.9c-0.6,0.4-1.1,0.8-1.6,1.4c-0.1,0.1-0.2,0.3-0.2,0.5c0,0.2,0,0.4,0,0.6
				c0,0,0.1,0.2,0.2,0.5c0.2,0.3,0.4,0.7,0.6,1.1c0.3,0.4,0.6,0.8,0.9,1.2c0.3,0.4,0.7,0.6,1,0.8c0.3,0.2,0.7,0.2,1-0.1
				c5.1-4.3,11-8.1,17.8-11.4c6.8-3.3,14.1-6,21.8-8c7.7-2,15.3-3.2,23-3.5c7.6-0.3,14.8,0.4,21.4,2.1c2.1,0.5,4,1.3,5.9,2.3
				C216-10,216-10,216.1-10c1.1,0.6,2.1,1.3,3,2.1c0.9,0.8,1.3,1.9,1.3,3.1c-0.1,1.3-0.5,2.4-1.2,3.5c-1.2,1.7-2.7,3.2-4.3,4.5
				c-3.2,2.5-6.6,4.7-10.3,6.6c-6.6,3.5-13.4,6.8-20.3,9.8c-6.3,2.8-12.6,5.4-18.9,8c-6.4,2.6-12.7,5.1-19.1,7.6
				c-4,1.5-7.9,3.1-11.9,4.7c-0.2,0.1-0.4,0.1-0.6,0.2c-0.2,0-0.4,0-0.6-0.2c-0.3-0.2-0.3-0.6,0-1.1c0.2-0.4,0.5-0.8,0.7-1.2
				c0.8-1.4,1.7-2.7,2.6-4.1c2.5-3.2,5.5-6.9,9.2-11.2c3.7-4.2,7.1-7.9,10.3-11.2c0.8-0.7,1.4-1.3,2-1.8c0.9-0.7,1.3-1.2,1.2-1.5
				c-0.1-0.3-1.1-0.7-2.8-1c-0.7-0.2-1.4-0.3-2-0.3c-0.6,0-1.1,0.1-1.4,0.4c-4.2,4.8-8.6,9.8-13.1,15.2c-4.5,5.4-8.9,11-13.1,16.7
				c-4.2,5.7-8,11.4-11.4,17.1c-0.5,1.1-0.4,2,0.3,2.9c0.1,0.1,0.3,0.2,0.6,0.3c0.3,0.1,0.6,0.1,0.8,0.1c0.3,0,0.5,0,0.5-0.1
				c0.6-1,1.8-2.7,3.6-5.2c1.8-2.4,3.6-4.7,5.4-7c1.9-2.2,3.2-3.5,4-3.8c0.1,0,0.3,0,0.4,0.1c0.2,0.2,0.5,0.4,0.6,0.6
				c0.4,0.5,0.8,0.8,1.4,1c0.5,0.1,1.1,0.1,1.7,0c0.3,0,0.6-0.1,0.8-0.2c4-0.9,8.1-1.7,12.1-2.4c4-0.7,8.1-1.3,12.3-1.7
				c4.6-0.4,9.1-0.5,13.6-0.3c2.2,0.1,4.2,0.5,6.2,1.4c0.7,0.3,1.2,0.8,1.3,1.5c0,0.4-0.2,0.7-0.5,1c-0.3,0.3-0.7,0.5-1.1,0.7
				c-1.4,0.3-2.8,0.6-4.2,0.9c-2.6,0.6-5.2,1.2-7.8,1.8c-11.8,2.8-23.3,6.3-34.6,10.6c-4.4,1.7-8.6,3.6-12.7,5.9
				c-1.7,1-3.3,2.1-4.9,3.3c-0.8,0.7-1.6,1.5-2.3,2.3c-0.6,0.7-0.7,1.5-0.5,2.3c0.6,2.4,2.2,3.8,4.7,4.2c1.6,0.2,3.1,0.3,4.7,0.2
				c1.6,0,3.2-0.2,4.7-0.5c1.5-0.3,3.1-0.6,4.6-1c4.9-1.1,9.7-2.5,14.3-4.2c4.7-1.7,9.2-3.6,13.7-5.6c4.6-2,8.9-4.3,13-7
				c2.1-1.4,4.1-2.8,5.9-4.4c1.9-1.6,3.5-3.3,5-5.3c0.4-0.6,1-1,1.7-1.1c2.7-0.6,5.4-1.4,8.1-2.3c1.3-0.4,2.7-0.8,3.9-1.2
				c0.4-0.1,0.9-0.2,1.3-0.3c-0.6,1-1.3,1.9-1.9,2.9c-1.3,2.1-2.4,4.3-3.2,6.7c-0.5,1.3-0.7,2.6-0.7,4c0,1.1,0.3,2.1,0.9,3.1
				c1,1.6,2.3,2.4,4,2.3c1.3,0,2.5-0.2,3.6-0.6c0.5-0.2,0.9-0.4,1.4-0.6c0.7-0.2,1.4-0.5,2.1-0.8c6.7-3.2,12.8-7.2,18.3-11.9
				c0.1,0,0.1-0.1,0.2-0.1c0.1-0.1,0.2-0.2,0.3-0.2c0,0,0,0,0,0c0.2,1.1,0.8,2,1.6,2.7c0.8,0.7,1.8,1.1,3,1.2c1.5,0.1,3-0.1,4.5-0.6
				c2.3-0.7,4.5-1.6,6.6-2.7c0.7-0.3,1.5-0.6,2.2-0.9c0.1,0,0.1-0.1,0.2-0.1c0,0,0.1,0,0.1,0c0.1,0,0.1,0.1,0.2,0.1
				c0,0,0.1,0.1,0.1,0.1c0,0.1,0.1,0.1,0.1,0.1c-0.1,0.3-0.2,0.7-0.4,1.1c-0.2,0.5-0.4,1.1-0.5,1.7c-0.2,1-0.2,2,0.3,3
				c0.4,1,1.1,1.8,2,2.4c0.6,0.4,1.4,0.7,2.2,0.7c0.6,0,1.2,0,1.8-0.2c0.6-0.2,1.2-0.3,1.7-0.5c0,0,0.1,0,0.1-0.1
				c0.6-0.2,1.7-0.7,3.3-1.5c1.6-0.8,3.4-1.8,5.4-2.9c1.6-0.9,3.1-1.9,4.6-2.8c0,0.2,0,0.4,0.1,0.6c0.6,2.6,2.1,4.4,4.7,5.4
				c0.7,0.3,1.4,0.4,2.2,0.5c0.8,0.1,1.6,0.1,2.4,0.2c0.2,0,0.5,0,0.7,0c5.1-0.6,10.3-2,15.6-4.2c3-1.3,5.8-2.6,8.4-4.1
				c-1.9,2.4-3.7,4.7-5.5,7.1c-0.1,0.2-0.2,0.3-0.3,0.5c0,0.1-0.1,0.1-0.1,0.2c-0.4,0.7-0.2,1.4,0.5,2.3c0.2,0.2,0.5,0.4,0.8,0.4
				c0.3,0.1,0.5,0,0.7-0.2c0.4-0.5,0.9-1,1.3-1.5c1.1-1.3,2.1-2.6,3.1-4c1.9-2.8,4.5-4.8,7.6-6.3c1.3-0.6,2-0.8,2.1-0.6
				c0.2,0.2,0.1,0.9-0.3,2c0,0.1-0.1,0.3-0.2,0.4c-0.5,1.8-0.2,3.5,0.9,5.1c1.3,2.2,3.3,3.3,5.8,3.5c1.9,0.1,4.3-0.1,7.1-0.6
				c2.8-0.5,5.9-1.2,9.3-2c3.5-0.8,7.3-1.6,11.4-2.4c4-0.8,8.3-1.4,12.7-1.8c3.3-0.3,6.6-0.4,10-0.4c0.2,0.3,0.5,0.7,0.8,1
				c1.2,1.4,2.8,2.3,5,2.8c3,0.7,5.9,0.8,8.9,0.5c3.7-0.5,7.3-1.1,10.9-1.9c9.1-2.2,18.1-4.9,26.9-8.1c8.2-3,16.1-6.3,23.9-10
				c6-2.8,11.8-5.8,17.6-9c0,1.9,0.8,3.7,2.3,5.4c1.5,1.7,3.3,2.5,5.3,2.3c1.7-0.2,3.2-0.6,4.6-1.3c0.8-0.4,1.6-0.9,2.4-1.3
				c1-0.5,2-1,3-1.6c0.1,0,0.2,0,0.3,0c0.1,0,0.3,0.1,0.4,0.1c0.1,0,0.1,0.1,0.2,0.2c0,0.1,0.1,0.2,0.1,0.3c0,0.1,0,0.2,0,0.2
				c-0.5,1.1-1.1,2.1-1.6,3.2c-0.5,1-1,2-1.5,3.1c-0.6,1.1-1.4,2-2.4,2.8c-2.5,1.8-4.9,3.7-7.3,5.7c-3.6,2.8-6.8,6-9.7,9.5
				c-1.3,1.7-2.6,3.5-3.8,5.3c-0.1,0.1-0.1,0.2-0.2,0.4c-0.7,1.1-1.2,2.4-1.4,3.8c-0.1,1.4,0.3,2.7,1.4,3.9c0.7,0.7,1.4,1.2,2.2,1.5
				c0.8,0.3,1.5,0.2,2.2-0.1c0.9-0.5,1.7-1,2.5-1.6c1.3-1,2.4-2.1,3.4-3.3c2.2-2.6,4.3-5.3,6.3-8c1.3-1.9,2.6-3.8,3.9-5.7
				c1.3-2,2.4-4,3.5-6c1.2-2.3,2.9-4.2,5.1-5.6c4.7-3.1,9.5-6,14.5-8.8c2.6-1.4,5.3-2.9,7.9-4.3c-0.1,0.4-0.2,0.7-0.2,1.1v0.5
				c0,1.2,0.4,2.4,1.1,3.6c0.5,0.6,1,1.1,1.5,1.4c1.1,0.9,2.7,1.4,4.9,1.4h0.2c1.3,0,2.9-0.2,4.8-0.5c4.3-0.7,10.9-2.1,19.7-3.9
				c14.1-3,25.1-4.5,33-4.5c4.5,0,8.4,0.5,11.8,1.4c0.1-0.1,0.2-0.5,0.2-1.2v-0.4C577.8,22.9,577.6,22.3,577.3,21.7z M513.9,17.8
				c3-1.2,5-1.8,5.9-1.8c0.1,0,0.3,0,0.4,0.1c0,0.2-0.2,0.4-0.5,0.8c-0.4,0.4-1.3,0.9-2.7,1.4c-2.5,0.8-4.2,1.2-5.1,1.2
				c-0.2,0-0.4-0.1-0.4-0.2C511.5,19,512.3,18.5,513.9,17.8z M318.5,26.9c1.5-1.5,3.3-3.2,5.4-5c2.1-1.9,4-3.5,5.7-5
				c1.7-1.4,2.7-2.3,2.9-2.5c1.1-0.9,2.1-1.8,3.3-2.6c1.1-0.8,2.3-1.6,3.6-2.2c0.1-0.1,0.3-0.1,0.4-0.1c0.1,0,0.2,0.1,0.3,0.3
				c0,0,0,0.1,0.1,0.2c0,0,0,0.1,0,0.1c0,0,0,0.1,0,0.1c0,0.1,0,0.1-0.1,0.2c-0.1,0.3-0.2,0.6-0.4,0.9c-0.3,0.4-0.6,0.7-0.9,1.1
				c-0.9,1.2-1.9,2.3-3,3.4c-4.1,4.1-8.8,7.6-14,10.5c-0.1,0-0.3,0.2-0.7,0.5c-0.5,0.3-1.2,0.7-1.9,1.2c-0.7,0.5-1.4,0.9-1.9,1.2
				c-0.6,0.3-0.9,0.5-1,0.4C316.3,29.3,317,28.4,318.5,26.9z M217.7,26c0-0.1,0.1-0.2,0.1-0.3c0.1-0.1,0.2-0.3,0.3-0.4
				c5.6-6,11.8-11.4,18.6-16.1c0.7-0.4,1.4-0.8,2.1-1.2c0.2-0.1,0.5-0.3,0.8-0.4c0,0,0.1,0,0.2,0.1c0.1,0,0.1,0.1,0.2,0.1
				c0.1,0,0.1,0.1,0.2,0.1c0,0.1,0.1,0.1,0.1,0.1c-0.1,0.3-0.2,0.5-0.4,0.7c-6.4,6.6-13.5,12.4-21.3,17.5c-0.1,0.1-0.2,0.1-0.3,0.1
				c0,0-0.1,0-0.1,0C217.5,26.5,217.4,26.4,217.7,26z M175.8,50.2c-0.1,0.1-0.3,0.3-0.5,0.5c-0.8,0.8-1.7,1.5-2.7,2.2
				c-3.1,2.3-6.3,4.3-9.8,6c-9.8,5.1-20.1,9.1-30.8,12c-3,0.8-6.1,1.4-9.2,2c-1,0.2-2,0.3-2.9,0.3c-0.4,0-0.8,0-1.2,0.1
				c-0.2,0-0.5,0-0.7-0.1c-0.5,0-1-0.1-1.5-0.1c-0.4,0-0.6-0.2-0.5-0.5c0,0,0.1-0.1,0.1-0.2c0,0,0-0.1,0-0.1c0-0.1,0-0.1,0-0.1
				c0.1-0.1,0.1-0.1,0.2-0.2c0.3-0.4,0.6-0.7,0.9-1c1.9-1.5,3.9-2.8,6-3.9c4-2.1,8.1-4,12.4-5.6c10.1-3.8,20.4-7.1,30.9-9.7
				c2.3-0.6,4.7-1.2,7.1-1.7c0.7-0.2,1.3-0.3,2-0.5c0,0,0.1,0,0.2,0c0.1,0,0.1,0,0.2,0.1c0,0,0.1,0,0.1,0.1c0,0.1,0.1,0.2,0.1,0.3
				S175.8,50.1,175.8,50.2z M462.9,51.6c-2.5,3.7-5.3,7.2-8.4,10.4c0,0,0,0.1-0.1,0.1c-0.1,0.2-0.3,0.3-0.5,0.4s-0.4,0.1-0.7,0.1
				c-0.1,0-0.1,0-0.2-0.1c-0.1-0.1-0.1-0.1-0.2-0.2c0-0.1,0-0.3,0.1-0.4c0-0.4,0.1-0.7,0.3-1c0.2-0.2,0.4-0.5,0.5-0.7
				c1.4-1.9,2.8-3.8,4.3-5.6c0.9-1.1,1.9-2,2.9-3c0.4-0.4,0.8-0.7,1.2-1.1c0.2-0.2,0.5-0.2,0.7,0.1c0,0,0.1,0,0.1,0.1
				c0,0,0.1,0.1,0.1,0.1c0,0,0,0.1,0,0.1C463.1,51.1,463,51.4,462.9,51.6z"/>
		</g>
	</g>
	<g class="st1">
		<path class="st3" d="M50,326.4H3.1v-31.1h18.6v7.8h19.6v-38.6H21.8v8.1H3.1v-27.8H50v9.9h19.4v-29.4H-39
			c0.8,0.1,31.2,3.4,31.2,29.2c0,24.9-15,26.6-15,26.6s18.8,5.3,18.8,30.2c0,28-26.8,34.4-26.8,34.4H69.5v-29.2H50V326.4z"/>
		<path class="st3" d="M-32.6,258.7c0-12.5-14.2-12.5-14.2-12.5h-33.8V273h33.7C-46.9,273-32.6,272.3-32.6,258.7z"/>
		<path class="st3" d="M-47.5,293.4h-33.1v33h35c0,0,16.1-0.7,16.1-17.1C-29.5,292.8-47.5,293.4-47.5,293.4z"/>
		<path class="st3" d="M59,264.8c0,0-12.4,6.7-12.4,18.3c0,15.5,12.4,20.2,12.4,20.2s12.2-5.2,12.2-20.2
			C71.2,271.6,59,264.8,59,264.8z M69.9,284c0,6.1-4.9,11-11,11s-11-4.9-11-11s4.9-11,11-11S69.9,277.9,69.9,284z"/>
		<circle class="st3" cx="58.8" cy="284.1" r="5.4"/>
	</g>
	<g class="st1">
		<g>
			<path class="st3" d="M213.5,345c-0.2-0.2-0.5-0.4-0.7-0.8c-0.2-0.4-0.5-0.9-0.8-1.8l-4.7-10.8h-0.6l-3.9,9.7
				c-0.4,0.9-0.6,1.5-0.9,2c-0.2,0.4-0.4,0.8-0.7,1.1c-0.3,0.3-0.6,0.6-0.8,0.8c-0.3,0.2-0.6,0.2-1,0.3v0.2h4.8v-0.2
				c-0.4,0-0.8-0.1-1.1-0.3c-0.2-0.1-0.4-0.3-0.5-0.5c-0.1-0.2-0.2-0.5-0.2-0.7c0-0.4,0.2-1,0.5-1.8l0.3-0.6l0.6-1.4h4.7l1,2.4
				l0.2,0.4c0.2,0.5,0.3,0.9,0.3,1.1c0,0.5-0.2,0.8-0.7,1.1c-0.3,0.2-0.7,0.3-1.3,0.3v0.2h7v-0.2c-0.4,0-0.8-0.1-1-0.2
				C213.8,345.2,213.6,345.1,213.5,345z M204,339.6l2.1-5.3l2.3,5.3H204z"/>
		</g>
		<g>
			<path class="st3" d="M258.7,332.5c-0.4-0.3-0.9-0.5-1.5-0.7c-0.5-0.1-1.4-0.2-2.5-0.2h-6.5v0.2h0.1c0.5,0,0.8,0.1,1.1,0.2
				c0.3,0.1,0.5,0.3,0.7,0.6c0.1,0.2,0.2,0.5,0.3,0.8c0.1,0.3,0.1,0.8,0.1,1.4v7.6c0,0.7,0,1.2-0.1,1.6c-0.1,0.3-0.2,0.6-0.5,0.8
				c-0.2,0.2-0.4,0.3-0.7,0.4c-0.3,0.1-0.6,0.1-1,0.2v0.2h6.8v-0.2c-0.4,0-0.7-0.1-1-0.2c-0.3-0.1-0.5-0.2-0.7-0.4
				c-0.2-0.2-0.4-0.5-0.5-0.8c-0.1-0.3-0.1-0.9-0.1-1.6v-3.7h2.1c0.9,0,1.5,0,1.8,0c0.8-0.1,1.4-0.2,2-0.5c1-0.6,1.5-1.5,1.5-2.8
				C260.2,334.2,259.7,333.2,258.7,332.5z M256.6,337.7c-0.3,0.3-0.6,0.5-1,0.6c-0.4,0.1-0.9,0.1-1.6,0.1h-1.1V332h0.9
				c0.6,0,1,0,1.1,0c0.6,0.1,1.1,0.3,1.6,0.6c0.4,0.3,0.7,0.7,0.9,1.1c0.2,0.5,0.3,1,0.3,1.5C257.6,336.3,257.3,337.1,256.6,337.7z"
				/>
		</g>
		<g>
			<path class="st3" d="M304.3,332.5c-0.4-0.3-0.9-0.5-1.5-0.7c-0.5-0.1-1.4-0.2-2.5-0.2h-6.5v0.2h0.1c0.5,0,0.8,0.1,1.1,0.2
				c0.3,0.1,0.5,0.3,0.7,0.6c0.1,0.2,0.2,0.5,0.3,0.8c0.1,0.3,0.1,0.8,0.1,1.4v7.6c0,0.7,0,1.2-0.1,1.6c-0.1,0.3-0.2,0.6-0.5,0.8
				c-0.2,0.2-0.4,0.3-0.7,0.4c-0.3,0.1-0.6,0.1-1,0.2v0.2h6.8v-0.2c-0.4,0-0.7-0.1-1-0.2c-0.3-0.1-0.5-0.2-0.7-0.4
				c-0.2-0.2-0.4-0.5-0.5-0.8c-0.1-0.3-0.1-0.9-0.1-1.6v-3.7h2.1c0.9,0,1.5,0,1.8,0c0.8-0.1,1.4-0.2,2-0.5c1-0.6,1.5-1.5,1.5-2.8
				C305.8,334.2,305.3,333.2,304.3,332.5z M302.2,337.7c-0.3,0.3-0.6,0.5-1,0.6c-0.4,0.1-0.9,0.1-1.6,0.1h-1.1V332h0.9
				c0.6,0,1,0,1.1,0c0.6,0.1,1.1,0.3,1.6,0.6c0.4,0.3,0.7,0.7,0.9,1.1c0.2,0.5,0.3,1,0.3,1.5C303.3,336.3,302.9,337.1,302.2,337.7z"
				/>
		</g>
		<g>
			<path class="st3" d="M352.8,345c-0.2-0.2-0.5-0.4-0.7-0.8c-0.2-0.4-0.5-0.9-0.8-1.8l-4.7-10.8h-0.6l-3.9,9.7
				c-0.4,0.9-0.6,1.5-0.9,2c-0.2,0.4-0.4,0.8-0.7,1.1c-0.3,0.3-0.6,0.6-0.8,0.8c-0.3,0.2-0.6,0.2-1,0.3v0.2h4.8v-0.2
				c-0.4,0-0.8-0.1-1.1-0.3c-0.2-0.1-0.4-0.3-0.5-0.5c-0.1-0.2-0.2-0.5-0.2-0.7c0-0.4,0.2-1,0.5-1.8l0.3-0.6l0.6-1.4h4.7l1,2.4
				l0.2,0.4c0.2,0.5,0.3,0.9,0.3,1.1c0,0.5-0.2,0.8-0.7,1.1c-0.3,0.2-0.7,0.3-1.3,0.3v0.2h7v-0.2c-0.4,0-0.8-0.1-1-0.2
				C353.2,345.2,353,345.1,352.8,345z M343.3,339.6l2.1-5.3l2.3,5.3H343.3z"/>
		</g>
		<g>
			<path class="st3" d="M400.3,344.8c-0.2-0.3-0.5-0.7-0.8-1.3c-0.3-0.6-0.8-1.5-1.4-2.8c-0.3-0.5-0.5-0.9-0.6-1.1
				c-0.1-0.2-0.3-0.4-0.5-0.5c-0.2-0.2-0.5-0.4-1-0.5c0.5-0.1,0.9-0.2,1.2-0.4c0.3-0.1,0.6-0.3,0.9-0.5c0.8-0.6,1.3-1.5,1.3-2.6
				c0-0.7-0.2-1.4-0.6-1.9c-0.4-0.5-0.9-1-1.6-1.2c-0.6-0.2-1.5-0.4-2.6-0.4c-0.3,0-0.8,0-1.7,0h-5.2v0.2c0.4,0,0.7,0.1,1,0.2
				c0.3,0.1,0.5,0.2,0.7,0.4c0.2,0.2,0.4,0.5,0.5,0.8c0.1,0.3,0.1,0.9,0.1,1.6v7.6c0,0.7,0,1.2-0.1,1.6c-0.1,0.3-0.2,0.6-0.5,0.8
				c-0.2,0.2-0.4,0.3-0.7,0.4c-0.3,0.1-0.6,0.1-1,0.2v0.2h6.8v-0.2c-0.4,0-0.7-0.1-1-0.2c-0.3-0.1-0.5-0.2-0.7-0.4
				c-0.2-0.2-0.4-0.5-0.5-0.8c-0.1-0.3-0.1-0.9-0.1-1.6v-3.6h0.5c0.3,0,0.6,0,0.8,0.1c0.2,0.1,0.4,0.2,0.6,0.3
				c0.4,0.3,0.8,0.8,1.3,1.5c0.5,0.8,0.9,1.6,1.4,2.6l0.7,1.6c0.1,0.1,0.2,0.3,0.3,0.7h3.6v-0.2c-0.3,0-0.5-0.1-0.7-0.2
				C400.6,345.2,400.4,345.1,400.3,344.8z M394.6,338.4c-0.4,0.1-1,0.1-1.9,0.1h-0.4V332h0.4c0.8,0,1.4,0,1.8,0.1
				c0.4,0.1,0.8,0.3,1.1,0.5c0.4,0.3,0.7,0.7,0.9,1.2c0.2,0.5,0.3,1,0.3,1.5c0,1-0.4,1.9-1.1,2.6
				C395.3,338.1,394.9,338.3,394.6,338.4z"/>
		</g>
		<g>
			<path class="st3" d="M447,343.1c-0.2,0.4-0.4,0.7-0.6,1c-0.4,0.4-0.8,0.8-1.4,1c-0.6,0.2-1.3,0.3-2.2,0.3c-0.8,0-1.5-0.1-2-0.3
				c-0.5-0.2-0.9-0.6-1.1-1.1c-0.1-0.3-0.2-0.6-0.3-1.1c-0.1-0.4-0.1-1.1-0.1-2.1v-2.4h0.6c0.5,0,1,0.1,1.3,0.2
				c0.3,0.1,0.6,0.3,0.8,0.5c0.2,0.2,0.4,0.5,0.5,0.8c0.1,0.3,0.2,0.7,0.3,1.3h0.2l0-5.5l-0.2,0c-0.1,0.5-0.1,0.9-0.2,1.2
				c-0.1,0.3-0.2,0.5-0.4,0.7c-0.2,0.2-0.5,0.4-0.8,0.4c-0.3,0.1-0.8,0.1-1.5,0.1h-0.6V332h2.5c0.8,0,1.4,0,1.8,0.1
				c0.5,0.1,0.9,0.3,1.2,0.5c0.4,0.3,0.7,0.6,0.9,1c0.2,0.4,0.4,0.9,0.5,1.4l0.2,0l-0.2-3.4h-11.5v0.2c0.4,0,0.7,0.1,1,0.2
				c0.3,0.1,0.5,0.2,0.7,0.4c0.2,0.2,0.4,0.5,0.5,0.8c0.1,0.3,0.1,0.9,0.1,1.6v7.6c0,0.7,0,1.2-0.1,1.6c-0.1,0.3-0.2,0.6-0.5,0.8
				c-0.2,0.2-0.4,0.3-0.7,0.4c-0.3,0.1-0.6,0.1-1,0.2v0.2h12.8l0.1-4.1l-0.2,0C447.3,342.2,447.2,342.7,447,343.1z"/>
		</g>
		<g>
			<path class="st3" d="M493.6,343c-0.2,0.4-0.4,0.7-0.6,1.1c-0.4,0.5-0.8,0.8-1.4,1c-0.6,0.2-1.3,0.3-2.1,0.3c-0.8,0-1.5-0.1-2-0.3
				c-0.5-0.2-0.9-0.6-1.1-1.1c-0.1-0.3-0.2-0.6-0.3-1.1c-0.1-0.4-0.1-1.1-0.1-2v-5.9c0-0.7,0-1.3,0.1-1.6c0.1-0.3,0.3-0.6,0.5-0.9
				c0.2-0.2,0.4-0.3,0.7-0.4s0.6-0.1,1-0.2v-0.2h-6.8v0.2c0.4,0,0.7,0.1,0.9,0.1c0.2,0.1,0.5,0.2,0.7,0.4c0.2,0.2,0.4,0.5,0.5,0.8
				c0.1,0.3,0.1,0.9,0.1,1.6v7.6c0,0.7,0,1.2-0.1,1.6c-0.1,0.3-0.2,0.6-0.5,0.8c-0.4,0.4-1,0.6-1.7,0.6v0.2h12.8l0.1-4.2l-0.3,0
				C493.9,342.1,493.8,342.6,493.6,343z"/>
		</g>
		<g>
			<path class="st3" d="M577.3,273.7c-1.3-2.1-4.8-3.1-10.5-3.1c-4.7,0-11,0.7-18.9,2.1c-7.6,1.4-14.9,3-22,4.8
				c-9.1,2.4-15.3,3.7-18.8,3.7h-0.5c-0.7,0-1.3-0.1-1.9-0.2c-0.8-0.2-1.2-0.7-1.2-1.3v-0.2c0-0.1,0.1-0.4,0.3-0.9
				c0.3-0.8,1.1-1.9,2.3-3.2c0.7-0.7,1.3-1.2,1.7-1.4c0.6-0.4,0.9-0.7,1-0.7h0.2c0.7,0.4,1.5,0.6,2.6,0.6c0.5,0,1.3-0.1,2.5-0.2
				c1.5-0.3,2.7-0.6,3.7-1c3.8-1.4,5.7-2.9,5.7-4.4v-0.2c0-0.6-0.4-1.3-1.2-2.1c-0.6-0.5-1.1-0.9-1.6-1.1c-0.3-0.1-0.8-0.2-1.3-0.3
				c-2.1,0-4.5,0.6-7.4,1.9c-1.7,0.7-3.2,1.6-4.6,2.6c-0.6,0.3-1.7,1.3-3.5,2.9c-0.6,0.1-1.3,0.3-2.2,0.7c-2.1,0.8-4.5,1.8-7.1,3.1
				c-2.7,1.3-5.1,2.6-7.2,3.7c-2.2,1.2-3.6,2-4.3,2.3c-0.2,0.1-0.5,0.2-0.9,0.3c-0.4,0.1-0.7,0.1-0.9,0.1s-0.4-0.1-0.5-0.3
				c0-0.2-0.1-0.4-0.1-0.6c0-0.2,0-0.3,0.1-0.5c0.5-1.1,0.9-2.1,1.4-3.1c0.3-0.6,0.6-1.3,0.9-1.9c0.1-0.1,0.1-0.3,0.2-0.5
				c0.5-1,0.9-1.9,1.3-2.9c0.4-1.2-0.2-2.3-1.5-3.4c-0.8-0.6-1.5-0.7-2-0.3c-0.9,0.8-1.7,1.7-2.5,2.6c-3.2,3.3-6.9,6-11.1,8.1
				c-1.5,0.8-3.3,1.4-5.2,1.7c-0.3,0-0.7-0.1-1-0.4c-0.4-0.3-0.6-0.6-0.6-0.9c0.1-1.2,0.5-2.2,1.1-3.1c0.6-0.9,1.3-1.7,2.1-2.5
				c0.5-0.5,1-1,1.4-1.5s0.7-1,1-1.6c0.1-0.3,0-0.7-0.4-1.1c-0.4-0.4-0.8-0.8-1.2-1.1c-0.2-0.1-0.6,0-1.1,0.2
				c-0.5,0.2-1.1,0.5-1.6,0.8c-0.5,0.3-0.9,0.5-1,0.6c-0.2,0.2-0.5,0.5-0.7,0.7c-0.1,0.1-0.2,0.2-0.3,0.4c0,0,0,0-0.1,0
				c-0.1,0.1-0.3,0.2-0.4,0.3c-15.9,8.6-32.6,15.8-49.8,21.5c-4.2,1.4-8.4,2.7-12.6,3.9c-4.2,1.2-8.5,2.3-12.8,3.2
				c-1.7,0.4-3.5,0.7-5.3,0.9c-1.8,0.3-3.5,0.4-5.3,0.3c-0.4,0-0.8,0-1.2,0c-0.9,0-1.8,0-2.7,0c-0.9-0.1-1.7-0.2-2.6-0.5
				c-0.2-1.1-1-2-2.1-2.7c0.2-1.4,0.6-2.8,1.2-4.2c0.8-1.5,1.7-2.9,2.7-4.2c1-1.3,2.1-2.6,3.3-3.7c4.3-4.6,9.1-8.7,14.3-12.4
				c4.9-3.6,10.1-6.9,15.4-9.9s10.8-5.8,16.4-8.4c1.6-0.7,3.2-1.1,4.9-1.4c0.6-0.1,1.1-0.1,1.7-0.2c2.1-0.2,4.2-0.6,6.3-1.1
				c0.4-0.1,0.7-0.2,1-0.3c1.5-0.3,2.9-0.8,4.2-1.5c0.4-0.2,0.6-0.6,0.7-0.9c0.1-0.4,0.1-0.8-0.1-1.2c-0.4-0.7-0.9-1.3-1.6-1.8
				c-0.7-0.4-1.4-0.6-2.1-0.5c-1.7,0.2-3.4,0.6-5,1c-1.4,0.4-2.8,0.9-4.2,1.4c-1,0.3-2,0.7-3,1c-0.1,0-0.3,0.1-0.4,0.1
				c-1,0.4-1.9,0.6-2.9,0.7c-1.6,0.1-3.3,0-4.9-0.1c-1.6-0.2-3.2-0.5-4.8-1c-0.5-0.2-1-0.4-1.5-0.7c-2.2-1.2-3.1-2.9-2.5-5.1
				c0.4-1.4,0.9-2.6,1.6-3.8c1.5-2.2,3.3-4.1,5.4-5.8c6.2-4.9,13.1-8.2,20.9-9.9c1.6-0.3,3.2-0.6,4.8-0.8c1.6-0.2,3.3-0.3,4.9-0.2
				c1.3,0.1,2.5,0.2,3.8,0.5c1.2,0.3,2.4,0.8,3.5,1.5c0.2,0.2,0.5,0.3,0.8,0.3c0.1,0,0.2,0,0.3-0.1s0.3-0.1,0.4-0.2
				c0-0.1,0-0.2,0-0.2c0-0.1,0-0.1,0-0.1c-0.1-0.1-0.2-0.3-0.3-0.5c-0.2-0.4-0.5-0.8-0.8-1.2c-1.1-1-2.2-1.8-3.6-2.3
				c-1.3-0.5-2.7-0.8-4.1-0.9c-2.4-0.2-4.9-0.2-7.3,0.1c-8.7,1-16.5,3.9-23.6,8.9c-2.1,1.4-4,3.1-5.7,4.9c-1.3,1.4-2.4,3-3.2,4.8
				c-1.1,2.5-1.1,5.1,0,7.6c1.1,2.7,3,4.6,5.7,5.9c0.5,0.2,0.9,0.4,1.3,0.6c0.6,0.2,1.2,0.5,1.8,0.8c0,0,0.1,0.1,0.1,0.1
				c0,0,0.1,0.1,0.1,0.1c0,0,0.1,0.1,0.1,0.1c0,0.1-0.1,0.2-0.1,0.3s-0.1,0.2-0.2,0.2c-1.1,0.6-2.2,1.1-3.3,1.7
				c-1.1,0.5-2.1,1.1-3.1,1.6c-4.7,2.4-9.2,5-13.6,7.8c-4.4,2.8-8.6,5.8-12.6,9.1c-2,1.7-4,3.4-5.8,5.1c-1.9,1.8-3.6,3.7-5.3,5.7
				c-1.9,2.2-3.5,4.7-4.6,7.4c-0.5,1.2-0.6,2.6-0.4,4.1c-0.9-0.2-1.9-0.4-3.1-0.5c-2.3-0.2-4.9-0.2-7.7,0.2
				c-3.1,0.4-6.4,1.1-9.9,1.9c-3.4,0.8-6.9,1.6-10.3,2.5c-4,1.1-7.7,2-11.2,2.7c-3.4,0.7-6.3,1.1-8.6,1.1c-0.1,0-0.1,0-0.2,0
				c-0.2,0-0.5-0.1-0.8-0.1c-1.2-0.2-1.8-1-1.6-2.2c0.2-1.2,0.8-2.6,1.8-4.2c1-1.6,2.1-3,3.4-4.3c1.2-1.3,2.3-2.2,3.2-2.6
				c1.5-0.6,3-1.2,4.5-1.8c1-0.4,2.1-0.8,3.1-1.3c0.5-0.2,1-0.4,1.4-0.8c0.1-0.1,0.1-0.2,0.1-0.3c0-0.2,0-0.3,0-0.4
				c-0.6-1.3-1.6-1.8-2.8-1.4c-3.6,1-7.1,2.2-10.4,3.6c-0.8,0.3-1.6,0.6-2.4,0.9c-0.1,0-0.2,0.1-0.3,0.1c0,0-0.1,0-0.2-0.1
				c-0.1,0-0.2-0.1-0.2-0.2c-0.4-0.3-0.3-0.8,0.2-1.3c0.5-0.5,1.3-1.1,2.2-1.6c1-0.5,2-1.1,3-1.5c1-0.5,1.9-0.8,2.5-1.1
				c0.4-0.2,0.7-0.3,0.8-0.4c4.1-2.1,8-4.5,11.7-7.1c2.8-1.9,5.3-4,7.7-6.3c2-1.8,3.7-3.8,5.1-6.1c0.4-0.6,0.8-1.4,1-2.1
				c0.5-1.9-0.1-3.5-1.9-4.8c-1-0.7-2.1-1-3.2-0.6c-1.3,0.4-2.6,1-3.7,1.7c-0.5,0.3-1,0.7-1.4,1c-1.8,1.3-3.6,2.6-5.3,4
				c-2.2,1.9-4.4,3.9-6.5,6c-5.7,5.7-11.2,11.6-16.3,17.8c-1.8,2.1-3.5,4.3-5.2,6.4c-1.2,0.6-2.4,1.2-3.8,1.8
				c-3.1,1.5-6.4,3-9.9,4.5c-3.5,1.5-7,2.6-10.5,3.4c-3.5,0.7-6.9,0.8-10,0.1c-1.2-0.3-1.6-1-1.2-2.1c0.5-1.5,1.3-2.8,2.4-3.8
				c2.2-2.3,4.5-4.2,7.1-5.9c2.6-1.6,5.4-2.9,8.6-3.7c1.9-0.5,3.9-0.6,5.9-0.3c0.2,0,0.4,0.1,0.7,0.1c0.2,0.1,0.4,0.1,0.5,0.2
				c0.1,0,0.2-0.1,0.3-0.2c0.1-0.1,0.2-0.3,0.2-0.4c0.1-0.2,0.1-0.3,0-0.4c0-0.1-0.1-0.1-0.1-0.2c-0.1-0.3-0.3-0.6-0.5-0.8
				c-0.9-1-2-1.5-3.3-1.6c-2-0.2-4-0.1-5.9,0.3c-3.3,0.8-6.3,2.1-9,3.8c-2.7,1.7-5.2,3.7-7.4,6.1c-0.5,0.5-0.9,1.1-1.3,1.7
				c-0.4,0.3-0.8,0.6-1.3,1c-1.8,1.3-4.1,2.6-7,4c-2.9,1.4-6.4,2.6-10.5,3.6c-0.2,0-0.4,0-0.5-0.2c-0.1-0.1-0.2-0.3-0.2-0.5
				c0.1-0.6,0.4-1.2,0.7-1.8c0.3-0.6,0.7-1.1,1.1-1.6c0-0.1,0-0.1,0.1-0.2c2.3-3.4,4.9-6.5,7.8-9.3c0.1-0.2,0.3-0.3,0.4-0.5
				c0.4-0.3,0.8-0.7,1.2-1.1c0.3-0.4,0.4-0.9,0.1-1.4c-0.2-0.7-0.7-1.2-1.3-1.7c-0.2-0.2-0.5-0.3-0.7-0.3c-0.3,0-0.5,0.1-0.7,0.2
				c-0.5,0.4-1,0.8-1.4,1.2c-2.7,2.4-5.6,4.5-8.6,6.3c-3,1.8-6.2,3.4-9.5,4.8c-1.5,0.6-3,1.1-4.6,1.5c-0.1,0-0.4,0.1-0.7,0.1
				c-0.3,0-0.7,0-1.1,0c-0.4,0-0.7-0.1-0.9-0.2s-0.3-0.3-0.2-0.6c1-1.8,2.4-3.3,4-4.6c1.6-1.3,3.5-2.3,5.4-3.2c2-0.8,4-1.5,5.9-2.1
				c1.3-0.3,2.4-0.5,3.2-0.5c0.8,0,1.5,0,2.1,0.1c0.6,0.1,1.2,0.2,1.9,0.2c0.1-0.1,0.3-0.3,0.4-0.6c0.1-0.3,0.1-0.7,0-1.1
				c-0.1-0.4-0.5-0.8-1-1.2c-1-0.7-2-1.1-3.2-1.3c-1.1-0.2-2.3-0.2-3.5,0.1c-3.1,0.5-6,1.5-8.6,3c-2.6,1.5-5,3.3-7.1,5.7
				c-0.3,0.3-0.5,0.6-0.8,1c-3.3,2.5-6.5,4.7-9.8,6.8c-3.5,2.3-7.4,4.4-11.6,6.3c-1.7,0.8-3.4,1.5-5.1,2c-0.6,0.2-1.2,0.2-1.9,0.1
				c-0.1,0-0.2,0-0.3,0c-0.1,0-0.2-0.1-0.3-0.2c-0.1-0.1-0.2-0.2-0.2-0.4c-0.1-0.5,0-1.1,0.1-1.6c0.7-2.4,1.7-4.7,3-6.8
				c2.2-3.5,4.5-6.9,7.1-10.2c0.7-0.9,1.5-1.6,2.4-2.2c4.8-3.2,9.6-6.4,14.4-9.6c7-4.8,13.5-10.1,19.5-16c1.8-1.7,3.5-3.6,5-5.7
				c1.1-1.6,0.9-3.1-0.5-4.5c-0.7-0.8-1.6-1-2.7-0.7c-1.6,0.5-3.2,1.2-4.7,2c-4,2.3-7.8,5-11.3,8c-4,3.3-7.8,6.8-11.4,10.5
				c-3.6,3.7-7.1,7.5-10.3,11.5c-0.2,0.3-0.4,0.5-0.6,0.8c-0.7,1-1.5,1.8-2.4,2.5c-0.2,0.1-0.3,0.3-0.5,0.4s-0.3,0.3-0.3,0.5
				c-0.3,1-0.8,1.9-1.4,2.6c-0.2,0.3-0.4,0.6-0.6,0.9c-0.1,0.1-0.2,0.3-0.3,0.4c-0.8,0-1.6,0.1-2.6,0.2c-1.1,0.2-2,0.3-2.8,0.4
				c-0.2,0-0.5,0.1-0.7,0.1c-0.2,0-0.5,0.1-0.7,0.1c-2.3,0.3-4.6,0.7-6.8,1.1c-0.6,0.1-1,0.1-1.4-0.1c-0.4-0.2-0.7-0.5-1-1
				c-0.6-1.3-1.5-2.3-2.6-3c-1.1-0.7-2.3-1.3-3.6-1.7c-1.8-0.5-3.6-0.8-5.5-0.9c-2.7-0.2-5.4-0.2-8.1-0.2s-5.4,0.3-8.1,0.6
				c-0.6,0.1-1.3,0.2-1.9,0.2c-0.2,0-0.4,0-0.6,0c0,0-0.1,0-0.1,0c0,0-0.1,0-0.2-0.1c0,0-0.1-0.1-0.1-0.1c0,0,0.1-0.1,0.1-0.1
				c0-0.1,0-0.1,0.1-0.2c0,0,0.1-0.1,0.1-0.1c0.7-0.4,1.5-0.7,2.3-1.1c2.3-1,4.7-1.9,7-2.9c3-1.2,6.1-2.5,9.2-3.7
				c8.9-3.6,17.7-7.5,26.4-11.6c2.5-1.2,4.9-2.4,7.4-3.6c2.5-1.3,4.9-2.6,7.2-4.1c2.5-1.5,4.9-3.3,7.1-5.3c1.6-1.4,2.8-3.1,3.6-5
				c0.5-1.5,0.6-2.9,0.2-4.4c-0.6-1.9-1.6-3.5-3-4.9c-1.5-1.5-3.2-2.7-5.1-3.6c-1.5-0.8-3.1-1.4-4.7-2c-1.6-0.5-3.3-1-5-1.3
				c-5.1-1.1-10.4-1.5-15.9-1.4c-5.6,0.2-10.9,0.7-15.9,1.6c-15,2.7-29.1,7.6-42.5,14.6c-1.9,1-3.7,2.1-5.5,3.3
				c-0.5,0.3-1,0.6-1.4,0.9c-0.6,0.4-1.1,0.8-1.6,1.4c-0.1,0.1-0.2,0.3-0.2,0.5c0,0.2,0,0.4,0,0.6c0,0,0.1,0.2,0.2,0.5
				s0.4,0.7,0.6,1.1c0.3,0.4,0.6,0.8,0.9,1.2c0.3,0.4,0.7,0.6,1,0.8c0.3,0.2,0.7,0.2,1-0.1c5.1-4.3,11-8.1,17.8-11.4
				c6.8-3.3,14.1-6,21.8-8c7.7-2,15.3-3.2,23-3.5c7.6-0.3,14.8,0.4,21.4,2.1c2.1,0.5,4,1.3,5.9,2.3c0.1,0.1,0.2,0.1,0.3,0.2
				c1.1,0.6,2.1,1.3,3,2.1c0.9,0.8,1.3,1.9,1.3,3.1c-0.1,1.3-0.5,2.4-1.2,3.5c-1.2,1.7-2.7,3.2-4.3,4.5c-3.2,2.5-6.6,4.7-10.3,6.6
				c-6.6,3.5-13.4,6.8-20.3,9.8c-6.3,2.8-12.6,5.4-18.9,8c-6.4,2.6-12.7,5.1-19.1,7.6c-4,1.5-7.9,3.1-11.9,4.7
				c-0.2,0.1-0.4,0.1-0.6,0.2c-0.2,0-0.4,0-0.6-0.2c-0.3-0.2-0.3-0.6,0-1.1c0.2-0.4,0.5-0.8,0.7-1.2c0.8-1.4,1.7-2.7,2.6-4.1
				c2.5-3.2,5.5-6.9,9.2-11.2c3.7-4.2,7.1-7.9,10.3-11.2c0.8-0.7,1.4-1.3,2-1.8c0.9-0.7,1.3-1.2,1.2-1.5c-0.1-0.3-1.1-0.7-2.8-1
				c-0.7-0.2-1.4-0.3-2-0.3c-0.6,0-1.1,0.1-1.4,0.4c-4.2,4.8-8.6,9.8-13.1,15.2c-4.5,5.4-8.9,11-13.1,16.7
				c-4.2,5.7-8,11.4-11.4,17.1c-0.5,1.1-0.4,2,0.3,2.9c0.1,0.1,0.3,0.2,0.6,0.3c0.3,0.1,0.6,0.1,0.8,0.1c0.3,0,0.5,0,0.5-0.1
				c0.6-1,1.8-2.7,3.6-5.2c1.8-2.4,3.6-4.7,5.4-7c1.9-2.2,3.2-3.5,4-3.8c0.1,0,0.3,0,0.4,0.1c0.2,0.2,0.5,0.4,0.6,0.6
				c0.4,0.5,0.8,0.8,1.4,1c0.5,0.1,1.1,0.1,1.7,0c0.3,0,0.6-0.1,0.8-0.2c4-0.9,8.1-1.7,12.1-2.4c4-0.7,8.1-1.3,12.3-1.7
				c4.6-0.4,9.1-0.5,13.6-0.3c2.2,0.1,4.2,0.5,6.2,1.4c0.7,0.3,1.2,0.8,1.3,1.5c0,0.4-0.2,0.7-0.5,1c-0.3,0.3-0.7,0.5-1.1,0.7
				c-1.4,0.3-2.8,0.6-4.2,0.9c-2.6,0.6-5.2,1.2-7.8,1.8c-11.8,2.8-23.3,6.3-34.6,10.6c-4.4,1.7-8.6,3.6-12.7,5.9
				c-1.7,1-3.3,2.1-4.9,3.3c-0.8,0.7-1.6,1.5-2.3,2.3c-0.6,0.7-0.7,1.5-0.5,2.3c0.6,2.4,2.2,3.8,4.7,4.2c1.6,0.2,3.1,0.3,4.7,0.2
				c1.6,0,3.2-0.2,4.7-0.5c1.5-0.3,3.1-0.6,4.6-1c4.9-1.1,9.7-2.5,14.3-4.2c4.7-1.7,9.2-3.6,13.7-5.6c4.6-2,8.9-4.3,13-7
				c2.1-1.4,4.1-2.8,5.9-4.4c1.9-1.6,3.5-3.3,5-5.3c0.4-0.6,1-1,1.7-1.1c2.7-0.6,5.4-1.4,8.1-2.3c1.3-0.4,2.7-0.8,3.9-1.2
				c0.4-0.1,0.9-0.2,1.3-0.3c-0.6,1-1.3,1.9-1.9,2.9c-1.3,2.1-2.4,4.3-3.2,6.7c-0.5,1.3-0.7,2.6-0.7,4c0,1.1,0.3,2.1,0.9,3.1
				c1,1.6,2.3,2.4,4,2.3c1.3,0,2.5-0.2,3.6-0.6c0.5-0.2,0.9-0.4,1.4-0.6c0.7-0.2,1.4-0.5,2.1-0.8c6.7-3.2,12.8-7.2,18.3-11.9
				c0.1,0,0.1-0.1,0.2-0.1c0.1-0.1,0.2-0.2,0.3-0.2c0,0,0,0,0,0c0.2,1.1,0.8,2,1.6,2.7c0.8,0.7,1.8,1.1,3,1.2c1.5,0.1,3-0.1,4.5-0.6
				c2.3-0.7,4.5-1.6,6.6-2.7c0.7-0.3,1.5-0.6,2.2-0.9c0.1,0,0.1-0.1,0.2-0.1c0,0,0.1,0,0.1,0c0.1,0,0.1,0.1,0.2,0.1
				c0,0,0.1,0.1,0.1,0.1c0,0.1,0.1,0.1,0.1,0.1c-0.1,0.3-0.2,0.7-0.4,1.1c-0.2,0.5-0.4,1.1-0.5,1.7c-0.2,1-0.2,2,0.3,3
				c0.4,1,1.1,1.8,2,2.4c0.6,0.4,1.4,0.7,2.2,0.7c0.6,0,1.2,0,1.8-0.2c0.6-0.2,1.2-0.3,1.7-0.5c0,0,0.1,0,0.1-0.1
				c0.6-0.2,1.7-0.7,3.3-1.5c1.6-0.8,3.4-1.8,5.4-2.9c1.6-0.9,3.1-1.9,4.6-2.8c0,0.2,0,0.4,0.1,0.6c0.6,2.6,2.1,4.4,4.7,5.4
				c0.7,0.3,1.4,0.4,2.2,0.5c0.8,0.1,1.6,0.1,2.4,0.2c0.2,0,0.5,0,0.7,0c5.1-0.6,10.3-2,15.6-4.2c3-1.3,5.8-2.6,8.4-4.1
				c-1.9,2.4-3.7,4.7-5.5,7.1c-0.1,0.2-0.2,0.3-0.3,0.5c0,0.1-0.1,0.1-0.1,0.2c-0.4,0.7-0.2,1.4,0.5,2.3c0.2,0.2,0.5,0.4,0.8,0.4
				c0.3,0.1,0.5,0,0.7-0.2c0.4-0.5,0.9-1,1.3-1.5c1.1-1.3,2.1-2.6,3.1-4c1.9-2.8,4.5-4.8,7.6-6.3c1.3-0.6,2-0.8,2.1-0.6
				c0.2,0.2,0.1,0.9-0.3,2c0,0.1-0.1,0.3-0.2,0.4c-0.5,1.8-0.2,3.5,0.9,5.1c1.3,2.2,3.3,3.3,5.8,3.5c1.9,0.1,4.3-0.1,7.1-0.6
				c2.8-0.5,5.9-1.2,9.3-2c3.5-0.8,7.3-1.6,11.4-2.4c4-0.8,8.3-1.4,12.7-1.8c3.3-0.3,6.6-0.4,10-0.4c0.2,0.3,0.5,0.7,0.8,1
				c1.2,1.4,2.8,2.3,5,2.8c3,0.7,5.9,0.8,8.9,0.5c3.7-0.5,7.3-1.1,10.9-1.9c9.1-2.2,18.1-4.9,26.9-8.1c8.2-3,16.1-6.3,23.9-10
				c6-2.8,11.8-5.8,17.6-9c0,1.9,0.8,3.7,2.3,5.4c1.5,1.7,3.3,2.5,5.3,2.3c1.7-0.2,3.2-0.6,4.6-1.3c0.8-0.4,1.6-0.9,2.4-1.3
				c1-0.5,2-1,3-1.6c0.1,0,0.2,0,0.3,0c0.1,0,0.3,0.1,0.4,0.1c0.1,0,0.1,0.1,0.2,0.2c0,0.1,0.1,0.2,0.1,0.3c0,0.1,0,0.2,0,0.2
				c-0.5,1.1-1.1,2.1-1.6,3.2c-0.5,1-1,2-1.5,3.1c-0.6,1.1-1.4,2-2.4,2.8c-2.5,1.8-4.9,3.7-7.3,5.7c-3.6,2.8-6.8,6-9.7,9.5
				c-1.3,1.7-2.6,3.5-3.8,5.3c-0.1,0.1-0.1,0.2-0.2,0.4c-0.7,1.1-1.2,2.4-1.4,3.8c-0.1,1.4,0.3,2.7,1.4,3.9c0.7,0.7,1.4,1.2,2.2,1.5
				c0.8,0.3,1.5,0.2,2.2-0.1c0.9-0.5,1.7-1,2.5-1.6c1.3-1,2.4-2.1,3.4-3.3c2.2-2.6,4.3-5.3,6.3-8c1.3-1.9,2.6-3.8,3.9-5.7
				c1.3-2,2.4-4,3.5-6c1.2-2.3,2.9-4.2,5.1-5.6c4.7-3.1,9.5-6,14.5-8.8c2.6-1.4,5.3-2.9,7.9-4.3c-0.1,0.4-0.2,0.7-0.2,1.1v0.5
				c0,1.2,0.4,2.4,1.1,3.6c0.5,0.6,1,1.1,1.5,1.4c1.1,0.9,2.7,1.4,4.9,1.4h0.2c1.3,0,2.9-0.2,4.8-0.5c4.3-0.7,10.9-2.1,19.7-3.9
				c14.1-3,25.1-4.5,33-4.5c4.5,0,8.4,0.5,11.8,1.4c0.1-0.1,0.2-0.5,0.2-1.2v-0.4C577.8,274.9,577.6,274.3,577.3,273.7z
				 M513.9,269.8c3-1.2,5-1.8,5.9-1.8c0.1,0,0.3,0,0.4,0.1c0,0.2-0.2,0.4-0.5,0.8c-0.4,0.4-1.3,0.9-2.7,1.4
				c-2.5,0.8-4.2,1.2-5.1,1.2c-0.2,0-0.4-0.1-0.4-0.2C511.5,271,512.3,270.5,513.9,269.8z M318.5,278.9c1.5-1.5,3.3-3.2,5.4-5
				c2.1-1.9,4-3.5,5.7-5c1.7-1.4,2.7-2.3,2.9-2.5c1.1-0.9,2.1-1.8,3.3-2.6c1.1-0.8,2.3-1.6,3.6-2.2c0.1-0.1,0.3-0.1,0.4-0.1
				c0.1,0,0.2,0.1,0.3,0.3c0,0,0,0.1,0.1,0.2c0,0,0,0.1,0,0.1c0,0,0,0.1,0,0.1c0,0.1,0,0.1-0.1,0.2c-0.1,0.3-0.2,0.6-0.4,0.9
				c-0.3,0.4-0.6,0.7-0.9,1.1c-0.9,1.2-1.9,2.3-3,3.4c-4.1,4.1-8.8,7.6-14,10.5c-0.1,0-0.3,0.2-0.7,0.5c-0.5,0.3-1.2,0.7-1.9,1.2
				c-0.7,0.5-1.4,0.9-1.9,1.2c-0.6,0.3-0.9,0.5-1,0.4C316.3,281.3,317,280.4,318.5,278.9z M217.7,277.9c0-0.1,0.1-0.2,0.1-0.3
				c0.1-0.1,0.2-0.3,0.3-0.4c5.6-6,11.8-11.4,18.6-16.1c0.7-0.4,1.4-0.8,2.1-1.2c0.2-0.1,0.5-0.3,0.8-0.4c0,0,0.1,0,0.2,0.1
				c0.1,0,0.1,0.1,0.2,0.1c0.1,0,0.1,0.1,0.2,0.1c0,0.1,0.1,0.1,0.1,0.1c-0.1,0.3-0.2,0.5-0.4,0.7c-6.4,6.6-13.5,12.4-21.3,17.5
				c-0.1,0.1-0.2,0.1-0.3,0.1c0,0-0.1,0-0.1,0C217.5,278.4,217.4,278.4,217.7,277.9z M175.8,302.2c-0.1,0.1-0.3,0.3-0.5,0.5
				c-0.8,0.8-1.7,1.5-2.7,2.2c-3.1,2.3-6.3,4.3-9.8,6c-9.8,5.1-20.1,9.1-30.8,12c-3,0.8-6.1,1.4-9.2,2c-1,0.2-2,0.3-2.9,0.3
				c-0.4,0-0.8,0-1.2,0.1c-0.2,0-0.5,0-0.7-0.1c-0.5,0-1-0.1-1.5-0.1c-0.4,0-0.6-0.2-0.5-0.5c0,0,0.1-0.1,0.1-0.2c0,0,0-0.1,0-0.1
				s0-0.1,0-0.1c0.1-0.1,0.1-0.1,0.2-0.2c0.3-0.4,0.6-0.7,0.9-1c1.9-1.5,3.9-2.8,6-3.9c4-2.1,8.1-4,12.4-5.6
				c10.1-3.8,20.4-7.1,30.9-9.7c2.3-0.6,4.7-1.2,7.1-1.7c0.7-0.2,1.3-0.3,2-0.5c0,0,0.1,0,0.2,0c0.1,0,0.1,0,0.2,0.1
				c0,0,0.1,0,0.1,0.1c0,0.1,0.1,0.2,0.1,0.3S175.8,302.1,175.8,302.2z M462.9,303.6c-2.5,3.7-5.3,7.2-8.4,10.4c0,0,0,0.1-0.1,0.1
				c-0.1,0.2-0.3,0.3-0.5,0.4s-0.4,0.1-0.7,0.1c-0.1,0-0.1,0-0.2-0.1c-0.1-0.1-0.1-0.1-0.2-0.2c0-0.1,0-0.3,0.1-0.4
				c0-0.4,0.1-0.7,0.3-1c0.2-0.2,0.4-0.5,0.5-0.7c1.4-1.9,2.8-3.8,4.3-5.6c0.9-1.1,1.9-2,2.9-3c0.4-0.4,0.8-0.7,1.2-1.1
				c0.2-0.2,0.5-0.2,0.7,0.1c0,0,0.1,0,0.1,0.1c0,0,0.1,0.1,0.1,0.1c0,0,0,0.1,0,0.1C463.1,303.1,463,303.4,462.9,303.6z"/>
		</g>
	</g>
</g>
</svg>
