<?xml version="1.0" encoding="utf-8"?>
<!-- Generator: Adobe Illustrator 19.2.0, SVG Export Plug-In . SVG Version: 6.00 Build 0)  -->
<svg version="1.1" xmlns="http://www.w3.org/2000/svg" xmlns:xlink="http://www.w3.org/1999/xlink" x="0px" y="0px"
	 viewBox="0 0 841.9 595.3" style="enable-background:new 0 0 841.9 595.3;" xml:space="preserve">
<style type="text/css">
	.st0{display:none;}
	.st1{display:inline;}
	.st2{fill:#FFFFFF;}
</style>
<g id="Layer_1" class="st0">
</g>
<g id="Layer_2">
	<g>
		<path d="M636.9,439.7H469.2V328.6h66.9l-0.5,27.8h70V218.5h-69.4v28.8h-66.9V148h167.2l0.5,35.5h69.4V78.6H318.5
			c2.7,0.3,111.6,12.1,111.6,104.4c0,89-53.5,95.2-53.5,95.2s67.4,19,67.4,108c0,100.1-95.7,122.9-95.7,122.9h358V404.7h-69.4V439.7
			z"/>
		<path d="M288.2,321.9H169.9v117.8h125c0,0,57.6-2.6,57.6-61.2S288.2,321.9,288.2,321.9z"/>
		<path d="M341.7,197.9c0-44.8-50.9-44.8-50.9-44.8H169.9v95.7h120.4C290.2,248.9,341.7,246.3,341.7,197.9z"/>
		<path d="M668.9,219.8c0,0-44.3,23.8-44.3,65.3c0,55.3,44.3,72.3,44.3,72.3s43.7-18.7,43.7-72.3
			C712.6,243.9,668.9,219.8,668.9,219.8z M708,288.3c0,21.7-17.6,39.3-39.3,39.3s-39.3-17.6-39.3-39.3c0-21.7,17.6-39.3,39.3-39.3
			S708,266.5,708,288.3z"/>
		<circle cx="668.1" cy="288.6" r="19.4"/>
	</g>
	<g class="st0">
		<g class="st1">
			<path d="M319.8,531.3c-0.2-0.2-0.4-0.4-0.6-0.7c-0.2-0.3-0.4-0.8-0.7-1.5l-4-9.2H314l-3.3,8.3c-0.3,0.8-0.5,1.3-0.7,1.7
				c-0.2,0.4-0.4,0.7-0.6,0.9c-0.2,0.3-0.5,0.5-0.7,0.6c-0.2,0.1-0.5,0.2-0.8,0.2v0.2h4.1v-0.2c-0.4,0-0.7-0.1-0.9-0.3
				c-0.2-0.1-0.3-0.3-0.4-0.5c-0.1-0.2-0.2-0.4-0.2-0.6c0-0.4,0.1-0.9,0.4-1.5l0.2-0.5l0.5-1.2h4l0.9,2.1l0.2,0.4
				c0.2,0.4,0.3,0.7,0.3,1c0,0.4-0.2,0.7-0.6,0.9c-0.2,0.1-0.6,0.2-1.1,0.3v0.2h6v-0.2c-0.4,0-0.7-0.1-0.8-0.1
				C320.1,531.5,319.9,531.4,319.8,531.3z M311.7,526.7l1.8-4.5l1.9,4.5H311.7z"/>
		</g>
		<g class="st1">
			<path d="M358.3,520.6c-0.4-0.3-0.8-0.5-1.3-0.6c-0.5-0.1-1.2-0.1-2.1-0.1h-5.5v0.2h0.1c0.4,0,0.7,0.1,1,0.2
				c0.2,0.1,0.4,0.3,0.6,0.5c0.1,0.2,0.2,0.4,0.2,0.7c0,0.3,0.1,0.7,0.1,1.2v6.5c0,0.6,0,1-0.1,1.3c-0.1,0.3-0.2,0.5-0.4,0.7
				c-0.2,0.2-0.4,0.3-0.6,0.4c-0.2,0.1-0.5,0.1-0.9,0.1v0.2h5.8v-0.2c-0.4,0-0.6-0.1-0.9-0.1c-0.2-0.1-0.4-0.2-0.6-0.4
				c-0.2-0.2-0.3-0.4-0.4-0.7c-0.1-0.3-0.1-0.7-0.1-1.3V526h1.8c0.8,0,1.3,0,1.5,0c0.7-0.1,1.2-0.2,1.7-0.5c0.9-0.5,1.3-1.3,1.3-2.4
				C359.6,522.1,359.2,521.3,358.3,520.6z M356.5,525.1c-0.3,0.2-0.5,0.4-0.9,0.5c-0.3,0.1-0.8,0.1-1.4,0.1h-0.9v-5.5h0.8
				c0.5,0,0.8,0,1,0c0.5,0.1,1,0.2,1.3,0.5c0.3,0.3,0.6,0.6,0.7,1c0.2,0.4,0.3,0.8,0.3,1.3C357.4,523.9,357.1,524.6,356.5,525.1z"/>
		</g>
		<g class="st1">
			<path d="M397.2,520.6c-0.4-0.3-0.8-0.5-1.3-0.6c-0.5-0.1-1.2-0.1-2.1-0.1h-5.5v0.2h0.1c0.4,0,0.7,0.1,1,0.2
				c0.2,0.1,0.4,0.3,0.6,0.5c0.1,0.2,0.2,0.4,0.2,0.7c0,0.3,0.1,0.7,0.1,1.2v6.5c0,0.6,0,1-0.1,1.3c-0.1,0.3-0.2,0.5-0.4,0.7
				c-0.2,0.2-0.4,0.3-0.6,0.4c-0.2,0.1-0.5,0.1-0.9,0.1v0.2h5.8v-0.2c-0.4,0-0.6-0.1-0.9-0.1c-0.2-0.1-0.4-0.2-0.6-0.4
				c-0.2-0.2-0.3-0.4-0.4-0.7c-0.1-0.3-0.1-0.7-0.1-1.3V526h1.8c0.8,0,1.3,0,1.5,0c0.7-0.1,1.2-0.2,1.7-0.5c0.9-0.5,1.3-1.3,1.3-2.4
				C398.5,522.1,398.1,521.3,397.2,520.6z M395.4,525.1c-0.3,0.2-0.5,0.4-0.9,0.5c-0.3,0.1-0.8,0.1-1.4,0.1h-0.9v-5.5h0.8
				c0.5,0,0.8,0,1,0c0.5,0.1,1,0.2,1.3,0.5c0.3,0.3,0.6,0.6,0.7,1c0.2,0.4,0.3,0.8,0.3,1.3C396.3,523.9,396,524.6,395.4,525.1z"/>
		</g>
		<g class="st1">
			<path d="M438.6,531.3c-0.2-0.2-0.4-0.4-0.6-0.7c-0.2-0.3-0.4-0.8-0.7-1.5l-4-9.2h-0.5l-3.3,8.3c-0.3,0.8-0.5,1.3-0.7,1.7
				c-0.2,0.4-0.4,0.7-0.6,0.9c-0.2,0.3-0.5,0.5-0.7,0.6c-0.2,0.1-0.5,0.2-0.9,0.2v0.2h4.1v-0.2c-0.4,0-0.7-0.1-0.9-0.3
				c-0.2-0.1-0.3-0.3-0.4-0.5c-0.1-0.2-0.2-0.4-0.2-0.6c0-0.4,0.1-0.9,0.4-1.5l0.2-0.5l0.5-1.2h4l0.9,2.1l0.2,0.4
				c0.2,0.4,0.3,0.7,0.3,1c0,0.4-0.2,0.7-0.6,0.9c-0.2,0.1-0.6,0.2-1.1,0.3v0.2h6v-0.2c-0.4,0-0.7-0.1-0.9-0.1
				S438.7,531.4,438.6,531.3z M430.5,526.7l1.8-4.5l1.9,4.5H430.5z"/>
		</g>
		<g class="st1">
			<path d="M479,531.2c-0.2-0.2-0.4-0.6-0.7-1.1c-0.3-0.5-0.7-1.3-1.2-2.3c-0.2-0.5-0.4-0.8-0.5-1c-0.1-0.2-0.2-0.3-0.4-0.5
				c-0.2-0.2-0.4-0.3-0.8-0.5c0.4-0.1,0.8-0.2,1.1-0.3c0.3-0.1,0.5-0.2,0.7-0.4c0.7-0.5,1.1-1.3,1.1-2.2c0-0.6-0.2-1.2-0.5-1.6
				c-0.3-0.5-0.8-0.8-1.4-1c-0.5-0.2-1.3-0.3-2.2-0.4c-0.2,0-0.7,0-1.5,0h-4.4v0.2c0.3,0,0.6,0.1,0.8,0.1c0.2,0.1,0.4,0.2,0.6,0.4
				c0.2,0.2,0.3,0.4,0.4,0.7c0.1,0.3,0.1,0.7,0.1,1.3v6.5c0,0.6,0,1-0.1,1.3s-0.2,0.5-0.4,0.7c-0.2,0.2-0.4,0.3-0.6,0.4
				c-0.2,0.1-0.5,0.1-0.9,0.1v0.2h5.8v-0.2c-0.4,0-0.6-0.1-0.9-0.1c-0.2-0.1-0.4-0.2-0.6-0.4c-0.2-0.2-0.3-0.4-0.4-0.7
				c-0.1-0.3-0.1-0.7-0.1-1.3V526h0.4c0.3,0,0.5,0,0.7,0.1c0.2,0,0.4,0.1,0.5,0.3c0.3,0.2,0.7,0.7,1.1,1.3c0.4,0.6,0.8,1.4,1.2,2.2
				l0.6,1.4c0,0.1,0.1,0.3,0.3,0.6h3v-0.2c-0.2,0-0.4-0.1-0.6-0.1C479.3,531.5,479.2,531.4,479,531.2z M474.1,525.7
				c-0.3,0.1-0.9,0.1-1.6,0.1h-0.3v-5.7h0.4c0.7,0,1.2,0,1.5,0.1c0.4,0.1,0.7,0.2,0.9,0.4c0.3,0.3,0.6,0.6,0.8,1
				c0.2,0.4,0.3,0.8,0.3,1.3c0,0.9-0.3,1.6-1,2.2C474.8,525.5,474.5,525.6,474.1,525.7z"/>
		</g>
		<g class="st1">
			<path d="M518.9,529.7c-0.1,0.3-0.3,0.6-0.5,0.9c-0.3,0.4-0.7,0.7-1.2,0.8c-0.5,0.2-1.1,0.3-1.8,0.3c-0.7,0-1.3-0.1-1.7-0.3
				c-0.4-0.2-0.7-0.5-0.9-0.9c-0.1-0.2-0.2-0.6-0.2-0.9c0-0.4-0.1-0.9-0.1-1.8v-2h0.5c0.5,0,0.8,0,1.1,0.1s0.5,0.2,0.7,0.4
				c0.2,0.2,0.3,0.4,0.4,0.7c0.1,0.3,0.2,0.6,0.2,1.1h0.2l0-4.7l-0.2,0c-0.1,0.5-0.1,0.8-0.2,1c-0.1,0.2-0.2,0.4-0.4,0.6
				c-0.2,0.2-0.4,0.3-0.7,0.4c-0.3,0.1-0.7,0.1-1.3,0.1h-0.5v-5.3h2.1c0.6,0,1.2,0,1.6,0.1c0.4,0.1,0.7,0.2,1,0.4
				c0.3,0.2,0.6,0.5,0.8,0.9c0.2,0.3,0.3,0.7,0.4,1.2l0.2,0l-0.2-2.9h-9.8v0.2c0.4,0,0.6,0.1,0.9,0.1c0.2,0.1,0.4,0.2,0.6,0.4
				c0.2,0.2,0.3,0.4,0.4,0.7c0.1,0.3,0.1,0.7,0.1,1.3v6.5c0,0.6,0,1-0.1,1.3c-0.1,0.3-0.2,0.5-0.4,0.7c-0.2,0.2-0.4,0.3-0.6,0.4
				c-0.2,0.1-0.5,0.1-0.8,0.1v0.2h10.9l0.1-3.5l-0.2,0C519.1,528.9,519,529.3,518.9,529.7z"/>
		</g>
		<g class="st1">
			<path d="M558.6,529.6c-0.1,0.3-0.3,0.6-0.5,0.9c-0.3,0.4-0.7,0.7-1.2,0.9c-0.5,0.2-1.1,0.3-1.8,0.3c-0.7,0-1.3-0.1-1.7-0.3
				c-0.4-0.2-0.7-0.5-1-0.9c-0.1-0.2-0.2-0.5-0.2-0.9c0-0.4-0.1-1-0.1-1.7v-5.1c0-0.6,0-1.1,0.1-1.4c0.1-0.3,0.2-0.5,0.4-0.7
				c0.2-0.2,0.4-0.3,0.6-0.3s0.5-0.1,0.8-0.1v-0.2h-5.8v0.2c0.3,0,0.6,0.1,0.8,0.1c0.2,0.1,0.4,0.2,0.6,0.3c0.2,0.2,0.3,0.4,0.4,0.7
				c0.1,0.3,0.1,0.8,0.1,1.4v6.5c0,0.6,0,1-0.1,1.3c-0.1,0.3-0.2,0.5-0.4,0.7c-0.3,0.3-0.8,0.5-1.4,0.5v0.2h10.9l0.1-3.6l-0.2,0
				C558.8,528.8,558.7,529.3,558.6,529.6z"/>
		</g>
		<g class="st1">
			<path d="M629.9,470.5c-1.1-1.8-4.1-2.6-9-2.6c-4,0-9.4,0.6-16.1,1.8c-6.5,1.2-12.7,2.6-18.8,4.1c-7.7,2.1-13.1,3.1-16,3.1h-0.5
				c-0.6,0-1.1,0-1.6-0.1c-0.7-0.2-1-0.6-1-1.1v-0.2c0-0.1,0.1-0.4,0.3-0.8c0.3-0.7,0.9-1.6,1.9-2.7c0.6-0.6,1.1-1,1.4-1.2
				c0.5-0.4,0.8-0.6,0.9-0.6h0.1c0.6,0.3,1.3,0.5,2.2,0.5c0.4,0,1.1-0.1,2.2-0.2c1.3-0.2,2.3-0.5,3.1-0.8c3.3-1.2,4.9-2.4,4.9-3.7
				v-0.1c0-0.5-0.3-1.1-1-1.8c-0.5-0.4-0.9-0.7-1.4-0.9c-0.3-0.1-0.6-0.2-1.1-0.2c-1.7,0-3.9,0.5-6.3,1.6c-1.4,0.6-2.7,1.3-3.9,2.2
				c-0.5,0.3-1.5,1.1-3,2.5c-0.5,0.1-1.1,0.3-1.9,0.6c-1.8,0.7-3.8,1.6-6.1,2.7c-2.3,1.1-4.3,2.2-6.1,3.2c-1.8,1-3.1,1.7-3.7,2
				c-0.2,0.1-0.5,0.2-0.8,0.3c-0.3,0.1-0.6,0.1-0.8,0c-0.2,0-0.4-0.1-0.4-0.2c0-0.2-0.1-0.3-0.1-0.5c0-0.2,0-0.3,0.1-0.4
				c0.4-0.9,0.8-1.8,1.2-2.6c0.2-0.5,0.5-1.1,0.8-1.6c0.1-0.1,0.1-0.2,0.2-0.4c0.4-0.8,0.8-1.6,1.1-2.5c0.3-1-0.1-2-1.3-2.9
				c-0.7-0.5-1.3-0.6-1.7-0.2c-0.8,0.7-1.5,1.5-2.2,2.2c-2.7,2.8-5.9,5.1-9.5,6.9c-1.3,0.7-2.8,1.2-4.4,1.4c-0.3,0-0.6-0.1-0.9-0.3
				c-0.3-0.2-0.5-0.5-0.5-0.8c0.1-1,0.4-1.9,0.9-2.7c0.5-0.8,1.1-1.5,1.8-2.1c0.4-0.4,0.8-0.9,1.2-1.3s0.6-0.9,0.8-1.4
				c0.1-0.3,0-0.6-0.3-1c-0.3-0.3-0.6-0.7-1-1c-0.2-0.1-0.5,0-1,0.2c-0.5,0.2-0.9,0.4-1.4,0.7c-0.5,0.2-0.7,0.4-0.8,0.5
				c-0.2,0.2-0.4,0.4-0.6,0.6c-0.1,0.1-0.2,0.2-0.3,0.3c0,0,0,0-0.1,0c-0.1,0.1-0.2,0.1-0.4,0.2c-13.6,7.4-27.8,13.5-42.5,18.3
				c-3.6,1.2-7.1,2.3-10.7,3.4c-3.6,1.1-7.2,2-10.9,2.8c-1.5,0.3-3,0.6-4.5,0.8c-1.5,0.2-3,0.3-4.5,0.3c-0.3,0-0.7,0-1,0
				c-0.8,0-1.6,0-2.3,0c-0.7,0-1.5-0.2-2.2-0.4c-0.2-0.9-0.8-1.7-1.8-2.3c0.2-1.2,0.5-2.4,1.1-3.5c0.7-1.3,1.4-2.5,2.3-3.6
				c0.9-1.1,1.8-2.2,2.8-3.2c3.7-3.9,7.8-7.4,12.2-10.6c4.2-3.1,8.6-5.9,13.2-8.5s9.2-5,14-7.1c1.3-0.6,2.7-1,4.2-1.2
				c0.5-0.1,1-0.1,1.5-0.2c1.8-0.2,3.6-0.5,5.3-0.9c0.3-0.1,0.6-0.1,0.9-0.2c1.3-0.3,2.5-0.7,3.6-1.3c0.3-0.2,0.5-0.5,0.6-0.8
				c0.1-0.3,0.1-0.7,0-1.1c-0.3-0.6-0.7-1.1-1.3-1.5c-0.6-0.4-1.2-0.5-1.8-0.4c-1.4,0.2-2.9,0.5-4.3,0.9c-1.2,0.3-2.4,0.7-3.6,1.2
				c-0.9,0.3-1.7,0.6-2.6,0.8c-0.1,0-0.2,0.1-0.4,0.1c-0.8,0.3-1.6,0.5-2.5,0.6c-1.4,0.1-2.8,0-4.2-0.1c-1.4-0.1-2.8-0.4-4.1-0.9
				c-0.5-0.1-0.9-0.3-1.3-0.6c-1.9-1-2.6-2.4-2.1-4.3c0.3-1.2,0.8-2.2,1.4-3.3c1.3-1.9,2.8-3.5,4.6-4.9c5.2-4.2,11.2-7,17.8-8.4
				c1.4-0.3,2.7-0.5,4.1-0.7c1.4-0.2,2.8-0.2,4.2-0.2c1.1,0.1,2.2,0.2,3.2,0.4c1.1,0.2,2,0.7,3,1.3c0.2,0.1,0.4,0.2,0.7,0.3
				c0.1,0,0.2,0,0.3-0.1c0.1-0.1,0.2-0.1,0.3-0.2c0-0.1,0-0.2,0-0.2c0,0,0-0.1,0-0.1c-0.1-0.1-0.2-0.2-0.3-0.4
				c-0.2-0.4-0.4-0.7-0.7-1c-0.9-0.9-1.9-1.5-3-1.9c-1.1-0.4-2.3-0.7-3.5-0.8c-2.1-0.2-4.1-0.2-6.2,0c-7.4,0.8-14.1,3.3-20.1,7.6
				c-1.8,1.2-3.4,2.6-4.9,4.2c-1.1,1.2-2.1,2.6-2.8,4.1c-0.9,2.2-0.9,4.3,0,6.5c0.9,2.3,2.5,4,4.8,5c0.4,0.2,0.8,0.3,1.1,0.5
				c0.5,0.2,1,0.4,1.5,0.7c0,0,0.1,0.1,0.1,0.1c0,0,0.1,0.1,0.1,0.1c0,0,0,0.1,0,0.1c0,0.1-0.1,0.2-0.1,0.3c0,0.1-0.1,0.2-0.2,0.2
				c-0.9,0.5-1.9,1-2.8,1.4c-0.9,0.5-1.8,0.9-2.7,1.4c-4,2.1-7.8,4.3-11.6,6.7c-3.7,2.4-7.3,5-10.8,7.8c-1.7,1.4-3.4,2.9-5,4.4
				c-1.6,1.5-3.1,3.1-4.5,4.8c-1.7,1.9-3,4-3.9,6.3c-0.4,1.1-0.5,2.2-0.4,3.5c-0.8-0.2-1.6-0.4-2.6-0.5c-2-0.2-4.1-0.1-6.6,0.2
				c-2.7,0.4-5.5,0.9-8.4,1.6c-2.9,0.7-5.9,1.4-8.7,2.1c-3.4,0.9-6.6,1.7-9.5,2.3c-2.9,0.6-5.4,0.9-7.3,0.9c-0.1,0-0.1,0-0.2,0
				c-0.2,0-0.5-0.1-0.7-0.1c-1.1-0.2-1.5-0.8-1.4-1.8c0.2-1,0.7-2.2,1.5-3.6c0.9-1.3,1.8-2.6,2.9-3.7c1.1-1.1,2-1.9,2.8-2.2
				c1.3-0.5,2.6-1,3.8-1.6c0.9-0.3,1.7-0.7,2.6-1.1c0.4-0.1,0.8-0.4,1.2-0.7c0.1-0.1,0.1-0.2,0.1-0.3c0-0.1,0-0.2,0-0.3
				c-0.5-1.1-1.3-1.5-2.4-1.2c-3,0.9-6,1.9-8.9,3.1c-0.7,0.3-1.3,0.5-2,0.7c-0.1,0-0.2,0.1-0.3,0.1c0,0-0.1,0-0.2,0
				c-0.1,0-0.1-0.1-0.2-0.1c-0.3-0.3-0.2-0.7,0.2-1.1c0.4-0.4,1.1-0.9,1.9-1.4c0.8-0.5,1.7-0.9,2.6-1.3c0.9-0.4,1.6-0.7,2.2-1
				c0.4-0.2,0.6-0.3,0.7-0.3c3.5-1.8,6.8-3.9,9.9-6.1c2.4-1.6,4.6-3.4,6.6-5.3c1.7-1.5,3.1-3.3,4.3-5.2c0.4-0.5,0.6-1.2,0.9-1.8
				c0.4-1.6-0.1-3-1.6-4.1c-0.8-0.6-1.8-0.8-2.8-0.5c-1.1,0.3-2.2,0.8-3.1,1.5c-0.4,0.3-0.8,0.6-1.2,0.9c-1.6,1.1-3.1,2.2-4.5,3.4
				c-1.9,1.6-3.7,3.3-5.5,5.1c-4.9,4.9-9.5,9.9-13.9,15.2c-1.5,1.8-3,3.6-4.5,5.5c-1,0.5-2.1,1-3.2,1.6c-2.6,1.3-5.4,2.6-8.4,3.9
				c-3,1.3-6,2.2-9,2.9c-3,0.6-5.8,0.7-8.5,0c-1-0.2-1.4-0.8-1-1.8c0.5-1.3,1.1-2.4,2.1-3.3c1.8-1.9,3.8-3.6,6-5
				c2.2-1.4,4.6-2.5,7.3-3.1c1.7-0.4,3.3-0.5,5.1-0.3c0.2,0,0.4,0.1,0.6,0.1c0.2,0.1,0.3,0.1,0.5,0.1c0.1,0,0.2,0,0.3-0.2
				c0.1-0.1,0.2-0.2,0.2-0.3s0.1-0.2,0-0.3c0-0.1-0.1-0.1-0.1-0.2c-0.1-0.3-0.3-0.5-0.5-0.7c-0.8-0.8-1.7-1.3-2.8-1.4
				c-1.7-0.2-3.4-0.1-5.1,0.3c-2.8,0.7-5.4,1.8-7.7,3.2c-2.3,1.4-4.4,3.2-6.3,5.2c-0.4,0.5-0.8,0.9-1.1,1.5
				c-0.3,0.3-0.7,0.5-1.1,0.8c-1.5,1.1-3.5,2.3-6,3.4c-2.5,1.2-5.5,2.2-9,3.1c-0.2,0-0.3,0-0.5-0.1c-0.1-0.1-0.2-0.2-0.2-0.4
				c0.1-0.5,0.3-1.1,0.6-1.5s0.6-0.9,0.9-1.4c0-0.1,0-0.1,0-0.1c1.9-2.9,4.2-5.5,6.7-7.9c0.1-0.1,0.2-0.3,0.4-0.4
				c0.3-0.3,0.7-0.6,1-1c0.3-0.3,0.3-0.7,0.1-1.2c-0.2-0.6-0.6-1.1-1.1-1.4c-0.2-0.1-0.4-0.2-0.6-0.2s-0.4,0.1-0.6,0.2
				c-0.4,0.3-0.8,0.7-1.2,1c-2.3,2-4.7,3.8-7.3,5.4c-2.6,1.5-5.3,2.9-8.1,4.1c-1.3,0.5-2.6,1-3.9,1.3c-0.1,0-0.3,0.1-0.6,0.1
				c-0.3,0-0.6,0-0.9,0c-0.3,0-0.6-0.1-0.7-0.2c-0.2-0.1-0.2-0.3-0.1-0.5c0.9-1.5,2-2.8,3.4-3.9c1.4-1.1,2.9-2,4.6-2.7
				c1.7-0.7,3.4-1.3,5.1-1.8c1.1-0.3,2-0.4,2.7-0.5c0.7,0,1.3,0,1.8,0.1c0.5,0.1,1,0.1,1.6,0.1c0.1-0.1,0.2-0.2,0.3-0.5
				s0.1-0.6,0-0.9c-0.1-0.3-0.4-0.7-0.9-1c-0.8-0.6-1.7-0.9-2.7-1.1c-1-0.2-2-0.1-3,0.1c-2.7,0.5-5.1,1.3-7.4,2.6
				c-2.2,1.2-4.2,2.9-6.1,4.8c-0.2,0.3-0.5,0.5-0.7,0.8c-2.8,2.1-5.6,4-8.3,5.8c-3,1.9-6.3,3.7-9.9,5.4c-1.4,0.7-2.9,1.2-4.3,1.7
				c-0.5,0.1-1,0.2-1.6,0.1c-0.1,0-0.2,0-0.2,0c-0.1,0-0.2-0.1-0.3-0.2c-0.1-0.1-0.2-0.2-0.2-0.3c-0.1-0.5,0-0.9,0.1-1.3
				c0.6-2,1.4-4,2.5-5.8c1.8-3,3.9-5.9,6.1-8.7c0.6-0.8,1.3-1.4,2.1-1.9c4.1-2.7,8.2-5.4,12.3-8.2c6-4.1,11.5-8.6,16.6-13.6
				c1.6-1.5,3-3.1,4.2-4.8c0.9-1.4,0.8-2.6-0.4-3.8c-0.6-0.7-1.4-0.9-2.3-0.6c-1.4,0.4-2.7,1-4,1.7c-3.4,2-6.7,4.3-9.7,6.8
				c-3.4,2.8-6.6,5.8-9.7,9c-3.1,3.1-6,6.4-8.8,9.8c-0.2,0.2-0.4,0.5-0.5,0.7c-0.6,0.8-1.3,1.5-2.1,2.1c-0.2,0.1-0.3,0.2-0.4,0.4
				s-0.2,0.3-0.2,0.5c-0.2,0.8-0.6,1.6-1.2,2.2c-0.2,0.3-0.4,0.5-0.5,0.8c-0.1,0.1-0.2,0.2-0.2,0.3c-0.7,0-1.4,0.1-2.2,0.2
				c-0.9,0.1-1.7,0.3-2.4,0.4c-0.2,0-0.4,0.1-0.6,0.1c-0.2,0-0.4,0.1-0.6,0.1c-2,0.3-3.9,0.6-5.8,1c-0.5,0.1-0.9,0.1-1.2-0.1
				c-0.3-0.1-0.6-0.4-0.8-0.8c-0.5-1.1-1.3-1.9-2.2-2.6c-0.9-0.6-2-1.1-3.1-1.4c-1.5-0.4-3.1-0.7-4.7-0.8c-2.3-0.1-4.6-0.2-6.9-0.2
				c-2.3,0-4.6,0.2-6.9,0.5c-0.5,0.1-1.1,0.1-1.6,0.1c-0.2,0-0.4,0-0.5,0c0,0-0.1,0-0.1,0c0,0-0.1,0-0.1-0.1c0,0-0.1-0.1-0.1-0.1
				c0,0,0.1-0.1,0.1-0.1c0-0.1,0-0.1,0-0.1c0,0,0.1,0,0.1,0c0.6-0.3,1.3-0.6,1.9-0.9c2-0.8,4-1.6,6-2.4c2.6-1,5.2-2.1,7.8-3.2
				c7.6-3.1,15.1-6.4,22.5-9.9c2.1-1,4.2-2,6.3-3.1c2.1-1.1,4.1-2.3,6.1-3.5c2.2-1.3,4.2-2.8,6-4.5c1.4-1.2,2.4-2.6,3.1-4.3
				c0.5-1.2,0.5-2.5,0.1-3.8c-0.5-1.6-1.4-3-2.5-4.2c-1.3-1.2-2.8-2.3-4.4-3.1c-1.3-0.7-2.6-1.2-4-1.7c-1.4-0.4-2.8-0.8-4.2-1.2
				c-4.3-0.9-8.8-1.3-13.6-1.2c-4.7,0.1-9.3,0.6-13.6,1.4c-12.7,2.3-24.8,6.5-36.2,12.5c-1.6,0.9-3.1,1.8-4.7,2.8
				c-0.4,0.2-0.8,0.5-1.2,0.7c-0.5,0.3-1,0.7-1.4,1.2c-0.1,0.1-0.2,0.3-0.2,0.4c0,0.2,0,0.3,0,0.5c0,0,0.1,0.2,0.2,0.4
				s0.3,0.6,0.5,1c0.2,0.4,0.5,0.7,0.8,1c0.3,0.3,0.6,0.5,0.9,0.7c0.3,0.1,0.6,0.1,0.8,0c4.3-3.6,9.4-6.9,15.2-9.7
				c5.8-2.9,12-5.1,18.6-6.9c6.5-1.7,13.1-2.7,19.6-3c6.5-0.3,12.6,0.3,18.3,1.8c1.8,0.4,3.5,1.1,5,2c0.1,0.1,0.2,0.1,0.2,0.1
				c0.9,0.5,1.8,1.1,2.6,1.8c0.8,0.7,1.1,1.6,1.1,2.6c-0.1,1.1-0.4,2.1-1,3c-1,1.4-2.3,2.7-3.7,3.8c-2.7,2.1-5.7,4-8.8,5.6
				c-5.7,3-11.4,5.8-17.3,8.3c-5.3,2.3-10.7,4.6-16.1,6.8c-5.4,2.2-10.9,4.4-16.3,6.5c-3.4,1.3-6.8,2.6-10.2,4
				c-0.2,0.1-0.3,0.1-0.5,0.1c-0.2,0-0.3,0-0.5-0.1c-0.2-0.2-0.2-0.5,0-0.9c0.2-0.3,0.4-0.7,0.6-1c0.7-1.2,1.5-2.3,2.2-3.5
				c2.1-2.8,4.7-5.9,7.9-9.5c3.1-3.6,6.1-6.8,8.8-9.5c0.7-0.6,1.2-1.1,1.7-1.5c0.8-0.6,1.1-1,1-1.3c-0.1-0.3-0.9-0.6-2.4-0.9
				c-0.6-0.1-1.2-0.2-1.7-0.3c-0.5,0-0.9,0.1-1.2,0.3c-3.6,4.1-7.3,8.4-11.2,13c-3.8,4.6-7.6,9.3-11.2,14.2
				c-3.6,4.9-6.8,9.7-9.7,14.6c-0.4,0.9-0.3,1.7,0.2,2.4c0.1,0.1,0.3,0.2,0.5,0.3c0.2,0.1,0.5,0.1,0.7,0.1c0.2,0,0.4,0,0.5-0.1
				c0.5-0.9,1.5-2.3,3-4.4c1.5-2.1,3.1-4,4.6-5.9c1.6-1.9,2.7-3,3.4-3.3c0.1,0,0.2,0,0.3,0.1c0.2,0.1,0.4,0.3,0.5,0.5
				c0.3,0.4,0.7,0.7,1.2,0.8c0.4,0.1,0.9,0.1,1.4,0c0.2,0,0.5-0.1,0.7-0.1c3.4-0.8,6.9-1.5,10.3-2.1c3.5-0.6,6.9-1.1,10.5-1.5
				c3.9-0.4,7.8-0.5,11.6-0.3c1.8,0.1,3.6,0.5,5.3,1.2c0.6,0.2,1,0.7,1.1,1.3c0,0.3-0.1,0.6-0.4,0.9c-0.3,0.3-0.6,0.4-1,0.6
				c-1.2,0.3-2.4,0.5-3.6,0.8c-2.2,0.5-4.5,1-6.7,1.5c-10,2.3-19.9,5.4-29.5,9.1c-3.7,1.4-7.3,3.1-10.8,5c-1.4,0.8-2.8,1.8-4.2,2.8
				c-0.7,0.6-1.4,1.2-2,2c-0.5,0.6-0.6,1.3-0.4,2c0.5,2.1,1.9,3.2,4,3.6c1.3,0.2,2.7,0.2,4,0.2c1.4,0,2.7-0.2,4-0.4
				c1.3-0.2,2.6-0.5,3.9-0.8c4.2-1,8.2-2.2,12.2-3.6c4-1.4,7.9-3,11.7-4.8c3.9-1.7,7.6-3.7,11.1-6c1.8-1.2,3.5-2.4,5.1-3.7
				c1.6-1.3,3-2.9,4.2-4.6c0.4-0.5,0.8-0.8,1.4-0.9c2.3-0.5,4.6-1.2,6.9-2c1.1-0.3,2.3-0.7,3.3-1c0.4-0.1,0.7-0.2,1.1-0.3
				c-0.5,0.8-1.1,1.6-1.6,2.5c-1.1,1.8-2,3.7-2.8,5.7c-0.4,1.1-0.6,2.2-0.6,3.4c0,0.9,0.3,1.8,0.8,2.6c0.8,1.4,1.9,2,3.4,2
				c1.1,0,2.2-0.1,3-0.5c0.4-0.2,0.8-0.3,1.2-0.5c0.6-0.2,1.2-0.4,1.8-0.7c5.7-2.7,10.9-6.1,15.6-10.2c0.1,0,0.1-0.1,0.1-0.1
				c0.1-0.1,0.2-0.1,0.2-0.2c0,0,0,0,0,0c0.2,0.9,0.7,1.7,1.4,2.3c0.7,0.6,1.5,1,2.5,1c1.3,0.1,2.6-0.1,3.8-0.5
				c2-0.6,3.8-1.4,5.7-2.3c0.6-0.3,1.3-0.5,1.9-0.8c0.1,0,0.1,0,0.2,0c0,0,0.1,0,0.1,0c0,0,0.1,0.1,0.2,0.1c0,0,0.1,0.1,0.1,0.1
				c0,0,0,0.1,0,0.1c-0.1,0.3-0.2,0.6-0.3,0.9c-0.2,0.5-0.3,0.9-0.5,1.4c-0.2,0.8-0.1,1.7,0.2,2.6s0.9,1.5,1.7,2
				c0.5,0.4,1.2,0.6,1.9,0.6c0.5,0,1,0,1.5-0.2c0.5-0.1,1-0.3,1.5-0.4c0,0,0.1,0,0.1,0c0.5-0.2,1.5-0.6,2.8-1.3
				c1.4-0.7,2.9-1.5,4.6-2.5c1.4-0.8,2.7-1.6,4-2.4c0,0.2,0,0.4,0.1,0.5c0.5,2.2,1.8,3.7,4,4.6c0.6,0.2,1.2,0.4,1.9,0.4
				c0.7,0.1,1.4,0.1,2.1,0.1c0.2,0,0.4,0,0.6,0c4.3-0.5,8.8-1.7,13.3-3.6c2.6-1.1,5-2.2,7.2-3.5c-1.6,2-3.2,4-4.7,6.1
				c-0.1,0.1-0.2,0.3-0.3,0.4c0,0.1-0.1,0.1-0.1,0.1c-0.3,0.6-0.2,1.2,0.4,2c0.2,0.2,0.4,0.3,0.7,0.4c0.3,0,0.5,0,0.6-0.2
				c0.4-0.4,0.7-0.9,1.1-1.3c0.9-1.1,1.8-2.2,2.7-3.4c1.7-2.3,3.8-4.1,6.5-5.3c1.1-0.5,1.7-0.7,1.8-0.5c0.1,0.2,0.1,0.7-0.2,1.7
				c0,0.1-0.1,0.2-0.1,0.3c-0.4,1.5-0.1,3,0.8,4.4c1.1,1.9,2.8,2.9,4.9,3c1.7,0.1,3.7-0.1,6.1-0.5c2.4-0.4,5-1,8-1.7
				c3-0.7,6.2-1.4,9.7-2c3.5-0.7,7.1-1.2,10.8-1.5c2.8-0.3,5.6-0.4,8.5-0.3c0.2,0.3,0.4,0.6,0.7,0.9c1,1.2,2.4,1.9,4.2,2.3
				c2.5,0.6,5.1,0.7,7.6,0.4c3.1-0.4,6.2-1,9.3-1.7c7.8-1.9,15.4-4.2,22.9-6.9c7-2.5,13.8-5.4,20.4-8.5c5.1-2.4,10.1-5,15-7.7
				c0,1.6,0.7,3.1,1.9,4.6c1.3,1.5,2.8,2.1,4.5,2c1.4-0.1,2.7-0.5,3.9-1.1c0.7-0.4,1.4-0.8,2-1.1c0.8-0.4,1.7-0.9,2.6-1.3
				c0.1,0,0.2,0,0.3,0c0.1,0,0.2,0.1,0.3,0.1c0.1,0,0.1,0.1,0.1,0.2c0,0.1,0.1,0.1,0.1,0.2c0,0.1,0,0.1,0,0.2
				c-0.5,0.9-0.9,1.8-1.4,2.7c-0.4,0.9-0.8,1.7-1.3,2.6c-0.5,0.9-1.2,1.7-2,2.3c-2.1,1.6-4.2,3.2-6.2,4.8c-3.1,2.4-5.8,5.1-8.2,8.1
				c-1.1,1.5-2.2,3-3.2,4.6c-0.1,0.1-0.1,0.2-0.2,0.3c-0.6,1-1,2-1.2,3.3c-0.1,1.2,0.3,2.3,1.2,3.3c0.6,0.6,1.2,1.1,1.9,1.3
				c0.7,0.2,1.3,0.2,1.9-0.1c0.8-0.4,1.5-0.9,2.1-1.4c1.1-0.9,2.1-1.8,2.9-2.8c1.9-2.2,3.7-4.5,5.4-6.9c1.1-1.6,2.3-3.2,3.3-4.9
				c1.1-1.7,2.1-3.4,3-5.1c1-2,2.4-3.6,4.3-4.8c4-2.6,8.1-5.1,12.3-7.5c2.3-1.2,4.5-2.5,6.7-3.7c-0.1,0.3-0.1,0.6-0.1,0.9v0.4
				c0,1,0.3,2.1,0.9,3c0.4,0.5,0.8,1,1.3,1.2c0.9,0.8,2.3,1.2,4.2,1.2h0.1c1.1,0,2.4-0.1,4.1-0.4c3.6-0.6,9.3-1.8,16.8-3.3
				c12-2.5,21.4-3.8,28.2-3.8c3.9,0,7.2,0.4,10,1.2c0.1-0.1,0.2-0.4,0.2-1v-0.3C630.4,471.5,630.2,471,629.9,470.5z M575.8,467.2
				c2.6-1,4.3-1.6,5.1-1.6c0.1,0,0.2,0,0.3,0.1c0,0.1-0.2,0.4-0.5,0.7c-0.4,0.3-1.1,0.7-2.3,1.2c-2.1,0.7-3.6,1-4.4,1
				c-0.2,0-0.3-0.1-0.3-0.1C573.8,468.2,574.5,467.8,575.8,467.2z M409.3,475c1.3-1.3,2.8-2.7,4.6-4.3c1.8-1.6,3.4-3,4.8-4.2
				c1.4-1.2,2.3-1.9,2.5-2.1c0.9-0.8,1.8-1.5,2.8-2.2c0.9-0.7,2-1.3,3.1-1.8c0.1-0.1,0.2-0.1,0.3-0.1c0.1,0,0.2,0.1,0.3,0.2
				c0,0,0,0.1,0,0.1c0,0,0,0.1,0,0.1c0,0,0,0.1,0,0.1c0,0.1,0,0.1,0,0.2c-0.1,0.3-0.2,0.5-0.4,0.7c-0.3,0.3-0.5,0.6-0.8,1
				c-0.8,1-1.6,2-2.5,2.9c-3.5,3.5-7.5,6.5-11.9,8.9c-0.1,0-0.3,0.2-0.6,0.4c-0.5,0.3-1,0.6-1.6,1c-0.6,0.4-1.2,0.8-1.7,1
				c-0.5,0.3-0.8,0.4-0.8,0.3C407.4,477,408,476.3,409.3,475z M323.3,474.2c0-0.1,0.1-0.1,0.1-0.2c0.1-0.1,0.1-0.2,0.2-0.3
				c4.8-5.1,10.1-9.7,15.9-13.8c0.6-0.4,1.2-0.7,1.8-1c0.2-0.1,0.4-0.2,0.7-0.3c0,0,0.1,0,0.1,0c0.1,0,0.1,0.1,0.1,0.1
				c0.1,0,0.1,0.1,0.1,0.1c0,0,0,0.1,0,0.1c-0.1,0.2-0.2,0.4-0.4,0.6c-5.5,5.6-11.5,10.6-18.1,14.9c-0.1,0.1-0.2,0.1-0.3,0.1
				c0,0-0.1,0-0.1,0C323.2,474.6,323.1,474.5,323.3,474.2z M287.6,494.8c-0.1,0.1-0.3,0.2-0.4,0.4c-0.7,0.7-1.5,1.3-2.3,1.9
				c-2.6,1.9-5.4,3.6-8.3,5.1c-8.3,4.4-17.1,7.8-26.3,10.2c-2.6,0.7-5.2,1.2-7.8,1.7c-0.8,0.1-1.7,0.2-2.5,0.3c-0.3,0-0.7,0-1,0
				c-0.2,0-0.4,0-0.6,0c-0.5,0-0.9-0.1-1.3-0.1c-0.3,0-0.5-0.2-0.5-0.4c0,0,0-0.1,0-0.1c0,0,0-0.1,0-0.1c0,0,0-0.1,0-0.1
				c0.1-0.1,0.1-0.1,0.2-0.2c0.2-0.3,0.5-0.6,0.8-0.9c1.6-1.3,3.3-2.4,5.1-3.3c3.4-1.8,6.9-3.4,10.5-4.8c8.6-3.3,17.4-6,26.3-8.3
				c2-0.5,4-1,6.1-1.5c0.6-0.1,1.1-0.3,1.7-0.4c0,0,0.1,0,0.1,0c0.1,0,0.1,0,0.1,0c0,0,0,0,0,0.1c0,0.1,0,0.2,0,0.3
				C287.7,494.7,287.7,494.8,287.6,494.8z M532.4,496c-2.1,3.2-4.5,6.1-7.2,8.9c0,0,0,0,0,0c-0.1,0.1-0.3,0.3-0.4,0.4
				c-0.2,0.1-0.4,0.1-0.6,0.1c-0.1,0-0.1,0-0.2-0.1c0,0-0.1-0.1-0.2-0.2c0-0.1,0-0.2,0-0.3c0-0.3,0.1-0.6,0.3-0.9
				c0.2-0.2,0.3-0.4,0.5-0.6c1.2-1.6,2.4-3.2,3.7-4.7c0.8-0.9,1.6-1.7,2.5-2.5c0.4-0.3,0.7-0.6,1-1c0.2-0.2,0.4-0.1,0.6,0.1
				c0,0,0.1,0,0.1,0.1c0,0,0.1,0.1,0.1,0.1c0,0,0,0.1,0,0.1C532.6,495.6,532.5,495.8,532.4,496z"/>
		</g>
	</g>
</g>
<g id="Layer_2_copy" class="st0">
	<rect x="43.1" y="281.6" class="st1" width="762" height="201.4"/>
	<g class="st1">
		<path d="M229.9,168.9H183v-31.1h18.7v7.8h19.4V107h-19.4v8.1H183V87.3h46.9v9.9h19.4V67.9H140.8c0.8,0.1,31.2,3.4,31.2,29.2
			c0,24.9-15,26.6-15,26.6s18.8,5.3,18.8,30.2c0,28-26.8,34.4-26.8,34.4h100.1v-29.2h-19.4V168.9z"/>
		<path d="M147.3,101.3c0-12.5-14.2-12.5-14.2-12.5H99.2v26.8h33.7C132.9,115.5,147.3,114.8,147.3,101.3z"/>
		<path d="M132.3,136H99.2v33h35c0,0,16.1-0.7,16.1-17.1S132.3,136,132.3,136z"/>
		<path d="M238.8,107.4c0,0-12.4,6.7-12.4,18.3c0,15.5,12.4,20.2,12.4,20.2s12.2-5.2,12.2-20.2C251,114.1,238.8,107.4,238.8,107.4z
			 M249.8,126.6c0,6.1-4.9,11-11,11c-6.1,0-11-4.9-11-11c0-6.1,4.9-11,11-11C244.8,115.6,249.8,120.5,249.8,126.6z"/>
		<circle cx="238.6" cy="126.7" r="5.4"/>
	</g>
	<g class="st1">
		<g>
			<path d="M393.3,187.6c-0.2-0.2-0.5-0.4-0.7-0.8c-0.2-0.4-0.5-0.9-0.8-1.8l-4.7-10.8h-0.6l-3.9,9.7c-0.4,0.9-0.6,1.5-0.9,2
				c-0.2,0.4-0.4,0.8-0.7,1.1c-0.3,0.3-0.6,0.6-0.8,0.8c-0.3,0.2-0.6,0.2-1,0.3v0.2h4.8V188c-0.4,0-0.8-0.1-1.1-0.3
				c-0.2-0.1-0.4-0.3-0.5-0.5c-0.1-0.2-0.2-0.5-0.2-0.7c0-0.4,0.2-1,0.5-1.8l0.3-0.6l0.6-1.4h4.7l1,2.4l0.2,0.4
				c0.2,0.5,0.3,0.9,0.3,1.1c0,0.5-0.2,0.8-0.7,1.1c-0.3,0.2-0.7,0.3-1.3,0.3v0.2h7V188c-0.4,0-0.8-0.1-1-0.2
				C393.7,187.8,393.5,187.7,393.3,187.6z M383.8,182.2l2.1-5.3l2.3,5.3H383.8z"/>
		</g>
		<g>
			<path d="M438.5,175c-0.4-0.3-0.9-0.5-1.5-0.7c-0.5-0.1-1.4-0.2-2.5-0.2h-6.5v0.2h0.1c0.5,0,0.8,0.1,1.1,0.2
				c0.3,0.1,0.5,0.3,0.7,0.6c0.1,0.2,0.2,0.5,0.3,0.8c0.1,0.3,0.1,0.8,0.1,1.4v7.6c0,0.7,0,1.2-0.1,1.6c-0.1,0.3-0.2,0.6-0.5,0.8
				c-0.2,0.2-0.4,0.3-0.7,0.4c-0.3,0.1-0.6,0.1-1,0.2v0.2h6.8V188c-0.4,0-0.7-0.1-1-0.2c-0.3-0.1-0.5-0.2-0.7-0.4
				c-0.2-0.2-0.4-0.5-0.5-0.8c-0.1-0.3-0.1-0.9-0.1-1.6v-3.7h2.1c0.9,0,1.5,0,1.8,0c0.8-0.1,1.4-0.2,2-0.5c1-0.6,1.5-1.5,1.5-2.8
				C440.1,176.7,439.6,175.8,438.5,175z M436.4,180.3c-0.3,0.3-0.6,0.5-1,0.6c-0.4,0.1-0.9,0.1-1.6,0.1h-1.1v-6.5h0.9
				c0.6,0,1,0,1.1,0c0.6,0.1,1.1,0.3,1.6,0.6c0.4,0.3,0.7,0.7,0.9,1.1c0.2,0.5,0.3,1,0.3,1.5C437.5,178.9,437.1,179.7,436.4,180.3z"
				/>
		</g>
		<g>
			<path d="M484.2,175c-0.4-0.3-0.9-0.5-1.5-0.7c-0.5-0.1-1.4-0.2-2.5-0.2h-6.5v0.2h0.1c0.5,0,0.8,0.1,1.1,0.2
				c0.3,0.1,0.5,0.3,0.7,0.6c0.1,0.2,0.2,0.5,0.3,0.8c0.1,0.3,0.1,0.8,0.1,1.4v7.6c0,0.7,0,1.2-0.1,1.6c-0.1,0.3-0.2,0.6-0.5,0.8
				c-0.2,0.2-0.4,0.3-0.7,0.4c-0.3,0.1-0.6,0.1-1,0.2v0.2h6.8V188c-0.4,0-0.7-0.1-1-0.2c-0.3-0.1-0.5-0.2-0.7-0.4
				c-0.2-0.2-0.4-0.5-0.5-0.8c-0.1-0.3-0.1-0.9-0.1-1.6v-3.7h2.1c0.9,0,1.5,0,1.8,0c0.8-0.1,1.4-0.2,2-0.5c1-0.6,1.5-1.5,1.5-2.8
				C485.7,176.7,485.2,175.8,484.2,175z M482,180.3c-0.3,0.3-0.6,0.5-1,0.6c-0.4,0.1-0.9,0.1-1.6,0.1h-1.1v-6.5h0.9c0.6,0,1,0,1.1,0
				c0.6,0.1,1.1,0.3,1.6,0.6c0.4,0.3,0.7,0.7,0.9,1.1c0.2,0.5,0.3,1,0.3,1.5C483.1,178.9,482.7,179.7,482,180.3z"/>
		</g>
		<g>
			<path d="M532.7,187.6c-0.2-0.2-0.5-0.4-0.7-0.8c-0.2-0.4-0.5-0.9-0.8-1.8l-4.7-10.8h-0.6l-3.9,9.7c-0.4,0.9-0.6,1.5-0.9,2
				c-0.2,0.4-0.4,0.8-0.7,1.1c-0.3,0.3-0.6,0.6-0.8,0.8c-0.3,0.2-0.6,0.2-1,0.3v0.2h4.8V188c-0.4,0-0.8-0.1-1.1-0.3
				c-0.2-0.1-0.4-0.3-0.5-0.5c-0.1-0.2-0.2-0.5-0.2-0.7c0-0.4,0.2-1,0.5-1.8l0.3-0.6l0.6-1.4h4.7l1,2.4l0.2,0.4
				c0.2,0.5,0.3,0.9,0.3,1.1c0,0.5-0.2,0.8-0.7,1.1c-0.3,0.2-0.7,0.3-1.3,0.3v0.2h7V188c-0.4,0-0.8-0.1-1-0.2
				C533,187.8,532.8,187.7,532.7,187.6z M523.2,182.2l2.1-5.3l2.3,5.3H523.2z"/>
		</g>
		<g>
			<path d="M580.1,187.4c-0.2-0.3-0.5-0.7-0.8-1.3c-0.3-0.6-0.8-1.5-1.4-2.8c-0.3-0.5-0.5-0.9-0.6-1.1c-0.1-0.2-0.3-0.4-0.5-0.5
				c-0.2-0.2-0.5-0.4-1-0.5c0.5-0.1,0.9-0.2,1.2-0.4c0.3-0.1,0.6-0.3,0.9-0.5c0.8-0.6,1.3-1.5,1.3-2.6c0-0.7-0.2-1.4-0.6-1.9
				c-0.4-0.5-0.9-1-1.6-1.2c-0.6-0.2-1.5-0.4-2.6-0.4c-0.3,0-0.8,0-1.7,0h-5.2v0.2c0.4,0,0.7,0.1,1,0.2c0.3,0.1,0.5,0.2,0.7,0.4
				c0.2,0.2,0.4,0.5,0.5,0.8c0.1,0.3,0.1,0.9,0.1,1.6v7.6c0,0.7,0,1.2-0.1,1.6c-0.1,0.3-0.2,0.6-0.5,0.8c-0.2,0.2-0.4,0.3-0.7,0.4
				c-0.3,0.1-0.6,0.1-1,0.2v0.2h6.8V188c-0.4,0-0.7-0.1-1-0.2c-0.3-0.1-0.5-0.2-0.7-0.4c-0.2-0.2-0.4-0.5-0.5-0.8
				c-0.1-0.3-0.1-0.9-0.1-1.6v-3.6h0.5c0.3,0,0.6,0,0.8,0.1c0.2,0.1,0.4,0.2,0.6,0.3c0.4,0.3,0.8,0.8,1.3,1.5
				c0.5,0.8,0.9,1.6,1.4,2.6l0.7,1.6c0.1,0.1,0.2,0.3,0.3,0.7h3.6V188c-0.3,0-0.5-0.1-0.7-0.2C580.4,187.8,580.3,187.6,580.1,187.4z
				 M574.4,181c-0.4,0.1-1,0.1-1.9,0.1h-0.4v-6.6h0.4c0.8,0,1.4,0,1.8,0.1c0.4,0.1,0.8,0.3,1.1,0.5c0.4,0.3,0.7,0.7,0.9,1.2
				c0.2,0.5,0.3,1,0.3,1.5c0,1-0.4,1.9-1.1,2.6C575.1,180.7,574.8,180.9,574.4,181z"/>
		</g>
		<g>
			<path d="M626.8,185.6c-0.2,0.4-0.4,0.7-0.6,1c-0.4,0.4-0.8,0.8-1.4,1c-0.6,0.2-1.3,0.3-2.2,0.3c-0.8,0-1.5-0.1-2-0.3
				c-0.5-0.2-0.9-0.6-1.1-1.1c-0.1-0.3-0.2-0.6-0.3-1.1c-0.1-0.4-0.1-1.1-0.1-2.1V181h0.6c0.5,0,1,0.1,1.3,0.2
				c0.3,0.1,0.6,0.3,0.8,0.5c0.2,0.2,0.4,0.5,0.5,0.8c0.1,0.3,0.2,0.7,0.3,1.3h0.2l0-5.5l-0.2,0c-0.1,0.5-0.1,0.9-0.2,1.2
				c-0.1,0.3-0.2,0.5-0.4,0.7c-0.2,0.2-0.5,0.4-0.8,0.4c-0.3,0.1-0.8,0.1-1.5,0.1h-0.6v-6.2h2.5c0.8,0,1.4,0,1.8,0.1
				c0.5,0.1,0.9,0.3,1.2,0.5c0.4,0.3,0.7,0.6,0.9,1c0.2,0.4,0.4,0.9,0.5,1.4l0.2,0l-0.2-3.4h-11.5v0.2c0.4,0,0.7,0.1,1,0.2
				c0.3,0.1,0.5,0.2,0.7,0.4c0.2,0.2,0.4,0.5,0.5,0.8c0.1,0.3,0.1,0.9,0.1,1.6v7.6c0,0.7,0,1.2-0.1,1.6c-0.1,0.3-0.2,0.6-0.5,0.8
				c-0.2,0.2-0.4,0.3-0.7,0.4c-0.3,0.1-0.6,0.1-1,0.2v0.2h12.8l0.1-4.1l-0.2,0C627.2,184.8,627,185.2,626.8,185.6z"/>
		</g>
		<g>
			<path d="M673.4,185.5c-0.2,0.4-0.4,0.7-0.6,1.1c-0.4,0.5-0.8,0.8-1.4,1c-0.6,0.2-1.3,0.3-2.1,0.3c-0.8,0-1.5-0.1-2-0.3
				c-0.5-0.2-0.9-0.6-1.1-1.1c-0.1-0.3-0.2-0.6-0.3-1.1c-0.1-0.4-0.1-1.1-0.1-2v-5.9c0-0.7,0-1.3,0.1-1.6c0.1-0.3,0.3-0.6,0.5-0.9
				c0.2-0.2,0.4-0.3,0.7-0.4c0.3-0.1,0.6-0.1,1-0.2v-0.2h-6.8v0.2c0.4,0,0.7,0.1,0.9,0.1c0.2,0.1,0.5,0.2,0.7,0.4
				c0.2,0.2,0.4,0.5,0.5,0.8c0.1,0.3,0.1,0.9,0.1,1.6v7.6c0,0.7,0,1.2-0.1,1.6c-0.1,0.3-0.2,0.6-0.5,0.8c-0.4,0.4-1,0.6-1.7,0.6v0.2
				H674l0.1-4.2l-0.3,0C673.7,184.6,673.6,185.2,673.4,185.5z"/>
		</g>
		<g>
			<path d="M757.1,116.3c-1.3-2.1-4.8-3.1-10.5-3.1c-4.7,0-11,0.7-18.9,2.1c-7.6,1.4-14.9,3-22,4.8c-9.1,2.4-15.3,3.7-18.8,3.7h-0.5
				c-0.7,0-1.3-0.1-1.9-0.2c-0.8-0.2-1.2-0.7-1.2-1.3v-0.2c0-0.1,0.1-0.4,0.3-0.9c0.3-0.8,1.1-1.9,2.3-3.2c0.7-0.7,1.3-1.2,1.7-1.4
				c0.6-0.4,0.9-0.7,1-0.7h0.2c0.7,0.4,1.5,0.6,2.6,0.6c0.5,0,1.3-0.1,2.5-0.2c1.5-0.3,2.7-0.6,3.7-1c3.8-1.4,5.7-2.9,5.7-4.4v-0.2
				c0-0.6-0.4-1.3-1.2-2.1c-0.6-0.5-1.1-0.9-1.6-1.1c-0.3-0.1-0.8-0.2-1.3-0.3c-2.1,0-4.5,0.6-7.4,1.9c-1.7,0.7-3.2,1.6-4.6,2.6
				c-0.6,0.3-1.7,1.3-3.5,2.9c-0.6,0.1-1.3,0.3-2.2,0.7c-2.1,0.8-4.5,1.8-7.1,3.1c-2.7,1.3-5.1,2.6-7.2,3.7c-2.2,1.2-3.6,2-4.3,2.3
				c-0.2,0.1-0.5,0.2-0.9,0.3c-0.4,0.1-0.7,0.1-0.9,0.1c-0.3,0-0.4-0.1-0.5-0.3c0-0.2-0.1-0.4-0.1-0.6c0-0.2,0-0.3,0.1-0.5
				c0.5-1.1,0.9-2.1,1.4-3.1c0.3-0.6,0.6-1.3,0.9-1.9c0.1-0.1,0.1-0.3,0.2-0.5c0.5-1,0.9-1.9,1.3-2.9c0.4-1.2-0.2-2.3-1.5-3.4
				c-0.8-0.6-1.5-0.7-2-0.3c-0.9,0.8-1.7,1.7-2.5,2.6c-3.2,3.3-6.9,6-11.1,8.1c-1.5,0.8-3.3,1.4-5.2,1.7c-0.3,0-0.7-0.1-1-0.4
				c-0.4-0.3-0.6-0.6-0.6-0.9c0.1-1.2,0.5-2.2,1.1-3.1c0.6-0.9,1.3-1.7,2.1-2.5c0.5-0.5,1-1,1.4-1.5c0.4-0.5,0.7-1,1-1.6
				c0.1-0.3,0-0.7-0.4-1.1c-0.4-0.4-0.8-0.8-1.2-1.1c-0.2-0.1-0.6,0-1.1,0.2c-0.5,0.2-1.1,0.5-1.6,0.8c-0.5,0.3-0.9,0.5-1,0.6
				c-0.2,0.2-0.5,0.5-0.7,0.7c-0.1,0.1-0.2,0.2-0.3,0.4c0,0,0,0-0.1,0c-0.1,0.1-0.3,0.2-0.4,0.3c-15.9,8.6-32.6,15.8-49.8,21.5
				c-4.2,1.4-8.4,2.7-12.6,3.9c-4.2,1.2-8.5,2.3-12.8,3.2c-1.7,0.4-3.5,0.7-5.3,0.9c-1.8,0.3-3.5,0.4-5.3,0.3c-0.4,0-0.8,0-1.2,0
				c-0.9,0-1.8,0-2.7,0c-0.9-0.1-1.7-0.2-2.6-0.5c-0.2-1.1-1-2-2.1-2.7c0.2-1.4,0.6-2.8,1.2-4.2c0.8-1.5,1.7-2.9,2.7-4.2
				c1-1.3,2.1-2.6,3.3-3.7c4.3-4.6,9.1-8.7,14.3-12.4c4.9-3.6,10.1-6.9,15.4-9.9c5.3-3,10.8-5.8,16.4-8.4c1.6-0.7,3.2-1.1,4.9-1.4
				c0.6-0.1,1.1-0.1,1.7-0.2c2.1-0.2,4.2-0.6,6.3-1.1c0.4-0.1,0.7-0.2,1-0.3c1.5-0.3,2.9-0.8,4.2-1.5c0.4-0.2,0.6-0.6,0.7-0.9
				c0.1-0.4,0.1-0.8-0.1-1.2c-0.4-0.7-0.9-1.3-1.6-1.8c-0.7-0.4-1.4-0.6-2.1-0.5c-1.7,0.2-3.4,0.6-5,1c-1.4,0.4-2.8,0.9-4.2,1.4
				c-1,0.3-2,0.7-3,1c-0.1,0-0.3,0.1-0.4,0.1c-1,0.4-1.9,0.6-2.9,0.7c-1.6,0.1-3.3,0-4.9-0.1c-1.6-0.2-3.2-0.5-4.8-1
				c-0.5-0.2-1-0.4-1.5-0.7c-2.2-1.2-3.1-2.9-2.5-5.1c0.4-1.4,0.9-2.6,1.6-3.8c1.5-2.2,3.3-4.1,5.4-5.8c6.2-4.9,13.1-8.2,20.9-9.9
				c1.6-0.3,3.2-0.6,4.8-0.8c1.6-0.2,3.3-0.3,4.9-0.2c1.3,0.1,2.5,0.2,3.8,0.5c1.2,0.3,2.4,0.8,3.5,1.5c0.2,0.2,0.5,0.3,0.8,0.3
				c0.1,0,0.2,0,0.3-0.1c0.1-0.1,0.3-0.1,0.4-0.2c0-0.1,0-0.2,0-0.2c0-0.1,0-0.1,0-0.1c-0.1-0.1-0.2-0.3-0.3-0.5
				c-0.2-0.4-0.5-0.8-0.8-1.2c-1.1-1-2.2-1.8-3.6-2.3c-1.3-0.5-2.7-0.8-4.1-0.9c-2.4-0.2-4.9-0.2-7.3,0.1c-8.7,1-16.5,3.9-23.6,8.9
				c-2.1,1.4-4,3.1-5.7,4.9c-1.3,1.4-2.4,3-3.2,4.8c-1.1,2.5-1.1,5.1,0,7.6c1.1,2.7,3,4.6,5.7,5.9c0.5,0.2,0.9,0.4,1.3,0.6
				c0.6,0.2,1.2,0.5,1.8,0.8c0,0,0.1,0.1,0.1,0.1c0,0,0.1,0.1,0.1,0.1c0,0,0.1,0.1,0.1,0.1c0,0.1-0.1,0.2-0.1,0.3s-0.1,0.2-0.2,0.2
				c-1.1,0.6-2.2,1.1-3.3,1.7c-1.1,0.5-2.1,1.1-3.1,1.6c-4.7,2.4-9.2,5-13.6,7.8c-4.4,2.8-8.6,5.8-12.6,9.1c-2,1.7-4,3.4-5.8,5.1
				c-1.9,1.8-3.6,3.7-5.3,5.7c-1.9,2.2-3.5,4.7-4.6,7.4c-0.5,1.2-0.6,2.6-0.4,4.1c-0.9-0.2-1.9-0.4-3.1-0.5
				c-2.3-0.2-4.9-0.2-7.7,0.2c-3.1,0.4-6.4,1.1-9.9,1.9c-3.4,0.8-6.9,1.6-10.3,2.5c-4,1.1-7.7,2-11.2,2.7c-3.4,0.7-6.3,1.1-8.6,1.1
				c-0.1,0-0.1,0-0.2,0c-0.2,0-0.5-0.1-0.8-0.1c-1.2-0.2-1.8-1-1.6-2.2c0.2-1.2,0.8-2.6,1.8-4.2c1-1.6,2.1-3,3.4-4.3
				c1.2-1.3,2.3-2.2,3.2-2.6c1.5-0.6,3-1.2,4.5-1.8c1-0.4,2.1-0.8,3.1-1.3c0.5-0.2,1-0.4,1.4-0.8c0.1-0.1,0.1-0.2,0.1-0.3
				c0-0.2,0-0.3,0-0.4c-0.6-1.3-1.6-1.8-2.8-1.4c-3.6,1-7.1,2.2-10.4,3.6c-0.8,0.3-1.6,0.6-2.4,0.9c-0.1,0-0.2,0.1-0.3,0.1
				c0,0-0.1,0-0.2-0.1c-0.1,0-0.2-0.1-0.2-0.2c-0.4-0.3-0.3-0.8,0.2-1.3c0.5-0.5,1.3-1.1,2.2-1.6c1-0.5,2-1.1,3-1.5s1.9-0.8,2.5-1.1
				c0.4-0.2,0.7-0.3,0.8-0.4c4.1-2.1,8-4.5,11.7-7.1c2.8-1.9,5.3-4,7.7-6.3c2-1.8,3.7-3.8,5.1-6.1c0.4-0.6,0.8-1.4,1-2.1
				c0.5-1.9-0.1-3.5-1.9-4.8c-1-0.7-2.1-1-3.2-0.6c-1.3,0.4-2.6,1-3.7,1.7c-0.5,0.3-1,0.7-1.4,1c-1.8,1.3-3.6,2.6-5.3,4
				c-2.2,1.9-4.4,3.9-6.5,6c-5.7,5.7-11.2,11.6-16.3,17.8c-1.8,2.1-3.5,4.3-5.2,6.4c-1.2,0.6-2.4,1.2-3.8,1.8
				c-3.1,1.5-6.4,3-9.9,4.5c-3.5,1.5-7,2.6-10.5,3.4c-3.5,0.7-6.9,0.8-10,0.1c-1.2-0.3-1.6-1-1.2-2.1c0.5-1.5,1.3-2.8,2.4-3.8
				c2.2-2.3,4.5-4.2,7.1-5.9c2.6-1.6,5.4-2.9,8.6-3.7c1.9-0.5,3.9-0.6,5.9-0.3c0.2,0,0.4,0.1,0.7,0.1c0.2,0.1,0.4,0.1,0.5,0.2
				c0.1,0,0.2-0.1,0.3-0.2c0.1-0.1,0.2-0.3,0.2-0.4c0.1-0.2,0.1-0.3,0-0.4c0-0.1-0.1-0.1-0.1-0.2c-0.1-0.3-0.3-0.6-0.5-0.8
				c-0.9-1-2-1.5-3.3-1.6c-2-0.2-4-0.1-5.9,0.3c-3.3,0.8-6.3,2.1-9,3.8c-2.7,1.7-5.2,3.7-7.4,6.1c-0.5,0.5-0.9,1.1-1.3,1.7
				c-0.4,0.3-0.8,0.6-1.3,1c-1.8,1.3-4.1,2.6-7,4c-2.9,1.4-6.4,2.6-10.5,3.6c-0.2,0-0.4,0-0.5-0.2c-0.1-0.1-0.2-0.3-0.2-0.5
				c0.1-0.6,0.4-1.2,0.7-1.8c0.3-0.6,0.7-1.1,1.1-1.6c0-0.1,0-0.1,0.1-0.2c2.3-3.4,4.9-6.5,7.8-9.3c0.1-0.2,0.3-0.3,0.4-0.5
				c0.4-0.3,0.8-0.7,1.2-1.1c0.3-0.4,0.4-0.9,0.1-1.4c-0.2-0.7-0.7-1.2-1.3-1.7c-0.2-0.2-0.5-0.3-0.7-0.3s-0.5,0.1-0.7,0.2
				c-0.5,0.4-1,0.8-1.4,1.2c-2.7,2.4-5.6,4.5-8.6,6.3c-3,1.8-6.2,3.4-9.5,4.8c-1.5,0.6-3,1.1-4.6,1.5c-0.1,0-0.4,0.1-0.7,0.1
				c-0.3,0-0.7,0-1.1,0c-0.4,0-0.7-0.1-0.9-0.2c-0.2-0.1-0.3-0.3-0.2-0.6c1-1.8,2.4-3.3,4-4.6c1.6-1.3,3.5-2.3,5.4-3.2
				c2-0.8,4-1.5,5.9-2.1c1.3-0.3,2.4-0.5,3.2-0.5c0.8,0,1.5,0,2.1,0.1c0.6,0.1,1.2,0.2,1.9,0.2c0.1-0.1,0.3-0.3,0.4-0.6
				c0.1-0.3,0.1-0.7,0-1.1c-0.1-0.4-0.5-0.8-1-1.2c-1-0.7-2-1.1-3.2-1.3c-1.1-0.2-2.3-0.2-3.5,0.1c-3.1,0.5-6,1.5-8.6,3
				c-2.6,1.5-5,3.3-7.1,5.7c-0.3,0.3-0.5,0.6-0.8,1c-3.3,2.5-6.5,4.7-9.8,6.8c-3.5,2.3-7.4,4.4-11.6,6.3c-1.7,0.8-3.4,1.5-5.1,2
				c-0.6,0.2-1.2,0.2-1.9,0.1c-0.1,0-0.2,0-0.3,0c-0.1,0-0.2-0.1-0.3-0.2c-0.1-0.1-0.2-0.2-0.2-0.4c-0.1-0.5,0-1.1,0.1-1.6
				c0.7-2.4,1.7-4.7,3-6.8c2.2-3.5,4.5-6.9,7.1-10.2c0.7-0.9,1.5-1.6,2.4-2.2c4.8-3.2,9.6-6.4,14.4-9.6c7-4.8,13.5-10.1,19.5-16
				c1.8-1.7,3.5-3.6,5-5.7c1.1-1.6,0.9-3.1-0.5-4.5c-0.7-0.8-1.6-1-2.7-0.7c-1.6,0.5-3.2,1.2-4.7,2c-4,2.3-7.8,5-11.3,8
				c-4,3.3-7.8,6.8-11.4,10.5c-3.6,3.7-7.1,7.5-10.3,11.5c-0.2,0.3-0.4,0.5-0.6,0.8c-0.7,1-1.5,1.8-2.4,2.5
				c-0.2,0.1-0.3,0.3-0.5,0.4c-0.2,0.2-0.3,0.3-0.3,0.5c-0.3,1-0.8,1.9-1.4,2.6c-0.2,0.3-0.4,0.6-0.6,0.9c-0.1,0.1-0.2,0.3-0.3,0.4
				c-0.8,0-1.6,0.1-2.6,0.2c-1.1,0.2-2,0.3-2.8,0.4c-0.2,0-0.5,0.1-0.7,0.1c-0.2,0-0.5,0.1-0.7,0.1c-2.3,0.3-4.6,0.7-6.8,1.1
				c-0.6,0.1-1,0.1-1.4-0.1c-0.4-0.2-0.7-0.5-1-1c-0.6-1.3-1.5-2.3-2.6-3c-1.1-0.7-2.3-1.3-3.6-1.7c-1.8-0.5-3.6-0.8-5.5-0.9
				c-2.7-0.2-5.4-0.2-8.1-0.2c-2.7,0.1-5.4,0.3-8.1,0.6c-0.6,0.1-1.3,0.2-1.9,0.2c-0.2,0-0.4,0-0.6,0c0,0-0.1,0-0.1,0
				c0,0-0.1,0-0.2-0.1c0,0-0.1-0.1-0.1-0.1c0,0,0.1-0.1,0.1-0.1c0-0.1,0-0.1,0.1-0.2c0,0,0.1-0.1,0.1-0.1c0.7-0.4,1.5-0.7,2.3-1.1
				c2.3-1,4.7-1.9,7-2.9c3-1.2,6.1-2.5,9.2-3.7c8.9-3.6,17.7-7.5,26.4-11.6c2.5-1.2,4.9-2.4,7.4-3.6c2.5-1.3,4.9-2.6,7.2-4.1
				c2.5-1.5,4.9-3.3,7.1-5.3c1.6-1.4,2.8-3.1,3.6-5c0.5-1.5,0.6-2.9,0.2-4.4c-0.6-1.9-1.6-3.5-3-4.9c-1.5-1.5-3.2-2.7-5.1-3.6
				c-1.5-0.8-3.1-1.4-4.7-2c-1.6-0.5-3.3-1-5-1.3c-5.1-1.1-10.4-1.5-15.9-1.4c-5.6,0.2-10.9,0.7-15.9,1.6
				c-15,2.7-29.1,7.6-42.5,14.6c-1.9,1-3.7,2.1-5.5,3.3c-0.5,0.3-1,0.6-1.4,0.9c-0.6,0.4-1.1,0.8-1.6,1.4c-0.1,0.1-0.2,0.3-0.2,0.5
				c0,0.2,0,0.4,0,0.6c0,0,0.1,0.2,0.2,0.5c0.2,0.3,0.4,0.7,0.6,1.1c0.3,0.4,0.6,0.8,0.9,1.2c0.3,0.4,0.7,0.6,1,0.8
				c0.3,0.2,0.7,0.2,1-0.1c5.1-4.3,11-8.1,17.8-11.4c6.8-3.3,14.1-6,21.8-8c7.7-2,15.3-3.2,23-3.5c7.6-0.3,14.8,0.4,21.4,2.1
				c2.1,0.5,4,1.3,5.9,2.3c0.1,0.1,0.2,0.1,0.3,0.2c1.1,0.6,2.1,1.3,3,2.1c0.9,0.8,1.3,1.9,1.3,3.1c-0.1,1.3-0.5,2.4-1.2,3.5
				c-1.2,1.7-2.7,3.2-4.3,4.5c-3.2,2.5-6.6,4.7-10.3,6.6c-6.6,3.5-13.4,6.8-20.3,9.8c-6.3,2.8-12.6,5.4-18.9,8
				c-6.4,2.6-12.7,5.1-19.1,7.6c-4,1.5-7.9,3.1-11.9,4.7c-0.2,0.1-0.4,0.1-0.6,0.2c-0.2,0-0.4,0-0.6-0.2c-0.3-0.2-0.3-0.6,0-1.1
				c0.2-0.4,0.5-0.8,0.7-1.2c0.8-1.4,1.7-2.7,2.6-4.1c2.5-3.2,5.5-6.9,9.2-11.2c3.7-4.2,7.1-7.9,10.3-11.2c0.8-0.7,1.4-1.3,2-1.8
				c0.9-0.7,1.3-1.2,1.2-1.5c-0.1-0.3-1.1-0.7-2.8-1c-0.7-0.2-1.4-0.3-2-0.3c-0.6,0-1.1,0.1-1.4,0.4c-4.2,4.8-8.6,9.8-13.1,15.2
				c-4.5,5.4-8.9,11-13.1,16.7c-4.2,5.7-8,11.4-11.4,17.1c-0.5,1.1-0.4,2,0.3,2.9c0.1,0.1,0.3,0.2,0.6,0.3c0.3,0.1,0.6,0.1,0.8,0.1
				c0.3,0,0.5,0,0.5-0.1c0.6-1,1.8-2.7,3.6-5.2c1.8-2.4,3.6-4.7,5.4-7c1.9-2.2,3.2-3.5,4-3.8c0.1,0,0.3,0,0.4,0.1
				c0.2,0.2,0.5,0.4,0.6,0.6c0.4,0.5,0.8,0.8,1.4,1c0.5,0.1,1.1,0.1,1.7,0c0.3,0,0.6-0.1,0.8-0.2c4-0.9,8.1-1.7,12.1-2.4
				c4-0.7,8.1-1.3,12.3-1.7c4.6-0.4,9.1-0.5,13.6-0.3c2.2,0.1,4.2,0.5,6.2,1.4c0.7,0.3,1.2,0.8,1.3,1.5c0,0.4-0.2,0.7-0.5,1
				c-0.3,0.3-0.7,0.5-1.1,0.7c-1.4,0.3-2.8,0.6-4.2,0.9c-2.6,0.6-5.2,1.2-7.8,1.8c-11.8,2.8-23.3,6.3-34.6,10.6
				c-4.4,1.7-8.6,3.6-12.7,5.9c-1.7,1-3.3,2.1-4.9,3.3c-0.8,0.7-1.6,1.5-2.3,2.3c-0.6,0.7-0.7,1.5-0.5,2.3c0.6,2.4,2.2,3.8,4.7,4.2
				c1.6,0.2,3.1,0.3,4.7,0.2c1.6,0,3.2-0.2,4.7-0.5c1.5-0.3,3.1-0.6,4.6-1c4.9-1.1,9.7-2.5,14.3-4.2c4.7-1.7,9.2-3.6,13.7-5.6
				c4.6-2,8.9-4.3,13-7c2.1-1.4,4.1-2.8,5.9-4.4c1.9-1.6,3.5-3.3,5-5.3c0.4-0.6,1-1,1.7-1.1c2.7-0.6,5.4-1.4,8.1-2.3
				c1.3-0.4,2.7-0.8,3.9-1.2c0.4-0.1,0.9-0.2,1.3-0.3c-0.6,1-1.3,1.9-1.9,2.9c-1.3,2.1-2.4,4.3-3.2,6.7c-0.5,1.3-0.7,2.6-0.7,4
				c0,1.1,0.3,2.1,0.9,3.1c1,1.6,2.3,2.4,4,2.3c1.3,0,2.5-0.2,3.6-0.6c0.5-0.2,0.9-0.4,1.4-0.6c0.7-0.2,1.4-0.5,2.1-0.8
				c6.7-3.2,12.8-7.2,18.3-11.9c0.1,0,0.1-0.1,0.2-0.1c0.1-0.1,0.2-0.2,0.3-0.2c0,0,0,0,0,0c0.2,1.1,0.8,2,1.6,2.7s1.8,1.1,3,1.2
				c1.5,0.1,3-0.1,4.5-0.6c2.3-0.7,4.5-1.6,6.6-2.7c0.7-0.3,1.5-0.6,2.2-0.9c0.1,0,0.1-0.1,0.2-0.1c0,0,0.1,0,0.1,0
				c0.1,0,0.1,0.1,0.2,0.1c0,0,0.1,0.1,0.1,0.1c0,0.1,0.1,0.1,0.1,0.1c-0.1,0.3-0.2,0.7-0.4,1.1c-0.2,0.5-0.4,1.1-0.5,1.7
				c-0.2,1-0.2,2,0.3,3s1.1,1.8,2,2.4c0.6,0.4,1.4,0.7,2.2,0.7c0.6,0,1.2,0,1.8-0.2c0.6-0.2,1.2-0.3,1.7-0.5c0,0,0.1,0,0.1-0.1
				c0.6-0.2,1.7-0.7,3.3-1.5c1.6-0.8,3.4-1.8,5.4-2.9c1.6-0.9,3.1-1.9,4.6-2.8c0,0.2,0,0.4,0.1,0.6c0.6,2.6,2.1,4.4,4.7,5.4
				c0.7,0.3,1.4,0.4,2.2,0.5c0.8,0.1,1.6,0.1,2.4,0.2c0.2,0,0.5,0,0.7,0c5.1-0.6,10.3-2,15.6-4.2c3-1.3,5.8-2.6,8.4-4.1
				c-1.9,2.4-3.7,4.7-5.5,7.1c-0.1,0.2-0.2,0.3-0.3,0.5c0,0.1-0.1,0.1-0.1,0.2c-0.4,0.7-0.2,1.4,0.5,2.3c0.2,0.2,0.5,0.4,0.8,0.4
				c0.3,0.1,0.5,0,0.7-0.2c0.4-0.5,0.9-1,1.3-1.5c1.1-1.3,2.1-2.6,3.1-4c1.9-2.8,4.5-4.8,7.6-6.3c1.3-0.6,2-0.8,2.1-0.6
				c0.2,0.2,0.1,0.9-0.3,2c0,0.1-0.1,0.3-0.2,0.4c-0.5,1.8-0.2,3.5,0.9,5.1c1.3,2.2,3.3,3.3,5.8,3.5c1.9,0.1,4.3-0.1,7.1-0.6
				c2.8-0.5,5.9-1.2,9.3-2c3.5-0.8,7.3-1.6,11.4-2.4c4-0.8,8.3-1.4,12.7-1.8c3.3-0.3,6.6-0.4,10-0.4c0.2,0.3,0.5,0.7,0.8,1
				c1.2,1.4,2.8,2.3,5,2.8c3,0.7,5.9,0.8,8.9,0.5c3.7-0.5,7.3-1.1,10.9-1.9c9.1-2.2,18.1-4.9,26.9-8.1c8.2-3,16.1-6.3,23.9-10
				c6-2.8,11.8-5.8,17.6-9c0,1.9,0.8,3.7,2.3,5.4c1.5,1.7,3.3,2.5,5.3,2.3c1.7-0.2,3.2-0.6,4.6-1.3c0.8-0.4,1.6-0.9,2.4-1.3
				c1-0.5,2-1,3-1.6c0.1,0,0.2,0,0.3,0c0.1,0,0.3,0.1,0.4,0.1c0.1,0,0.1,0.1,0.2,0.2c0,0.1,0.1,0.2,0.1,0.3c0,0.1,0,0.2,0,0.2
				c-0.5,1.1-1.1,2.1-1.6,3.2c-0.5,1-1,2-1.5,3.1c-0.6,1.1-1.4,2-2.4,2.8c-2.5,1.8-4.9,3.7-7.3,5.7c-3.6,2.8-6.8,6-9.7,9.5
				c-1.3,1.7-2.6,3.5-3.8,5.3c-0.1,0.1-0.1,0.2-0.2,0.4c-0.7,1.1-1.2,2.4-1.4,3.8c-0.1,1.4,0.3,2.7,1.4,3.9c0.7,0.7,1.4,1.2,2.2,1.5
				c0.8,0.3,1.5,0.2,2.2-0.1c0.9-0.5,1.7-1,2.5-1.6c1.3-1,2.4-2.1,3.4-3.3c2.2-2.6,4.3-5.3,6.3-8c1.3-1.9,2.6-3.8,3.9-5.7
				c1.3-2,2.4-4,3.5-6c1.2-2.3,2.9-4.2,5.1-5.6c4.7-3.1,9.5-6,14.5-8.8c2.6-1.4,5.3-2.9,7.9-4.3c-0.1,0.4-0.2,0.7-0.2,1.1v0.5
				c0,1.2,0.4,2.4,1.1,3.6c0.5,0.6,1,1.1,1.5,1.4c1.1,0.9,2.7,1.4,4.9,1.4h0.2c1.3,0,2.9-0.2,4.8-0.5c4.3-0.7,10.9-2.1,19.7-3.9
				c14.1-3,25.1-4.5,33-4.5c4.5,0,8.4,0.5,11.8,1.4c0.1-0.1,0.2-0.5,0.2-1.2V118C757.6,117.4,757.5,116.8,757.1,116.3z M693.7,112.3
				c3-1.2,5-1.8,5.9-1.8c0.1,0,0.3,0,0.4,0.1c0,0.2-0.2,0.4-0.5,0.8c-0.4,0.4-1.3,0.9-2.7,1.4c-2.5,0.8-4.2,1.2-5.1,1.2
				c-0.2,0-0.4-0.1-0.4-0.2C691.3,113.5,692.1,113,693.7,112.3z M498.3,121.5c1.5-1.5,3.3-3.2,5.4-5c2.1-1.9,4-3.5,5.7-5
				c1.7-1.4,2.7-2.3,2.9-2.5c1.1-0.9,2.1-1.8,3.3-2.6c1.1-0.8,2.3-1.6,3.6-2.2c0.1-0.1,0.3-0.1,0.4-0.1c0.1,0,0.2,0.1,0.3,0.3
				c0,0,0,0.1,0.1,0.2c0,0,0,0.1,0,0.1c0,0,0,0.1,0,0.1c0,0.1,0,0.1-0.1,0.2c-0.1,0.3-0.2,0.6-0.4,0.9c-0.3,0.4-0.6,0.7-0.9,1.1
				c-0.9,1.2-1.9,2.3-3,3.4c-4.1,4.1-8.8,7.6-14,10.5c-0.1,0-0.3,0.2-0.7,0.5c-0.5,0.3-1.2,0.7-1.9,1.2c-0.7,0.5-1.4,0.9-1.9,1.2
				c-0.6,0.3-0.9,0.5-1,0.4C496.1,123.9,496.8,123,498.3,121.5z M397.5,120.5c0-0.1,0.1-0.2,0.1-0.3c0.1-0.1,0.2-0.3,0.3-0.4
				c5.6-6,11.8-11.4,18.6-16.1c0.7-0.4,1.4-0.8,2.1-1.2c0.2-0.1,0.5-0.3,0.8-0.4c0,0,0.1,0,0.2,0.1c0.1,0,0.1,0.1,0.2,0.1
				c0.1,0,0.1,0.1,0.2,0.1c0,0.1,0.1,0.1,0.1,0.1c-0.1,0.3-0.2,0.5-0.4,0.7c-6.4,6.6-13.5,12.4-21.3,17.5c-0.1,0.1-0.2,0.1-0.3,0.1
				c0,0-0.1,0-0.1,0C397.3,121,397.2,120.9,397.5,120.5z M355.6,144.7c-0.1,0.1-0.3,0.3-0.5,0.5c-0.8,0.8-1.7,1.5-2.7,2.2
				c-3.1,2.3-6.3,4.3-9.8,6c-9.8,5.1-20.1,9.1-30.8,12c-3,0.8-6.1,1.4-9.2,2c-1,0.2-2,0.3-2.9,0.3c-0.4,0-0.8,0-1.2,0.1
				c-0.2,0-0.5,0-0.7-0.1c-0.5,0-1-0.1-1.5-0.1c-0.4,0-0.6-0.2-0.5-0.5c0,0,0.1-0.1,0.1-0.2c0,0,0-0.1,0-0.1s0-0.1,0-0.1
				c0.1-0.1,0.1-0.1,0.2-0.2c0.3-0.4,0.6-0.7,0.9-1c1.9-1.5,3.9-2.8,6-3.9c4-2.1,8.1-4,12.4-5.6c10.1-3.8,20.4-7.1,30.9-9.7
				c2.3-0.6,4.7-1.2,7.1-1.7c0.7-0.2,1.3-0.3,2-0.5c0,0,0.1,0,0.2,0c0.1,0,0.1,0,0.2,0.1c0,0,0.1,0,0.1,0.1c0,0.1,0.1,0.2,0.1,0.3
				S355.7,144.7,355.6,144.7z M642.7,146.1c-2.5,3.7-5.3,7.2-8.4,10.4c0,0,0,0.1-0.1,0.1c-0.1,0.2-0.3,0.3-0.5,0.4s-0.4,0.1-0.7,0.1
				c-0.1,0-0.1,0-0.2-0.1c-0.1-0.1-0.1-0.1-0.2-0.2c0-0.1,0-0.3,0.1-0.4c0-0.4,0.1-0.7,0.3-1c0.2-0.2,0.4-0.5,0.5-0.7
				c1.4-1.9,2.8-3.8,4.3-5.6c0.9-1.1,1.9-2,2.9-3c0.4-0.4,0.8-0.7,1.2-1.1c0.2-0.2,0.5-0.2,0.7,0.1c0,0,0.1,0,0.1,0.1
				c0,0,0.1,0.1,0.1,0.1c0,0,0,0.1,0,0.1C642.9,145.7,642.8,145.9,642.7,146.1z"/>
		</g>
	</g>
	<g class="st1">
		<path class="st2" d="M229.9,420.9H183v-31.1h18.6v7.8h19.6V359h-19.4v8.1H183v-27.8h46.9v9.9h19.4v-29.4H140.8
			c0.8,0.1,31.2,3.4,31.2,29.2c0,24.9-15,26.6-15,26.6s18.8,5.3,18.8,30.2c0,28-26.8,34.4-26.8,34.4h100.1v-29.2h-19.4V420.9z"/>
		<path class="st2" d="M147.3,353.3c0-12.5-14.2-12.5-14.2-12.5H99.2v26.8h33.7C132.9,367.5,147.3,366.8,147.3,353.3z"/>
		<path class="st2" d="M132.3,388H99.2v33h35c0,0,16.1-0.7,16.1-17.1S132.3,388,132.3,388z"/>
		<path class="st2" d="M238.8,359.4c0,0-12.4,6.7-12.4,18.3c0,15.5,12.4,20.2,12.4,20.2s12.2-5.2,12.2-20.2
			C251,366.1,238.8,359.4,238.8,359.4z M249.8,378.5c0,6.1-4.9,11-11,11c-6.1,0-11-4.9-11-11c0-6.1,4.9-11,11-11
			C244.8,367.5,249.8,372.5,249.8,378.5z"/>
		<circle class="st2" cx="238.6" cy="378.6" r="5.4"/>
	</g>
	<g class="st1">
		<g>
			<path class="st2" d="M393.3,439.5c-0.2-0.2-0.5-0.4-0.7-0.8c-0.2-0.4-0.5-0.9-0.8-1.8l-4.7-10.8h-0.6l-3.9,9.7
				c-0.4,0.9-0.6,1.5-0.9,2c-0.2,0.4-0.4,0.8-0.7,1.1c-0.3,0.3-0.6,0.6-0.8,0.8c-0.3,0.2-0.6,0.2-1,0.3v0.2h4.8V440
				c-0.4,0-0.8-0.1-1.1-0.3c-0.2-0.1-0.4-0.3-0.5-0.5c-0.1-0.2-0.2-0.5-0.2-0.7c0-0.4,0.2-1,0.5-1.8l0.3-0.6l0.6-1.4h4.7l1,2.4
				l0.2,0.4c0.2,0.5,0.3,0.9,0.3,1.1c0,0.5-0.2,0.8-0.7,1.1c-0.3,0.2-0.7,0.3-1.3,0.3v0.2h7V440c-0.4,0-0.8-0.1-1-0.2
				C393.7,439.8,393.5,439.7,393.3,439.5z M383.8,434.2l2.1-5.3l2.3,5.3H383.8z"/>
		</g>
		<g>
			<path class="st2" d="M438.5,427c-0.4-0.3-0.9-0.5-1.5-0.7c-0.5-0.1-1.4-0.2-2.5-0.2h-6.5v0.2h0.1c0.5,0,0.8,0.1,1.1,0.2
				c0.3,0.1,0.5,0.3,0.7,0.6c0.1,0.2,0.2,0.5,0.3,0.8c0.1,0.3,0.1,0.8,0.1,1.4v7.6c0,0.7,0,1.2-0.1,1.6c-0.1,0.3-0.2,0.6-0.5,0.8
				c-0.2,0.2-0.4,0.3-0.7,0.4c-0.3,0.1-0.6,0.1-1,0.2v0.2h6.8V440c-0.4,0-0.7-0.1-1-0.2c-0.3-0.1-0.5-0.2-0.7-0.4
				c-0.2-0.2-0.4-0.5-0.5-0.8c-0.1-0.3-0.1-0.9-0.1-1.6v-3.7h2.1c0.9,0,1.5,0,1.8,0c0.8-0.1,1.4-0.2,2-0.5c1-0.6,1.5-1.5,1.5-2.8
				C440.1,428.7,439.6,427.7,438.5,427z M436.4,432.3c-0.3,0.3-0.6,0.5-1,0.6c-0.4,0.1-0.9,0.1-1.6,0.1h-1.1v-6.5h0.9
				c0.6,0,1,0,1.1,0c0.6,0.1,1.1,0.3,1.6,0.6c0.4,0.3,0.7,0.7,0.9,1.1c0.2,0.5,0.3,1,0.3,1.5C437.5,430.8,437.1,431.7,436.4,432.3z"
				/>
		</g>
		<g>
			<path class="st2" d="M484.2,427c-0.4-0.3-0.9-0.5-1.5-0.7c-0.5-0.1-1.4-0.2-2.5-0.2h-6.5v0.2h0.1c0.5,0,0.8,0.1,1.1,0.2
				c0.3,0.1,0.5,0.3,0.7,0.6c0.1,0.2,0.2,0.5,0.3,0.8c0.1,0.3,0.1,0.8,0.1,1.4v7.6c0,0.7,0,1.2-0.1,1.6c-0.1,0.3-0.2,0.6-0.5,0.8
				c-0.2,0.2-0.4,0.3-0.7,0.4c-0.3,0.1-0.6,0.1-1,0.2v0.2h6.8V440c-0.4,0-0.7-0.1-1-0.2c-0.3-0.1-0.5-0.2-0.7-0.4
				c-0.2-0.2-0.4-0.5-0.5-0.8c-0.1-0.3-0.1-0.9-0.1-1.6v-3.7h2.1c0.9,0,1.5,0,1.8,0c0.8-0.1,1.4-0.2,2-0.5c1-0.6,1.5-1.5,1.5-2.8
				C485.7,428.7,485.2,427.7,484.2,427z M482,432.3c-0.3,0.3-0.6,0.5-1,0.6c-0.4,0.1-0.9,0.1-1.6,0.1h-1.1v-6.5h0.9c0.6,0,1,0,1.1,0
				c0.6,0.1,1.1,0.3,1.6,0.6c0.4,0.3,0.7,0.7,0.9,1.1c0.2,0.5,0.3,1,0.3,1.5C483.1,430.8,482.7,431.7,482,432.3z"/>
		</g>
		<g>
			<path class="st2" d="M532.7,439.5c-0.2-0.2-0.5-0.4-0.7-0.8c-0.2-0.4-0.5-0.9-0.8-1.8l-4.7-10.8h-0.6l-3.9,9.7
				c-0.4,0.9-0.6,1.5-0.9,2c-0.2,0.4-0.4,0.8-0.7,1.1c-0.3,0.3-0.6,0.6-0.8,0.8c-0.3,0.2-0.6,0.2-1,0.3v0.2h4.8V440
				c-0.4,0-0.8-0.1-1.1-0.3c-0.2-0.1-0.4-0.3-0.5-0.5c-0.1-0.2-0.2-0.5-0.2-0.7c0-0.4,0.2-1,0.5-1.8l0.3-0.6l0.6-1.4h4.7l1,2.4
				l0.2,0.4c0.2,0.5,0.3,0.9,0.3,1.1c0,0.5-0.2,0.8-0.7,1.1c-0.3,0.2-0.7,0.3-1.3,0.3v0.2h7V440c-0.4,0-0.8-0.1-1-0.2
				C533,439.8,532.8,439.7,532.7,439.5z M523.2,434.2l2.1-5.3l2.3,5.3H523.2z"/>
		</g>
		<g>
			<path class="st2" d="M580.1,439.4c-0.2-0.3-0.5-0.7-0.8-1.3c-0.3-0.6-0.8-1.5-1.4-2.8c-0.3-0.5-0.5-0.9-0.6-1.1
				c-0.1-0.2-0.3-0.4-0.5-0.5c-0.2-0.2-0.5-0.4-1-0.5c0.5-0.1,0.9-0.2,1.2-0.4c0.3-0.1,0.6-0.3,0.9-0.5c0.8-0.6,1.3-1.5,1.3-2.6
				c0-0.7-0.2-1.4-0.6-1.9c-0.4-0.5-0.9-1-1.6-1.2c-0.6-0.2-1.5-0.4-2.6-0.4c-0.3,0-0.8,0-1.7,0h-5.2v0.2c0.4,0,0.7,0.1,1,0.2
				c0.3,0.1,0.5,0.2,0.7,0.4c0.2,0.2,0.4,0.5,0.5,0.8c0.1,0.3,0.1,0.9,0.1,1.6v7.6c0,0.7,0,1.2-0.1,1.6s-0.2,0.6-0.5,0.8
				c-0.2,0.2-0.4,0.3-0.7,0.4c-0.3,0.1-0.6,0.1-1,0.2v0.2h6.8V440c-0.4,0-0.7-0.1-1-0.2c-0.3-0.1-0.5-0.2-0.7-0.4
				c-0.2-0.2-0.4-0.5-0.5-0.8c-0.1-0.3-0.1-0.9-0.1-1.6v-3.6h0.5c0.3,0,0.6,0,0.8,0.1c0.2,0.1,0.4,0.2,0.6,0.3
				c0.4,0.3,0.8,0.8,1.3,1.5c0.5,0.8,0.9,1.6,1.4,2.6l0.7,1.6c0.1,0.1,0.2,0.3,0.3,0.7h3.6V440c-0.3,0-0.5-0.1-0.7-0.2
				C580.4,439.7,580.3,439.6,580.1,439.4z M574.4,433c-0.4,0.1-1,0.1-1.9,0.1h-0.4v-6.6h0.4c0.8,0,1.4,0,1.8,0.1
				c0.4,0.1,0.8,0.3,1.1,0.5c0.4,0.3,0.7,0.7,0.9,1.2c0.2,0.5,0.3,1,0.3,1.5c0,1-0.4,1.9-1.1,2.6C575.1,432.7,574.8,432.9,574.4,433
				z"/>
		</g>
		<g>
			<path class="st2" d="M626.8,437.6c-0.2,0.4-0.4,0.7-0.6,1c-0.4,0.4-0.8,0.8-1.4,1c-0.6,0.2-1.3,0.3-2.2,0.3c-0.8,0-1.5-0.1-2-0.3
				c-0.5-0.2-0.9-0.6-1.1-1.1c-0.1-0.3-0.2-0.6-0.3-1.1c-0.1-0.4-0.1-1.1-0.1-2.1V433h0.6c0.5,0,1,0.1,1.3,0.2
				c0.3,0.1,0.6,0.3,0.8,0.5c0.2,0.2,0.4,0.5,0.5,0.8c0.1,0.3,0.2,0.7,0.3,1.3h0.2l0-5.5l-0.2,0c-0.1,0.5-0.1,0.9-0.2,1.2
				c-0.1,0.3-0.2,0.5-0.4,0.7c-0.2,0.2-0.5,0.4-0.8,0.4c-0.3,0.1-0.8,0.1-1.5,0.1h-0.6v-6.2h2.5c0.8,0,1.4,0,1.8,0.1
				c0.5,0.1,0.9,0.3,1.2,0.5c0.4,0.3,0.7,0.6,0.9,1c0.2,0.4,0.4,0.9,0.5,1.4l0.2,0l-0.2-3.4h-11.5v0.2c0.4,0,0.7,0.1,1,0.2
				c0.3,0.1,0.5,0.2,0.7,0.4c0.2,0.2,0.4,0.5,0.5,0.8c0.1,0.3,0.1,0.9,0.1,1.6v7.6c0,0.7,0,1.2-0.1,1.6c-0.1,0.3-0.2,0.6-0.5,0.8
				c-0.2,0.2-0.4,0.3-0.7,0.4c-0.3,0.1-0.6,0.1-1,0.2v0.2h12.8l0.1-4.1l-0.2,0C627.2,436.7,627,437.2,626.8,437.6z"/>
		</g>
		<g>
			<path class="st2" d="M673.4,437.5c-0.2,0.4-0.4,0.7-0.6,1.1c-0.4,0.5-0.8,0.8-1.4,1c-0.6,0.2-1.3,0.3-2.1,0.3
				c-0.8,0-1.5-0.1-2-0.3c-0.5-0.2-0.9-0.6-1.1-1.1c-0.1-0.3-0.2-0.6-0.3-1.1c-0.1-0.4-0.1-1.1-0.1-2v-5.9c0-0.7,0-1.3,0.1-1.6
				c0.1-0.3,0.3-0.6,0.5-0.9c0.2-0.2,0.4-0.3,0.7-0.4c0.3-0.1,0.6-0.1,1-0.2v-0.2h-6.8v0.2c0.4,0,0.7,0.1,0.9,0.1
				c0.2,0.1,0.5,0.2,0.7,0.4c0.2,0.2,0.4,0.5,0.5,0.8c0.1,0.3,0.1,0.9,0.1,1.6v7.6c0,0.7,0,1.2-0.1,1.6c-0.1,0.3-0.2,0.6-0.5,0.8
				c-0.4,0.4-1,0.6-1.7,0.6v0.2H674l0.1-4.2l-0.3,0C673.7,436.6,673.6,437.1,673.4,437.5z"/>
		</g>
		<g>
			<path class="st2" d="M757.1,368.2c-1.3-2.1-4.8-3.1-10.5-3.1c-4.7,0-11,0.7-18.9,2.1c-7.6,1.4-14.9,3-22,4.8
				c-9.1,2.4-15.3,3.7-18.8,3.7h-0.5c-0.7,0-1.3-0.1-1.9-0.2c-0.8-0.2-1.2-0.7-1.2-1.3v-0.2c0-0.1,0.1-0.4,0.3-0.9
				c0.3-0.8,1.1-1.9,2.3-3.2c0.7-0.7,1.3-1.2,1.7-1.4c0.6-0.4,0.9-0.7,1-0.7h0.2c0.7,0.4,1.5,0.6,2.6,0.6c0.5,0,1.3-0.1,2.5-0.2
				c1.5-0.3,2.7-0.6,3.7-1c3.8-1.4,5.7-2.9,5.7-4.4v-0.2c0-0.6-0.4-1.3-1.2-2.1c-0.6-0.5-1.1-0.9-1.6-1.1c-0.3-0.1-0.8-0.2-1.3-0.3
				c-2.1,0-4.5,0.6-7.4,1.9c-1.7,0.7-3.2,1.6-4.6,2.6c-0.6,0.3-1.7,1.3-3.5,2.9c-0.6,0.1-1.3,0.3-2.2,0.7c-2.1,0.8-4.5,1.8-7.1,3.1
				c-2.7,1.3-5.1,2.6-7.2,3.7c-2.2,1.2-3.6,2-4.3,2.3c-0.2,0.1-0.5,0.2-0.9,0.3c-0.4,0.1-0.7,0.1-0.9,0.1c-0.3,0-0.4-0.1-0.5-0.3
				c0-0.2-0.1-0.4-0.1-0.6c0-0.2,0-0.3,0.1-0.5c0.5-1.1,0.9-2.1,1.4-3.1c0.3-0.6,0.6-1.3,0.9-1.9c0.1-0.1,0.1-0.3,0.2-0.5
				c0.5-1,0.9-1.9,1.3-2.9c0.4-1.2-0.2-2.3-1.5-3.4c-0.8-0.6-1.5-0.7-2-0.3c-0.9,0.8-1.7,1.7-2.5,2.6c-3.2,3.3-6.9,6-11.1,8.1
				c-1.5,0.8-3.3,1.4-5.2,1.7c-0.3,0-0.7-0.1-1-0.4c-0.4-0.3-0.6-0.6-0.6-0.9c0.1-1.2,0.5-2.2,1.1-3.1c0.6-0.9,1.3-1.7,2.1-2.5
				c0.5-0.5,1-1,1.4-1.5s0.7-1,1-1.6c0.1-0.3,0-0.7-0.4-1.1c-0.4-0.4-0.8-0.8-1.2-1.1c-0.2-0.1-0.6,0-1.1,0.2
				c-0.5,0.2-1.1,0.5-1.6,0.8c-0.5,0.3-0.9,0.5-1,0.6c-0.2,0.2-0.5,0.5-0.7,0.7c-0.1,0.1-0.2,0.2-0.3,0.4c0,0,0,0-0.1,0
				c-0.1,0.1-0.3,0.2-0.4,0.3c-15.9,8.6-32.6,15.8-49.8,21.5c-4.2,1.4-8.4,2.7-12.6,3.9c-4.2,1.2-8.5,2.3-12.8,3.2
				c-1.7,0.4-3.5,0.7-5.3,0.9c-1.8,0.3-3.5,0.4-5.3,0.3c-0.4,0-0.8,0-1.2,0c-0.9,0-1.8,0-2.7,0c-0.9-0.1-1.7-0.2-2.6-0.5
				c-0.2-1.1-1-2-2.1-2.7c0.2-1.4,0.6-2.8,1.2-4.2c0.8-1.5,1.7-2.9,2.7-4.2c1-1.3,2.1-2.6,3.3-3.7c4.3-4.6,9.1-8.7,14.3-12.4
				c4.9-3.6,10.1-6.9,15.4-9.9c5.3-3,10.8-5.8,16.4-8.4c1.6-0.7,3.2-1.1,4.9-1.4c0.6-0.1,1.1-0.1,1.7-0.2c2.1-0.2,4.2-0.6,6.3-1.1
				c0.4-0.1,0.7-0.2,1-0.3c1.5-0.3,2.9-0.8,4.2-1.5c0.4-0.2,0.6-0.6,0.7-0.9c0.1-0.4,0.1-0.8-0.1-1.2c-0.4-0.7-0.9-1.3-1.6-1.8
				c-0.7-0.4-1.4-0.6-2.1-0.5c-1.7,0.2-3.4,0.6-5,1c-1.4,0.4-2.8,0.9-4.2,1.4c-1,0.3-2,0.7-3,1c-0.1,0-0.3,0.1-0.4,0.1
				c-1,0.4-1.9,0.6-2.9,0.7c-1.6,0.1-3.3,0-4.9-0.1c-1.6-0.2-3.2-0.5-4.8-1c-0.5-0.2-1-0.4-1.5-0.7c-2.2-1.2-3.1-2.9-2.5-5.1
				c0.4-1.4,0.9-2.6,1.6-3.8c1.5-2.2,3.3-4.1,5.4-5.8c6.2-4.9,13.1-8.2,20.9-9.9c1.6-0.3,3.2-0.6,4.8-0.8c1.6-0.2,3.3-0.3,4.9-0.2
				c1.3,0.1,2.5,0.2,3.8,0.5c1.2,0.3,2.4,0.8,3.5,1.5c0.2,0.2,0.5,0.3,0.8,0.3c0.1,0,0.2,0,0.3-0.1s0.3-0.1,0.4-0.2
				c0-0.1,0-0.2,0-0.2c0-0.1,0-0.1,0-0.1c-0.1-0.1-0.2-0.3-0.3-0.5c-0.2-0.4-0.5-0.8-0.8-1.2c-1.1-1-2.2-1.8-3.6-2.3
				c-1.3-0.5-2.7-0.8-4.1-0.9c-2.4-0.2-4.9-0.2-7.3,0.1c-8.7,1-16.5,3.9-23.6,8.9c-2.1,1.4-4,3.1-5.7,4.9c-1.3,1.4-2.4,3-3.2,4.8
				c-1.1,2.5-1.1,5.1,0,7.6c1.1,2.7,3,4.6,5.7,5.9c0.5,0.2,0.9,0.4,1.3,0.6c0.6,0.2,1.2,0.5,1.8,0.8c0,0,0.1,0.1,0.1,0.1
				c0,0,0.1,0.1,0.1,0.1c0,0,0.1,0.1,0.1,0.1c0,0.1-0.1,0.2-0.1,0.3s-0.1,0.2-0.2,0.2c-1.1,0.6-2.2,1.1-3.3,1.7
				c-1.1,0.5-2.1,1.1-3.1,1.6c-4.7,2.4-9.2,5-13.6,7.8c-4.4,2.8-8.6,5.8-12.6,9.1c-2,1.7-4,3.4-5.8,5.1c-1.9,1.8-3.6,3.7-5.3,5.7
				c-1.9,2.2-3.5,4.7-4.6,7.4c-0.5,1.2-0.6,2.6-0.4,4.1c-0.9-0.2-1.9-0.4-3.1-0.5c-2.3-0.2-4.9-0.2-7.7,0.2
				c-3.1,0.4-6.4,1.1-9.9,1.9c-3.4,0.8-6.9,1.6-10.3,2.5c-4,1.1-7.7,2-11.2,2.7c-3.4,0.7-6.3,1.1-8.6,1.1c-0.1,0-0.1,0-0.2,0
				c-0.2,0-0.5-0.1-0.8-0.1c-1.2-0.2-1.8-1-1.6-2.2c0.2-1.2,0.8-2.6,1.8-4.2c1-1.6,2.1-3,3.4-4.3c1.2-1.3,2.3-2.2,3.2-2.6
				c1.5-0.6,3-1.2,4.5-1.8c1-0.4,2.1-0.8,3.1-1.3c0.5-0.2,1-0.4,1.4-0.8c0.1-0.1,0.1-0.2,0.1-0.3c0-0.2,0-0.3,0-0.4
				c-0.6-1.3-1.6-1.8-2.8-1.4c-3.6,1-7.1,2.2-10.4,3.6c-0.8,0.3-1.6,0.6-2.4,0.9c-0.1,0-0.2,0.1-0.3,0.1c0,0-0.1,0-0.2-0.1
				c-0.1,0-0.2-0.1-0.2-0.2c-0.4-0.3-0.3-0.8,0.2-1.3c0.5-0.5,1.3-1.1,2.2-1.6c1-0.5,2-1.1,3-1.5c1-0.5,1.9-0.8,2.5-1.1
				c0.4-0.2,0.7-0.3,0.8-0.4c4.1-2.1,8-4.5,11.7-7.1c2.8-1.9,5.3-4,7.7-6.3c2-1.8,3.7-3.8,5.1-6.1c0.4-0.6,0.8-1.4,1-2.1
				c0.5-1.9-0.1-3.5-1.9-4.8c-1-0.7-2.1-1-3.2-0.6c-1.3,0.4-2.6,1-3.7,1.7c-0.5,0.3-1,0.7-1.4,1c-1.8,1.3-3.6,2.6-5.3,4
				c-2.2,1.9-4.4,3.9-6.5,6c-5.7,5.7-11.2,11.6-16.3,17.8c-1.8,2.1-3.5,4.3-5.2,6.4c-1.2,0.6-2.4,1.2-3.8,1.8
				c-3.1,1.5-6.4,3-9.9,4.5c-3.5,1.5-7,2.6-10.5,3.4c-3.5,0.7-6.9,0.8-10,0.1c-1.2-0.3-1.6-1-1.2-2.1c0.5-1.5,1.3-2.8,2.4-3.8
				c2.2-2.3,4.5-4.2,7.1-5.9c2.6-1.6,5.4-2.9,8.6-3.7c1.9-0.5,3.9-0.6,5.9-0.3c0.2,0,0.4,0.1,0.7,0.1c0.2,0.1,0.4,0.1,0.5,0.2
				c0.1,0,0.2-0.1,0.3-0.2c0.1-0.1,0.2-0.3,0.2-0.4c0.1-0.2,0.1-0.3,0-0.4c0-0.1-0.1-0.1-0.1-0.2c-0.1-0.3-0.3-0.6-0.5-0.8
				c-0.9-1-2-1.5-3.3-1.6c-2-0.2-4-0.1-5.9,0.3c-3.3,0.8-6.3,2.1-9,3.8c-2.7,1.7-5.2,3.7-7.4,6.1c-0.5,0.5-0.9,1.1-1.3,1.7
				c-0.4,0.3-0.8,0.6-1.3,1c-1.8,1.3-4.1,2.6-7,4c-2.9,1.4-6.4,2.6-10.5,3.6c-0.2,0-0.4,0-0.5-0.2c-0.1-0.1-0.2-0.3-0.2-0.5
				c0.1-0.6,0.4-1.2,0.7-1.8c0.3-0.6,0.7-1.1,1.1-1.6c0-0.1,0-0.1,0.1-0.2c2.3-3.4,4.9-6.5,7.8-9.3c0.1-0.2,0.3-0.3,0.4-0.5
				c0.4-0.3,0.8-0.7,1.2-1.1c0.3-0.4,0.4-0.9,0.1-1.4c-0.2-0.7-0.7-1.2-1.3-1.7c-0.2-0.2-0.5-0.3-0.7-0.3s-0.5,0.1-0.7,0.2
				c-0.5,0.4-1,0.8-1.4,1.2c-2.7,2.4-5.6,4.5-8.6,6.3c-3,1.8-6.2,3.4-9.5,4.8c-1.5,0.6-3,1.1-4.6,1.5c-0.1,0-0.4,0.1-0.7,0.1
				c-0.3,0-0.7,0-1.1,0c-0.4,0-0.7-0.1-0.9-0.2c-0.2-0.1-0.3-0.3-0.2-0.6c1-1.8,2.4-3.3,4-4.6c1.6-1.3,3.5-2.3,5.4-3.2
				c2-0.8,4-1.5,5.9-2.1c1.3-0.3,2.4-0.5,3.2-0.5c0.8,0,1.5,0,2.1,0.1c0.6,0.1,1.2,0.2,1.9,0.2c0.1-0.1,0.3-0.3,0.4-0.6
				c0.1-0.3,0.1-0.7,0-1.1c-0.1-0.4-0.5-0.8-1-1.2c-1-0.7-2-1.1-3.2-1.3c-1.1-0.2-2.3-0.2-3.5,0.1c-3.1,0.5-6,1.5-8.6,3
				c-2.6,1.5-5,3.3-7.1,5.7c-0.3,0.3-0.5,0.6-0.8,1c-3.3,2.5-6.5,4.7-9.8,6.8c-3.5,2.3-7.4,4.4-11.6,6.3c-1.7,0.8-3.4,1.5-5.1,2
				c-0.6,0.2-1.2,0.2-1.9,0.1c-0.1,0-0.2,0-0.3,0c-0.1,0-0.2-0.1-0.3-0.2c-0.1-0.1-0.2-0.2-0.2-0.4c-0.1-0.5,0-1.1,0.1-1.6
				c0.7-2.4,1.7-4.7,3-6.8c2.2-3.5,4.5-6.9,7.1-10.2c0.7-0.9,1.5-1.6,2.4-2.2c4.8-3.2,9.6-6.4,14.4-9.6c7-4.8,13.5-10.1,19.5-16
				c1.8-1.7,3.5-3.6,5-5.7c1.1-1.6,0.9-3.1-0.5-4.5c-0.7-0.8-1.6-1-2.7-0.7c-1.6,0.5-3.2,1.2-4.7,2c-4,2.3-7.8,5-11.3,8
				c-4,3.3-7.8,6.8-11.4,10.5c-3.6,3.7-7.1,7.5-10.3,11.5c-0.2,0.3-0.4,0.5-0.6,0.8c-0.7,1-1.5,1.8-2.4,2.5
				c-0.2,0.1-0.3,0.3-0.5,0.4s-0.3,0.3-0.3,0.5c-0.3,1-0.8,1.9-1.4,2.6c-0.2,0.3-0.4,0.6-0.6,0.9c-0.1,0.1-0.2,0.3-0.3,0.4
				c-0.8,0-1.6,0.1-2.6,0.2c-1.1,0.2-2,0.3-2.8,0.4c-0.2,0-0.5,0.1-0.7,0.1c-0.2,0-0.5,0.1-0.7,0.1c-2.3,0.3-4.6,0.7-6.8,1.1
				c-0.6,0.1-1,0.1-1.4-0.1c-0.4-0.2-0.7-0.5-1-1c-0.6-1.3-1.5-2.3-2.6-3c-1.1-0.7-2.3-1.3-3.6-1.7c-1.8-0.5-3.6-0.8-5.5-0.9
				c-2.7-0.2-5.4-0.2-8.1-0.2c-2.7,0.1-5.4,0.3-8.1,0.6c-0.6,0.1-1.3,0.2-1.9,0.2c-0.2,0-0.4,0-0.6,0c0,0-0.1,0-0.1,0
				c0,0-0.1,0-0.2-0.1c0,0-0.1-0.1-0.1-0.1c0,0,0.1-0.1,0.1-0.1c0-0.1,0-0.1,0.1-0.2c0,0,0.1-0.1,0.1-0.1c0.7-0.4,1.5-0.7,2.3-1.1
				c2.3-1,4.7-1.9,7-2.9c3-1.2,6.1-2.5,9.2-3.7c8.9-3.6,17.7-7.5,26.4-11.6c2.5-1.2,4.9-2.4,7.4-3.6c2.5-1.3,4.9-2.6,7.2-4.1
				c2.5-1.5,4.9-3.3,7.1-5.3c1.6-1.4,2.8-3.1,3.6-5c0.5-1.5,0.6-2.9,0.2-4.4c-0.6-1.9-1.6-3.5-3-4.9c-1.5-1.5-3.2-2.7-5.1-3.6
				c-1.5-0.8-3.1-1.4-4.7-2c-1.6-0.5-3.3-1-5-1.3c-5.1-1.1-10.4-1.5-15.9-1.4s-10.9,0.7-15.9,1.6c-15,2.7-29.1,7.6-42.5,14.6
				c-1.9,1-3.7,2.1-5.5,3.3c-0.5,0.3-1,0.6-1.4,0.9c-0.6,0.4-1.1,0.8-1.6,1.4c-0.1,0.1-0.2,0.3-0.2,0.5c0,0.2,0,0.4,0,0.6
				c0,0,0.1,0.2,0.2,0.5c0.2,0.3,0.4,0.7,0.6,1.1c0.3,0.4,0.6,0.8,0.9,1.2c0.3,0.4,0.7,0.6,1,0.8c0.3,0.2,0.7,0.2,1-0.1
				c5.1-4.3,11-8.1,17.8-11.4c6.8-3.3,14.1-6,21.8-8c7.7-2,15.3-3.2,23-3.5c7.6-0.3,14.8,0.4,21.4,2.1c2.1,0.5,4,1.3,5.9,2.3
				c0.1,0.1,0.2,0.1,0.3,0.2c1.1,0.6,2.1,1.3,3,2.1c0.9,0.8,1.3,1.9,1.3,3.1c-0.1,1.3-0.5,2.4-1.2,3.5c-1.2,1.7-2.7,3.2-4.3,4.5
				c-3.2,2.5-6.6,4.7-10.3,6.6c-6.6,3.5-13.4,6.8-20.3,9.8c-6.3,2.8-12.6,5.4-18.9,8c-6.4,2.6-12.7,5.1-19.1,7.6
				c-4,1.5-7.9,3.1-11.9,4.7c-0.2,0.1-0.4,0.1-0.6,0.2c-0.2,0-0.4,0-0.6-0.2c-0.3-0.2-0.3-0.6,0-1.1c0.2-0.4,0.5-0.8,0.7-1.2
				c0.8-1.4,1.7-2.7,2.6-4.1c2.5-3.2,5.5-6.9,9.2-11.2c3.7-4.2,7.1-7.9,10.3-11.2c0.8-0.7,1.4-1.3,2-1.8c0.9-0.7,1.3-1.2,1.2-1.5
				c-0.1-0.3-1.1-0.7-2.8-1c-0.7-0.2-1.4-0.3-2-0.3c-0.6,0-1.1,0.1-1.4,0.4c-4.2,4.8-8.6,9.8-13.1,15.2c-4.5,5.4-8.9,11-13.1,16.7
				c-4.2,5.7-8,11.4-11.4,17.1c-0.5,1.1-0.4,2,0.3,2.9c0.1,0.1,0.3,0.2,0.6,0.3c0.3,0.1,0.6,0.1,0.8,0.1c0.3,0,0.5,0,0.5-0.1
				c0.6-1,1.8-2.7,3.6-5.2c1.8-2.4,3.6-4.7,5.4-7c1.9-2.2,3.2-3.5,4-3.8c0.1,0,0.3,0,0.4,0.1c0.2,0.2,0.5,0.4,0.6,0.6
				c0.4,0.5,0.8,0.8,1.4,1c0.5,0.1,1.1,0.1,1.7,0c0.3,0,0.6-0.1,0.8-0.2c4-0.9,8.1-1.7,12.1-2.4c4-0.7,8.1-1.3,12.3-1.7
				c4.6-0.4,9.1-0.5,13.6-0.3c2.2,0.1,4.2,0.5,6.2,1.4c0.7,0.3,1.2,0.8,1.3,1.5c0,0.4-0.2,0.7-0.5,1c-0.3,0.3-0.7,0.5-1.1,0.7
				c-1.4,0.3-2.8,0.6-4.2,0.9c-2.6,0.6-5.2,1.2-7.8,1.8c-11.8,2.8-23.3,6.3-34.6,10.6c-4.4,1.7-8.6,3.6-12.7,5.9
				c-1.7,1-3.3,2.1-4.9,3.3c-0.8,0.7-1.6,1.5-2.3,2.3c-0.6,0.7-0.7,1.5-0.5,2.3c0.6,2.4,2.2,3.8,4.7,4.2c1.6,0.2,3.1,0.3,4.7,0.2
				c1.6,0,3.2-0.2,4.7-0.5c1.5-0.3,3.1-0.6,4.6-1c4.9-1.1,9.7-2.5,14.3-4.2c4.7-1.7,9.2-3.6,13.7-5.6c4.6-2,8.9-4.3,13-7
				c2.1-1.4,4.1-2.8,5.9-4.4c1.9-1.6,3.5-3.3,5-5.3c0.4-0.6,1-1,1.7-1.1c2.7-0.6,5.4-1.4,8.1-2.3c1.3-0.4,2.7-0.8,3.9-1.2
				c0.4-0.1,0.9-0.2,1.3-0.3c-0.6,1-1.3,1.9-1.9,2.9c-1.3,2.1-2.4,4.3-3.2,6.7c-0.5,1.3-0.7,2.6-0.7,4c0,1.1,0.3,2.1,0.9,3.1
				c1,1.6,2.3,2.4,4,2.3c1.3,0,2.5-0.2,3.6-0.6c0.5-0.2,0.9-0.4,1.4-0.6c0.7-0.2,1.4-0.5,2.1-0.8c6.7-3.2,12.8-7.2,18.3-11.9
				c0.1,0,0.1-0.1,0.2-0.1c0.1-0.1,0.2-0.2,0.3-0.2c0,0,0,0,0,0c0.2,1.1,0.8,2,1.6,2.7s1.8,1.1,3,1.2c1.5,0.1,3-0.1,4.5-0.6
				c2.3-0.7,4.5-1.6,6.6-2.7c0.7-0.3,1.5-0.6,2.2-0.9c0.1,0,0.1-0.1,0.2-0.1c0,0,0.1,0,0.1,0c0.1,0,0.1,0.1,0.2,0.1
				c0,0,0.1,0.1,0.1,0.1c0,0.1,0.1,0.1,0.1,0.1c-0.1,0.3-0.2,0.7-0.4,1.1c-0.2,0.5-0.4,1.1-0.5,1.7c-0.2,1-0.2,2,0.3,3
				s1.1,1.8,2,2.4c0.6,0.4,1.4,0.7,2.2,0.7c0.6,0,1.2,0,1.8-0.2c0.6-0.2,1.2-0.3,1.7-0.5c0,0,0.1,0,0.1-0.1c0.6-0.2,1.7-0.7,3.3-1.5
				c1.6-0.8,3.4-1.8,5.4-2.9c1.6-0.9,3.1-1.9,4.6-2.8c0,0.2,0,0.4,0.1,0.6c0.6,2.6,2.1,4.4,4.7,5.4c0.7,0.3,1.4,0.4,2.2,0.5
				c0.8,0.1,1.6,0.1,2.4,0.2c0.2,0,0.5,0,0.7,0c5.1-0.6,10.3-2,15.6-4.2c3-1.3,5.8-2.6,8.4-4.1c-1.9,2.4-3.7,4.7-5.5,7.1
				c-0.1,0.2-0.2,0.3-0.3,0.5c0,0.1-0.1,0.1-0.1,0.2c-0.4,0.7-0.2,1.4,0.5,2.3c0.2,0.2,0.5,0.4,0.8,0.4c0.3,0.1,0.5,0,0.7-0.2
				c0.4-0.5,0.9-1,1.3-1.5c1.1-1.3,2.1-2.6,3.1-4c1.9-2.8,4.5-4.8,7.6-6.3c1.3-0.6,2-0.8,2.1-0.6c0.2,0.2,0.1,0.9-0.3,2
				c0,0.1-0.1,0.3-0.2,0.4c-0.5,1.8-0.2,3.5,0.9,5.1c1.3,2.2,3.3,3.3,5.8,3.5c1.9,0.1,4.3-0.1,7.1-0.6c2.8-0.5,5.9-1.2,9.3-2
				c3.5-0.8,7.3-1.6,11.4-2.4c4-0.8,8.3-1.4,12.7-1.8c3.3-0.3,6.6-0.4,10-0.4c0.2,0.3,0.5,0.7,0.8,1c1.2,1.4,2.8,2.3,5,2.8
				c3,0.7,5.9,0.8,8.9,0.5c3.7-0.5,7.3-1.1,10.9-1.9c9.1-2.2,18.1-4.9,26.9-8.1c8.2-3,16.1-6.3,23.9-10c6-2.8,11.8-5.8,17.6-9
				c0,1.9,0.8,3.7,2.3,5.4c1.5,1.7,3.3,2.5,5.3,2.3c1.7-0.2,3.2-0.6,4.6-1.3c0.8-0.4,1.6-0.9,2.4-1.3c1-0.5,2-1,3-1.6
				c0.1,0,0.2,0,0.3,0c0.1,0,0.3,0.1,0.4,0.1c0.1,0,0.1,0.1,0.2,0.2c0,0.1,0.1,0.2,0.1,0.3c0,0.1,0,0.2,0,0.2
				c-0.5,1.1-1.1,2.1-1.6,3.2c-0.5,1-1,2-1.5,3.1c-0.6,1.1-1.4,2-2.4,2.8c-2.5,1.8-4.9,3.7-7.3,5.7c-3.6,2.8-6.8,6-9.7,9.5
				c-1.3,1.7-2.6,3.5-3.8,5.3c-0.1,0.1-0.1,0.2-0.2,0.4c-0.7,1.1-1.2,2.4-1.4,3.8c-0.1,1.4,0.3,2.7,1.4,3.9c0.7,0.7,1.4,1.2,2.2,1.5
				s1.5,0.2,2.2-0.1c0.9-0.5,1.7-1,2.5-1.6c1.3-1,2.4-2.1,3.4-3.3c2.2-2.6,4.3-5.3,6.3-8c1.3-1.9,2.6-3.8,3.9-5.7c1.3-2,2.4-4,3.5-6
				c1.2-2.3,2.9-4.2,5.1-5.6c4.7-3.1,9.5-6,14.5-8.8c2.6-1.4,5.3-2.9,7.9-4.3c-0.1,0.4-0.2,0.7-0.2,1.1v0.5c0,1.2,0.4,2.4,1.1,3.6
				c0.5,0.6,1,1.1,1.5,1.4c1.1,0.9,2.7,1.4,4.9,1.4h0.2c1.3,0,2.9-0.2,4.8-0.5c4.3-0.7,10.9-2.1,19.7-3.9c14.1-3,25.1-4.5,33-4.5
				c4.5,0,8.4,0.5,11.8,1.4c0.1-0.1,0.2-0.5,0.2-1.2V370C757.6,369.4,757.5,368.8,757.1,368.2z M693.7,364.3c3-1.2,5-1.8,5.9-1.8
				c0.1,0,0.3,0,0.4,0.1c0,0.2-0.2,0.4-0.5,0.8c-0.4,0.4-1.3,0.9-2.7,1.4c-2.5,0.8-4.2,1.2-5.1,1.2c-0.2,0-0.4-0.1-0.4-0.2
				C691.3,365.5,692.1,365,693.7,364.3z M498.3,373.5c1.5-1.5,3.3-3.2,5.4-5c2.1-1.9,4-3.5,5.7-5c1.7-1.4,2.7-2.3,2.9-2.5
				c1.1-0.9,2.1-1.8,3.3-2.6s2.3-1.6,3.6-2.2c0.1-0.1,0.3-0.1,0.4-0.1c0.1,0,0.2,0.1,0.3,0.3c0,0,0,0.1,0.1,0.2c0,0,0,0.1,0,0.1
				c0,0,0,0.1,0,0.1c0,0.1,0,0.1-0.1,0.2c-0.1,0.3-0.2,0.6-0.4,0.9c-0.3,0.4-0.6,0.7-0.9,1.1c-0.9,1.2-1.9,2.3-3,3.4
				c-4.1,4.1-8.8,7.6-14,10.5c-0.1,0-0.3,0.2-0.7,0.5c-0.5,0.3-1.2,0.7-1.9,1.2c-0.7,0.5-1.4,0.9-1.9,1.2c-0.6,0.3-0.9,0.5-1,0.4
				C496.1,375.9,496.8,375,498.3,373.5z M397.5,372.5c0-0.1,0.1-0.2,0.1-0.3c0.1-0.1,0.2-0.3,0.3-0.4c5.6-6,11.8-11.4,18.6-16.1
				c0.7-0.4,1.4-0.8,2.1-1.2c0.2-0.1,0.5-0.3,0.8-0.4c0,0,0.1,0,0.2,0.1c0.1,0,0.1,0.1,0.2,0.1c0.1,0,0.1,0.1,0.2,0.1
				c0,0.1,0.1,0.1,0.1,0.1c-0.1,0.3-0.2,0.5-0.4,0.7c-6.4,6.6-13.5,12.4-21.3,17.5c-0.1,0.1-0.2,0.1-0.3,0.1c0,0-0.1,0-0.1,0
				C397.3,373,397.2,372.9,397.5,372.5z M355.6,396.7c-0.1,0.1-0.3,0.3-0.5,0.5c-0.8,0.8-1.7,1.5-2.7,2.2c-3.1,2.3-6.3,4.3-9.8,6
				c-9.8,5.1-20.1,9.1-30.8,12c-3,0.8-6.1,1.4-9.2,2c-1,0.2-2,0.3-2.9,0.3c-0.4,0-0.8,0-1.2,0.1c-0.2,0-0.5,0-0.7-0.1
				c-0.5,0-1-0.1-1.5-0.1c-0.4,0-0.6-0.2-0.5-0.5c0,0,0.1-0.1,0.1-0.2c0,0,0-0.1,0-0.1s0-0.1,0-0.1c0.1-0.1,0.1-0.1,0.2-0.2
				c0.3-0.4,0.6-0.7,0.9-1c1.9-1.5,3.9-2.8,6-3.9c4-2.1,8.1-4,12.4-5.6c10.1-3.8,20.4-7.1,30.9-9.7c2.3-0.6,4.7-1.2,7.1-1.7
				c0.7-0.2,1.3-0.3,2-0.5c0,0,0.1,0,0.2,0c0.1,0,0.1,0,0.2,0.1c0,0,0.1,0,0.1,0.1c0,0.1,0.1,0.2,0.1,0.3S355.7,396.7,355.6,396.7z
				 M642.7,398.1c-2.5,3.7-5.3,7.2-8.4,10.4c0,0,0,0.1-0.1,0.1c-0.1,0.2-0.3,0.3-0.5,0.4s-0.4,0.1-0.7,0.1c-0.1,0-0.1,0-0.2-0.1
				c-0.1-0.1-0.1-0.1-0.2-0.2c0-0.1,0-0.3,0.1-0.4c0-0.4,0.1-0.7,0.3-1c0.2-0.2,0.4-0.5,0.5-0.7c1.4-1.9,2.8-3.8,4.3-5.6
				c0.9-1.1,1.9-2,2.9-3c0.4-0.4,0.8-0.7,1.2-1.1c0.2-0.2,0.5-0.2,0.7,0.1c0,0,0.1,0,0.1,0.1c0,0,0.1,0.1,0.1,0.1c0,0,0,0.1,0,0.1
				C642.9,397.7,642.8,397.9,642.7,398.1z"/>
		</g>
	</g>
</g>
</svg>
